<svg width="33" height="33" viewBox="0 0 33 33" fill="currentColor"  xmlns="http://www.w3.org/2000/svg">
<path d="M21.3125 15.8125H17.1875V11.6875C17.1875 11.5052 17.1151 11.3303 16.9861 11.2014C16.8572 11.0724 16.6823 11 16.5 11C16.3177 11 16.1428 11.0724 16.0139 11.2014C15.8849 11.3303 15.8125 11.5052 15.8125 11.6875V15.8125H11.6875C11.5052 15.8125 11.3303 15.8849 11.2014 16.0139C11.0724 16.1428 11 16.3177 11 16.5C11 16.6823 11.0724 16.8572 11.2014 16.9861C11.3303 17.1151 11.5052 17.1875 11.6875 17.1875H15.8125V21.3125C15.8125 21.4948 15.8849 21.6697 16.0139 21.7986C16.1428 21.9276 16.3177 22 16.5 22C16.6823 22 16.8572 21.9276 16.9861 21.7986C17.1151 21.6697 17.1875 21.4948 17.1875 21.3125V17.1875H21.3125C21.4948 17.1875 21.6697 17.1151 21.7986 16.9861C21.9276 16.8572 22 16.6823 22 16.5C22 16.3177 21.9276 16.1428 21.7986 16.0139C21.6697 15.8849 21.4948 15.8125 21.3125 15.8125Z"/>
<path d="M16.5 2.75C13.7805 2.75 11.1221 3.55642 8.86091 5.06729C6.59974 6.57816 4.83737 8.72562 3.79666 11.2381C2.75596 13.7506 2.48366 16.5153 3.01421 19.1825C3.54476 21.8497 4.85432 24.2997 6.77729 26.2227C8.70026 28.1457 11.1503 29.4553 13.8175 29.9858C16.4848 30.5163 19.2494 30.244 21.7619 29.2033C24.2744 28.1626 26.4218 26.4003 27.9327 24.1391C29.4436 21.8779 30.25 19.2195 30.25 16.5C30.2458 12.8546 28.7958 9.35962 26.2181 6.7819C23.6404 4.20419 20.1454 2.75419 16.5 2.75ZM16.5 28.875C14.0525 28.875 11.6599 28.1492 9.62482 26.7894C7.58977 25.4297 6.00363 23.4969 5.067 21.2357C4.13036 18.9745 3.8853 16.4863 4.36279 14.0858C4.84028 11.6852 6.01888 9.48023 7.74956 7.74955C9.48023 6.01888 11.6852 4.84027 14.0858 4.36278C16.4863 3.88529 18.9745 4.13036 21.2357 5.06699C23.4969 6.00363 25.4297 7.58976 26.7894 9.62482C28.1492 11.6599 28.875 14.0525 28.875 16.5C28.8714 19.7809 27.5664 22.9265 25.2464 25.2464C22.9265 27.5664 19.7809 28.8714 16.5 28.875Z" />
</svg>
