<svg width="23" height="23" viewBox="0 0 23 23" fill="currentColor" xmlns="http://www.w3.org/2000/svg">
<g clip-path="url(#clip0)">
<path d="M21.0106 16.2647C20.5258 13.9007 18.8611 12.1143 16.2922 11.2081C16.804 10.4313 17.0856 9.55332 17.0856 8.66243V6.71713V6.71587V4.32365C17.0856 4.3183 17.085 4.31314 17.0848 4.30779C17.0846 4.30267 17.0849 4.29759 17.0846 4.29252C16.9868 2.87218 16.3975 1.72537 15.3804 0.976024C13.9077 -0.108884 11.8827 -0.137994 10.5955 0.166667C9.98919 0.310821 9.61512 0.539473 9.28504 0.741217C8.90644 0.972565 8.57954 1.17242 7.88734 1.28302C6.81887 1.45467 5.00627 1.22489 4.52422 0.3601C4.43037 0.191778 4.2404 0.10126 4.05056 0.134413C3.86077 0.167565 3.7127 0.317245 3.68157 0.507444C3.47677 1.75659 3.7021 2.88498 4.31605 3.68477C4.70983 4.19778 5.24081 4.54983 5.83948 4.70252V6.71713V8.66243C5.83948 9.55934 6.11566 10.4313 6.63388 11.2088C4.04027 12.1149 2.42079 13.8663 1.92391 16.3118C1.73731 16.4607 1.61719 16.6897 1.61719 16.9465V21.5717C1.61719 22.0195 1.98123 22.3838 2.4287 22.3838H3.53984C3.75763 22.3838 3.95524 22.2971 4.10114 22.1568C4.58068 22.6965 5.15672 23 5.74443 23H9.28275C10.2054 23 11.0202 22.5487 11.5 21.8642C11.9799 22.5487 12.7946 23 13.7173 23H17.2543C17.8416 23 18.4178 22.6963 18.898 22.1565C19.0437 22.2969 19.2412 22.3839 19.4589 22.3839H20.5713C21.0188 22.3839 21.3828 22.0195 21.3828 21.5718V16.9465C21.3828 16.6608 21.2342 16.4095 21.0106 16.2647ZM6.31606 3.87057C5.81181 3.81473 5.35743 3.55337 5.03471 3.1329C4.72619 2.73103 4.55126 2.20253 4.51901 1.59635C5.5151 2.22027 7.02052 2.34008 8.03073 2.17773C8.89925 2.03897 9.35525 1.76027 9.75753 1.51437C10.0694 1.32372 10.3388 1.15908 10.8047 1.04835C11.9029 0.788296 13.6196 0.804333 14.8431 1.70565C15.5347 2.2151 15.964 2.9419 16.1234 3.87052H13.229C12.9789 3.87052 12.7761 4.07339 12.7761 4.3236C12.7761 4.57382 12.9789 4.77668 13.229 4.77668H16.1796V6.26396H6.74542V4.77668H9.63619C9.88632 4.77668 10.0892 4.57382 10.0892 4.3236C10.0892 4.07339 9.88632 3.87052 9.63619 3.87052H6.31606V3.87057ZM16.1796 7.17017V8.66238C16.1796 9.54653 15.8273 10.4215 15.2013 11.1542C15.1982 11.1579 15.1948 11.1614 15.1918 11.1653C14.9071 11.4963 14.5666 11.798 14.1773 12.0581C13.3598 12.6054 12.4066 12.9059 11.4901 12.9059C11.4818 12.9059 11.4732 12.9058 11.4648 12.9058C8.99493 12.8901 6.74547 10.8675 6.74547 8.66238V7.17017H16.1796ZM3.44546 21.4777H2.52317V17.0406H3.44546V21.4777ZM4.07612 16.3386C4.07199 16.3349 4.06803 16.331 4.06386 16.3274C4.06709 15.9386 4.22185 15.5664 4.50414 15.2721C4.82614 14.9364 5.27594 14.744 5.7381 14.744H6.94717C7.4993 14.744 8.01042 15.0279 8.31863 15.4674H5.74443C5.14647 15.4673 4.56056 15.7812 4.07612 16.3386ZM11.047 20.4387C11.047 21.3513 10.2555 22.0938 9.28275 22.0938H5.74443C5.26597 22.0938 4.72641 21.6384 4.3514 20.9255V17.5419C4.72645 16.829 5.26601 16.3735 5.74443 16.3735H9.28275C10.2555 16.3735 11.047 17.116 11.047 18.0287V20.4387ZM11.5 16.603C11.0308 15.9338 10.2412 15.4882 9.34362 15.4688C8.95832 14.4929 8.01847 13.8377 6.94712 13.8377H5.73805C5.0304 13.8377 4.34237 14.1318 3.85039 14.6446C3.45018 15.0617 3.21371 15.5826 3.1669 16.1344H2.8949C3.42974 14.0939 4.88826 12.6922 7.24078 11.9618C7.35528 12.081 7.47599 12.197 7.60352 12.3091C8.67985 13.2554 10.0851 13.8032 11.459 13.812C11.4693 13.812 11.4794 13.812 11.4897 13.812C12.5839 13.812 13.7162 13.4572 14.6808 12.8114C15.0572 12.56 15.3957 12.2745 15.6917 11.9628C15.763 11.9852 15.8354 12.0085 15.9089 12.0332C18.0917 12.7788 19.5427 14.224 20.0489 16.1343H19.8243C19.6815 14.8444 18.5865 13.8377 17.2606 13.8377H16.0528C14.9809 13.8377 14.0405 14.4929 13.655 15.4688C12.7581 15.4887 11.969 15.9341 11.5 16.603ZM18.9227 16.3393C18.4376 15.7818 17.8517 15.4673 17.2543 15.4673H14.6802C14.9886 15.0278 15.5001 14.7439 16.0528 14.7439H17.2606C18.1536 14.7439 18.8848 15.4481 18.9316 16.3311C18.9286 16.3338 18.9257 16.3366 18.9227 16.3393ZM17.2543 22.0938H13.7173C12.7445 22.0938 11.953 21.3513 11.953 20.4387V18.0286C11.953 17.116 12.7445 16.3735 13.7173 16.3735H17.2543C17.7323 16.3735 18.2723 16.829 18.6486 17.5421V20.9252C18.2723 21.6383 17.7323 22.0938 17.2543 22.0938ZM20.4768 21.4777H19.5545V17.0406H20.4768V21.4777Z" />
<path d="M11.449 4.77726H11.4605C11.7107 4.77726 11.9135 4.57439 11.9135 4.32418C11.9135 4.07396 11.7107 3.87109 11.4605 3.87109H11.449C11.1989 3.87109 10.9961 4.07396 10.9961 4.32418C10.9961 4.57444 11.1989 4.77726 11.449 4.77726Z" />
</g>
<defs>
<clipPath id="clip0">
<rect width="23" height="23" />
</clipPath>
</defs>
</svg>
