<svg width="24" height="24" viewBox="0 0 24 24" fill="none" xmlns="http://www.w3.org/2000/svg">
<g clip-path="url(#clip0)">
<mask id="path-1-outside-1" maskUnits="userSpaceOnUse" x="-1" y="0.941406" width="26" height="22" fill="black">
<rect fill="white" x="-1" y="0.941406" width="26" height="22"/>
<path d="M23.9729 21.5718L23.326 20.0191C23.3255 20.018 23.325 20.0167 23.3245 20.0156L18.1488 7.59368C18.0942 7.46266 17.9661 7.37735 17.8242 7.37735H16.1139C15.9197 7.37735 15.7623 7.53476 15.7623 7.72891C15.7623 7.92307 15.9197 8.08047 16.1139 8.08047H17.5899L22.474 19.8024H11.5873L6.70317 8.08047H14.7091C14.9033 8.08047 15.0606 7.92307 15.0606 7.72891C15.0606 7.53476 14.9033 7.37735 14.7091 7.37735H6.52739V5.7507H10.4469C10.6411 5.7507 10.7985 5.59329 10.7985 5.39913V2.68123C10.7985 2.48708 10.6411 2.32967 10.4469 2.32967H6.52739V2.29297C6.52739 2.09881 6.36998 1.94141 6.17583 1.94141C5.98167 1.94141 5.82427 2.09881 5.82427 2.29297V2.68123V5.39913V7.6586L1.76555 17.3996L0.0981673 19.1337C-0.0345825 19.2717 -0.0324262 19.4906 0.102995 19.626L0.62176 20.1448L0.0271518 21.5718C-0.0180357 21.6803 -0.00603567 21.8042 0.0591673 21.902C0.12437 21.9998 0.234151 22.0586 0.351667 22.0586H2.68102C2.68229 22.0586 2.68355 22.0586 2.68482 22.0586H9.66927C9.6697 22.0586 9.67012 22.0587 9.67049 22.0587C9.6711 22.0587 9.67176 22.0586 9.67237 22.0586H11.9989C11.9993 22.0586 11.9997 22.0587 12.0001 22.0587C12.0007 22.0587 12.0014 22.0586 12.002 22.0586H23.6484C23.766 22.0586 23.8757 21.9998 23.9409 21.902C24.0062 21.8042 24.0182 21.6803 23.9729 21.5718ZM6.52739 3.03279H10.0954V5.04757H6.52739V3.03279ZM0.879056 21.3554L1.15946 20.6824L1.83259 21.3554H0.879056ZM2.55877 21.0872L1.28865 19.8172C1.2879 19.8164 1.2871 19.8156 1.28635 19.8149L0.843994 19.3725L5.13085 14.9142L2.55877 21.0872ZM3.20874 21.3554L6.17592 14.2342L9.14306 21.3554H3.20874ZM9.90477 21.3554L6.50039 13.1849C6.5003 13.1847 6.5002 13.1846 6.50015 13.1844C6.49401 13.1698 6.4867 13.1556 6.4785 13.1417C6.47686 13.139 6.47517 13.1363 6.47348 13.1336C6.46617 13.1219 6.45816 13.1105 6.4493 13.0996C6.44803 13.098 6.44691 13.0963 6.44559 13.0948C6.43748 13.0851 6.42886 13.0757 6.41953 13.0667C6.41784 13.0651 6.41597 13.0637 6.41428 13.0621C6.41137 13.0594 6.40833 13.0569 6.40528 13.0543C6.39572 13.0461 6.38587 13.0384 6.37575 13.0314C6.37327 13.0297 6.37092 13.0278 6.36839 13.0262C6.35541 13.0176 6.34209 13.0101 6.32836 13.0035C6.32634 13.0025 6.32423 13.0017 6.32222 13.0007C6.3097 12.995 6.29691 12.9901 6.28392 12.9859C6.2812 12.985 6.27848 12.984 6.27576 12.9832C6.26109 12.9789 6.24619 12.9755 6.23114 12.9731C6.22833 12.9726 6.22542 12.9724 6.22256 12.972C6.20897 12.9702 6.19533 12.9692 6.18164 12.969C6.17972 12.9689 6.17784 12.9685 6.17592 12.9685C6.17503 12.9685 6.17419 12.9687 6.1733 12.9687C6.15802 12.9688 6.14278 12.97 6.12764 12.9722C6.12422 12.9726 6.12084 12.9732 6.11747 12.9738C6.10364 12.9761 6.08991 12.9792 6.07641 12.9832C6.07495 12.9836 6.07341 12.9839 6.07195 12.9843C6.05723 12.9889 6.04284 12.9946 6.02873 13.0011C6.02606 13.0024 6.02344 13.0037 6.02077 13.005C6.0082 13.0112 5.99597 13.018 5.98406 13.0258C5.98266 13.0267 5.9812 13.0275 5.9798 13.0284C5.96728 13.0368 5.95528 13.0462 5.94375 13.0564C5.94089 13.0589 5.93822 13.0616 5.93545 13.0642C5.93109 13.0683 5.92659 13.0721 5.92242 13.0764L3.10969 16.0017L5.82427 9.48672V10.8352C5.82427 11.0293 5.98167 11.1867 6.17583 11.1867C6.36998 11.1867 6.52739 11.0293 6.52739 10.8352V9.48672C7.65787 12.1998 9.91701 17.6219 11.0283 20.2889C11.0287 20.29 11.0292 20.2912 11.0297 20.2923C11.2115 20.7285 11.3625 21.091 11.4727 21.3554H9.90477ZM12.2344 21.3554L11.8802 20.5056H22.7669L23.1211 21.3554H12.2344Z"/>
</mask>
<path d="M23.9729 21.5718L23.326 20.0191C23.3255 20.018 23.325 20.0167 23.3245 20.0156L18.1488 7.59368C18.0942 7.46266 17.9661 7.37735 17.8242 7.37735H16.1139C15.9197 7.37735 15.7623 7.53476 15.7623 7.72891C15.7623 7.92307 15.9197 8.08047 16.1139 8.08047H17.5899L22.474 19.8024H11.5873L6.70317 8.08047H14.7091C14.9033 8.08047 15.0606 7.92307 15.0606 7.72891C15.0606 7.53476 14.9033 7.37735 14.7091 7.37735H6.52739V5.7507H10.4469C10.6411 5.7507 10.7985 5.59329 10.7985 5.39913V2.68123C10.7985 2.48708 10.6411 2.32967 10.4469 2.32967H6.52739V2.29297C6.52739 2.09881 6.36998 1.94141 6.17583 1.94141C5.98167 1.94141 5.82427 2.09881 5.82427 2.29297V2.68123V5.39913V7.6586L1.76555 17.3996L0.0981673 19.1337C-0.0345825 19.2717 -0.0324262 19.4906 0.102995 19.626L0.62176 20.1448L0.0271518 21.5718C-0.0180357 21.6803 -0.00603567 21.8042 0.0591673 21.902C0.12437 21.9998 0.234151 22.0586 0.351667 22.0586H2.68102C2.68229 22.0586 2.68355 22.0586 2.68482 22.0586H9.66927C9.6697 22.0586 9.67012 22.0587 9.67049 22.0587C9.6711 22.0587 9.67176 22.0586 9.67237 22.0586H11.9989C11.9993 22.0586 11.9997 22.0587 12.0001 22.0587C12.0007 22.0587 12.0014 22.0586 12.002 22.0586H23.6484C23.766 22.0586 23.8757 21.9998 23.9409 21.902C24.0062 21.8042 24.0182 21.6803 23.9729 21.5718ZM6.52739 3.03279H10.0954V5.04757H6.52739V3.03279ZM0.879056 21.3554L1.15946 20.6824L1.83259 21.3554H0.879056ZM2.55877 21.0872L1.28865 19.8172C1.2879 19.8164 1.2871 19.8156 1.28635 19.8149L0.843994 19.3725L5.13085 14.9142L2.55877 21.0872ZM3.20874 21.3554L6.17592 14.2342L9.14306 21.3554H3.20874ZM9.90477 21.3554L6.50039 13.1849C6.5003 13.1847 6.5002 13.1846 6.50015 13.1844C6.49401 13.1698 6.4867 13.1556 6.4785 13.1417C6.47686 13.139 6.47517 13.1363 6.47348 13.1336C6.46617 13.1219 6.45816 13.1105 6.4493 13.0996C6.44803 13.098 6.44691 13.0963 6.44559 13.0948C6.43748 13.0851 6.42886 13.0757 6.41953 13.0667C6.41784 13.0651 6.41597 13.0637 6.41428 13.0621C6.41137 13.0594 6.40833 13.0569 6.40528 13.0543C6.39572 13.0461 6.38587 13.0384 6.37575 13.0314C6.37327 13.0297 6.37092 13.0278 6.36839 13.0262C6.35541 13.0176 6.34209 13.0101 6.32836 13.0035C6.32634 13.0025 6.32423 13.0017 6.32222 13.0007C6.3097 12.995 6.29691 12.9901 6.28392 12.9859C6.2812 12.985 6.27848 12.984 6.27576 12.9832C6.26109 12.9789 6.24619 12.9755 6.23114 12.9731C6.22833 12.9726 6.22542 12.9724 6.22256 12.972C6.20897 12.9702 6.19533 12.9692 6.18164 12.969C6.17972 12.9689 6.17784 12.9685 6.17592 12.9685C6.17503 12.9685 6.17419 12.9687 6.1733 12.9687C6.15802 12.9688 6.14278 12.97 6.12764 12.9722C6.12422 12.9726 6.12084 12.9732 6.11747 12.9738C6.10364 12.9761 6.08991 12.9792 6.07641 12.9832C6.07495 12.9836 6.07341 12.9839 6.07195 12.9843C6.05723 12.9889 6.04284 12.9946 6.02873 13.0011C6.02606 13.0024 6.02344 13.0037 6.02077 13.005C6.0082 13.0112 5.99597 13.018 5.98406 13.0258C5.98266 13.0267 5.9812 13.0275 5.9798 13.0284C5.96728 13.0368 5.95528 13.0462 5.94375 13.0564C5.94089 13.0589 5.93822 13.0616 5.93545 13.0642C5.93109 13.0683 5.92659 13.0721 5.92242 13.0764L3.10969 16.0017L5.82427 9.48672V10.8352C5.82427 11.0293 5.98167 11.1867 6.17583 11.1867C6.36998 11.1867 6.52739 11.0293 6.52739 10.8352V9.48672C7.65787 12.1998 9.91701 17.6219 11.0283 20.2889C11.0287 20.29 11.0292 20.2912 11.0297 20.2923C11.2115 20.7285 11.3625 21.091 11.4727 21.3554H9.90477ZM12.2344 21.3554L11.8802 20.5056H22.7669L23.1211 21.3554H12.2344Z" fill="white"/>
<path d="M23.9729 21.5718L23.326 20.0191C23.3255 20.018 23.325 20.0167 23.3245 20.0156L18.1488 7.59368C18.0942 7.46266 17.9661 7.37735 17.8242 7.37735H16.1139C15.9197 7.37735 15.7623 7.53476 15.7623 7.72891C15.7623 7.92307 15.9197 8.08047 16.1139 8.08047H17.5899L22.474 19.8024H11.5873L6.70317 8.08047H14.7091C14.9033 8.08047 15.0606 7.92307 15.0606 7.72891C15.0606 7.53476 14.9033 7.37735 14.7091 7.37735H6.52739V5.7507H10.4469C10.6411 5.7507 10.7985 5.59329 10.7985 5.39913V2.68123C10.7985 2.48708 10.6411 2.32967 10.4469 2.32967H6.52739V2.29297C6.52739 2.09881 6.36998 1.94141 6.17583 1.94141C5.98167 1.94141 5.82427 2.09881 5.82427 2.29297V2.68123V5.39913V7.6586L1.76555 17.3996L0.0981673 19.1337C-0.0345825 19.2717 -0.0324262 19.4906 0.102995 19.626L0.62176 20.1448L0.0271518 21.5718C-0.0180357 21.6803 -0.00603567 21.8042 0.0591673 21.902C0.12437 21.9998 0.234151 22.0586 0.351667 22.0586H2.68102C2.68229 22.0586 2.68355 22.0586 2.68482 22.0586H9.66927C9.6697 22.0586 9.67012 22.0587 9.67049 22.0587C9.6711 22.0587 9.67176 22.0586 9.67237 22.0586H11.9989C11.9993 22.0586 11.9997 22.0587 12.0001 22.0587C12.0007 22.0587 12.0014 22.0586 12.002 22.0586H23.6484C23.766 22.0586 23.8757 21.9998 23.9409 21.902C24.0062 21.8042 24.0182 21.6803 23.9729 21.5718ZM6.52739 3.03279H10.0954V5.04757H6.52739V3.03279ZM0.879056 21.3554L1.15946 20.6824L1.83259 21.3554H0.879056ZM2.55877 21.0872L1.28865 19.8172C1.2879 19.8164 1.2871 19.8156 1.28635 19.8149L0.843994 19.3725L5.13085 14.9142L2.55877 21.0872ZM3.20874 21.3554L6.17592 14.2342L9.14306 21.3554H3.20874ZM9.90477 21.3554L6.50039 13.1849C6.5003 13.1847 6.5002 13.1846 6.50015 13.1844C6.49401 13.1698 6.4867 13.1556 6.4785 13.1417C6.47686 13.139 6.47517 13.1363 6.47348 13.1336C6.46617 13.1219 6.45816 13.1105 6.4493 13.0996C6.44803 13.098 6.44691 13.0963 6.44559 13.0948C6.43748 13.0851 6.42886 13.0757 6.41953 13.0667C6.41784 13.0651 6.41597 13.0637 6.41428 13.0621C6.41137 13.0594 6.40833 13.0569 6.40528 13.0543C6.39572 13.0461 6.38587 13.0384 6.37575 13.0314C6.37327 13.0297 6.37092 13.0278 6.36839 13.0262C6.35541 13.0176 6.34209 13.0101 6.32836 13.0035C6.32634 13.0025 6.32423 13.0017 6.32222 13.0007C6.3097 12.995 6.29691 12.9901 6.28392 12.9859C6.2812 12.985 6.27848 12.984 6.27576 12.9832C6.26109 12.9789 6.24619 12.9755 6.23114 12.9731C6.22833 12.9726 6.22542 12.9724 6.22256 12.972C6.20897 12.9702 6.19533 12.9692 6.18164 12.969C6.17972 12.9689 6.17784 12.9685 6.17592 12.9685C6.17503 12.9685 6.17419 12.9687 6.1733 12.9687C6.15802 12.9688 6.14278 12.97 6.12764 12.9722C6.12422 12.9726 6.12084 12.9732 6.11747 12.9738C6.10364 12.9761 6.08991 12.9792 6.07641 12.9832C6.07495 12.9836 6.07341 12.9839 6.07195 12.9843C6.05723 12.9889 6.04284 12.9946 6.02873 13.0011C6.02606 13.0024 6.02344 13.0037 6.02077 13.005C6.0082 13.0112 5.99597 13.018 5.98406 13.0258C5.98266 13.0267 5.9812 13.0275 5.9798 13.0284C5.96728 13.0368 5.95528 13.0462 5.94375 13.0564C5.94089 13.0589 5.93822 13.0616 5.93545 13.0642C5.93109 13.0683 5.92659 13.0721 5.92242 13.0764L3.10969 16.0017L5.82427 9.48672V10.8352C5.82427 11.0293 5.98167 11.1867 6.17583 11.1867C6.36998 11.1867 6.52739 11.0293 6.52739 10.8352V9.48672C7.65787 12.1998 9.91701 17.6219 11.0283 20.2889C11.0287 20.29 11.0292 20.2912 11.0297 20.2923C11.2115 20.7285 11.3625 21.091 11.4727 21.3554H9.90477ZM12.2344 21.3554L11.8802 20.5056H22.7669L23.1211 21.3554H12.2344Z" stroke="white" stroke-width="0.2" mask="url(#path-1-outside-1)"/>
</g>
<defs>
<clipPath id="clip0">
<rect width="24" height="24" fill="white"/>
</clipPath>
</defs>
</svg>
