<svg width="23" height="23" viewBox="0 0 23 23" fill="currentColor" xmlns="http://www.w3.org/2000/svg">
<g clip-path="url(#clip0)">
<path d="M10.0467 17.0117C9.79653 17.0117 9.59375 17.2145 9.59375 17.4647C9.59375 17.7149 9.79657 17.9177 10.0467 17.9177H12.9465C13.1966 17.9177 13.3995 17.7149 13.3995 17.4647C13.3995 17.2145 13.1966 17.0117 12.9465 17.0117H10.0467Z"/>
<path d="M22.9391 6.8963L21.2487 3.97202C21.1885 3.86803 21.0895 3.79215 20.9735 3.76111C20.8575 3.73007 20.7338 3.74638 20.6298 3.80662L16.9967 5.90694C16.3326 6.29134 15.9524 6.98098 15.9299 7.69753L15.8728 7.73059C15.1935 4.41383 13.7465 1.81824 11.7615 0.379213C11.6029 0.264258 11.3883 0.264168 11.2296 0.379258C10.0786 1.21386 9.09136 2.46377 8.33694 4.03091C8.32742 4.04794 8.31902 4.06564 8.31165 4.08397C8.15649 4.41001 8.01112 4.74921 7.87667 5.10145C7.15046 7.00384 6.74823 9.21413 6.71337 11.4935C6.71328 11.4981 6.71328 11.5028 6.71337 11.5074C6.72106 12.004 6.74733 12.499 6.78961 12.9842L5.98789 13.4478C5.66912 13.2671 5.30399 13.1668 4.92557 13.1668C4.55146 13.1668 4.18265 13.2657 3.85908 13.453L0.226251 15.5545C0.00977253 15.6797 -0.0642587 15.9566 0.0608038 16.1732L1.74996 19.0973C1.81006 19.2013 1.90907 19.2773 2.02515 19.3083C2.06365 19.3186 2.103 19.3237 2.14221 19.3237C2.22114 19.3237 2.29944 19.3031 2.36893 19.2629L6.00172 17.1629C6.49555 16.8775 6.84913 16.4151 6.99732 15.8608C7.04526 15.6815 7.06942 15.4998 7.071 15.3194L7.1227 15.2895C7.80435 18.5983 9.24993 21.1875 11.2296 22.6228C11.3854 22.7355 11.606 22.7374 11.7616 22.6227C13.4003 21.4338 14.6809 19.4467 15.465 16.876C15.538 16.6367 15.4032 16.3835 15.1639 16.3104C14.9246 16.2376 14.6714 16.3723 14.5983 16.6116C13.9945 18.5913 13.0869 20.1864 11.9485 21.2843V19.2028H12.1816C12.4318 19.2028 12.6346 19 12.6346 18.7498C12.6346 18.4997 12.4318 18.2968 12.1816 18.2968H10.8094C10.5592 18.2968 10.3564 18.4997 10.3564 18.7498C10.3564 19 10.5592 19.2028 10.8094 19.2028H11.0425V21.2852C9.55958 19.8584 8.4793 17.6053 7.95133 14.8103L9.26422 14.0511C9.53806 15.0264 10.4343 15.7438 11.4955 15.7438C12.7736 15.7438 13.8134 14.7035 13.8134 13.4249V11.4203L15.3331 10.5413C15.3537 10.8625 15.3673 11.1831 15.3716 11.5004C15.364 12.034 15.3338 12.5719 15.2822 13.0992C15.2577 13.3482 15.4399 13.5699 15.6889 13.5943C15.7039 13.5958 15.7188 13.5965 15.7336 13.5965C15.9638 13.5965 16.161 13.4216 16.1838 13.1876C16.2382 12.6331 16.2698 12.0676 16.2776 11.5068C16.2777 11.5027 16.2777 11.4985 16.2776 11.4944C16.2712 11.0132 16.2457 10.5246 16.2037 10.0379L16.9682 9.59574C17.297 9.79268 17.678 9.90292 18.0737 9.90296C18.0737 9.90296 18.0737 9.90296 18.0737 9.90296C18.4477 9.90296 18.8166 9.804 19.1408 9.61663L22.7737 7.51523C22.9903 7.3899 23.0644 7.11282 22.9391 6.8963ZM11.4958 1.31646C12.2738 1.94411 12.9553 2.78339 13.522 3.7993H9.47567C10.0412 2.78788 10.7213 1.94312 11.4958 1.31646ZM7.61949 11.5005C7.65916 8.95709 8.16071 6.60516 9.01971 4.70524H11.0426V5.63417C11.0426 5.88434 11.2454 6.08717 11.4956 6.08717C11.7458 6.08717 11.9486 5.88434 11.9486 5.63417V4.70524H13.9758C14.4403 5.7392 14.8012 6.91683 15.0439 8.21004L13.7294 8.97034C13.4586 7.99042 12.56 7.26857 11.4956 7.26857C10.2175 7.26857 9.17765 8.30878 9.17765 9.58743V11.6029L7.65988 12.4808C7.63885 12.1564 7.62466 11.8289 7.61949 11.5005ZM12.9006 9.4497L10.0838 11.0789V9.58748C10.0838 8.8084 10.7171 8.17464 11.4956 8.17464C12.2276 8.1746 12.8311 8.73504 12.9006 9.4497ZM6.12207 15.6267C6.0364 15.9472 5.83268 16.2141 5.54837 16.3785L2.30784 18.2517L1.07186 16.1121L4.31284 14.2373C4.49877 14.1297 4.71062 14.0728 4.92557 14.0728C5.36886 14.0728 5.78062 14.309 6.00024 14.6895C6.07858 14.8251 6.12907 14.9717 6.15149 15.1228C6.15172 15.1249 6.15216 15.127 6.15248 15.1291C6.17584 15.2927 6.16632 15.4614 6.12207 15.6267ZM6.78484 14.2364C6.75542 14.1854 6.7233 14.1364 6.69006 14.0884L15.7504 8.84797C15.7651 8.84061 15.7792 8.83234 15.7928 8.82349L16.115 8.63716C16.1447 8.70351 16.1781 8.76896 16.2152 8.8332C16.2371 8.8712 16.2604 8.90817 16.2845 8.94447L15.5132 9.39054C15.5083 9.39315 15.5037 9.39602 15.499 9.39876L9.41758 12.9157C9.41345 12.9179 9.40949 12.9205 9.40545 12.9227L6.86566 14.3915C6.84077 14.339 6.81418 14.2872 6.78484 14.2364ZM12.9074 13.4249C12.9074 14.2039 12.274 14.8377 11.4956 14.8377C10.7669 14.8377 10.1655 14.2825 10.0915 13.5726L12.9074 11.9442V13.4249ZM18.6874 8.83216C18.5011 8.93984 18.2889 8.9968 18.0738 8.9968C17.6309 8.9968 17.2194 8.76056 16.9999 8.3802C16.9127 8.22891 16.8612 8.06669 16.8425 7.90327C16.8422 7.90048 16.842 7.89779 16.8417 7.89505C16.7911 7.42332 17.0149 6.94324 17.4504 6.6911L20.6911 4.81763L21.9281 6.95757L18.6874 8.83216Z"/>
<path d="M15.5673 14.5537C15.3216 14.5049 15.0835 14.6644 15.0348 14.9098L15.0322 14.9226C14.9834 15.168 15.1429 15.4064 15.3883 15.4551C15.4181 15.4611 15.4477 15.4639 15.477 15.4639C15.6888 15.4639 15.8781 15.3147 15.9209 15.0991L15.9235 15.0863C15.9721 14.8409 15.8127 14.6024 15.5673 14.5537Z"/>
</g>
<defs>
<clipPath id="clip0">
<rect width="23" height="23"/>
</clipPath>
</defs>
</svg>
