<svg width="24" height="24" viewBox="0 0 24 24" fill="none" xmlns="http://www.w3.org/2000/svg">
<path d="M23.1687 23.0623H19.1432L19.1186 11.5417C19.118 11.2831 18.9083 11.0739 18.6498 11.0739C18.6495 11.0739 18.6491 11.0739 18.6488 11.0739C18.3898 11.0745 18.1804 11.2848 18.181 11.5438L18.2056 23.0623H16.8439L16.8319 17.9366C16.8312 17.6781 16.6215 17.4689 16.3631 17.4689C16.3627 17.4689 16.3623 17.4689 16.3619 17.4689C16.103 17.4695 15.8936 17.6799 15.8942 17.9388L15.9063 23.0623H14.7679V16.8579C16.0949 16.7406 17.1383 15.6501 17.1383 14.3259V9.78262C17.1383 9.06019 16.985 8.35205 16.6918 7.69805C17.6177 7.75988 18.4795 8.13656 19.1425 8.77678C19.868 9.47738 20.2687 10.409 20.2708 11.4004L20.2794 14.0684C20.2802 14.3268 20.4899 14.5357 20.7482 14.5357C20.7487 14.5357 20.7492 14.5357 20.7497 14.5357C21.0086 14.5349 21.2179 14.3243 21.2171 14.0654L21.2085 11.3979C21.2058 10.1511 20.7034 8.98064 19.7938 8.1023C19.2742 7.60059 18.6571 7.22902 17.9846 7.00359C18.461 6.55017 18.7582 5.91033 18.7567 5.20233C18.7538 3.8363 17.6416 2.727 16.2762 2.727C16.2744 2.727 16.2725 2.727 16.2708 2.727C15.873 2.72789 15.4775 2.8253 15.127 3.00872C14.8976 3.12881 14.809 3.41212 14.9291 3.64153C15.0492 3.87094 15.3326 3.95958 15.5619 3.83948C15.7825 3.72403 16.0217 3.6652 16.2729 3.66464C17.125 3.66422 17.8173 4.35352 17.8191 5.2043C17.821 6.05508 17.1303 6.74873 16.2795 6.75056C16.2593 6.75061 16.2395 6.75234 16.2201 6.75488C16.1951 6.75591 16.1702 6.7568 16.1451 6.7582C15.4678 5.8312 14.5169 5.15873 13.4339 4.81748C14.0089 4.31302 14.3729 3.57366 14.3729 2.75039C14.3727 1.2338 13.139 0 11.6225 0C10.1059 0 8.87206 1.2338 8.87206 2.75039C8.87206 3.61355 9.27209 4.38473 9.89614 4.88934C8.90202 5.24812 8.0308 5.89083 7.39808 6.75553C7.32383 6.7522 7.24967 6.75023 7.17589 6.75023C7.14083 6.75023 7.10586 6.7508 7.07094 6.75155C7.06236 6.75108 7.05392 6.75023 7.04525 6.75023C6.19447 6.75023 5.50231 6.05808 5.50231 5.2073C5.50231 4.35652 6.19447 3.66436 7.04525 3.66436C7.30241 3.66436 7.5568 3.72877 7.78086 3.85059C8.00834 3.9742 8.29297 3.89011 8.41672 3.66263C8.54037 3.43514 8.45623 3.15047 8.22875 3.02677C7.86763 2.83041 7.45836 2.72662 7.0452 2.72662C5.67739 2.72662 4.56458 3.83944 4.56458 5.20725C4.56458 5.95209 4.89505 6.62081 5.41648 7.07592C3.644 7.75941 2.38733 9.44367 2.38733 11.4081V14.0669C2.38733 14.3258 2.59723 14.5357 2.85617 14.5357C3.11511 14.5357 3.32502 14.3258 3.32502 14.0669V11.4081C3.32502 9.46373 4.87733 7.86408 6.84739 7.70241C6.5555 8.35514 6.40283 9.06169 6.40283 9.78262V14.3259C6.40283 15.6763 7.48784 16.7837 8.85228 16.8638V23.0623H7.57503V17.9376C7.57503 17.6786 7.36513 17.4687 7.10619 17.4687C6.84725 17.4687 6.63734 17.6786 6.63734 17.9376V23.0623H5.48488V11.5475C5.48488 11.2885 5.27497 11.0786 5.01603 11.0786C4.75709 11.0786 4.54719 11.2885 4.54719 11.5475V23.0623H0.828219C0.569281 23.0623 0.359375 23.2722 0.359375 23.5312C0.359375 23.7901 0.569234 24 0.828219 24H23.1687C23.4276 24 23.6375 23.7901 23.6375 23.5312C23.6375 23.2722 23.4276 23.0623 23.1687 23.0623ZM9.8097 2.75039C9.8097 1.75087 10.6229 0.937687 11.6224 0.937687C12.6219 0.937687 13.4351 1.75087 13.4351 2.75039C13.4351 3.74991 12.6219 4.56309 11.6224 4.56309C10.6229 4.56309 9.8097 3.74991 9.8097 2.75039ZM14.299 9.47184C14.0401 9.47184 13.8302 9.68175 13.8302 9.94069V23.0623H12.1604V16.5398C12.1604 16.2809 11.9505 16.071 11.6915 16.071C11.4326 16.071 11.2227 16.2809 11.2227 16.5398V23.0624H9.78997V9.94069C9.78997 9.68175 9.58006 9.47184 9.32113 9.47184C9.06219 9.47184 8.85228 9.68175 8.85228 9.94069V15.9239C8.00539 15.847 7.34047 15.1598 7.34047 14.326V9.78267C7.34047 8.97127 7.57644 8.18147 8.02288 7.49873C8.84094 6.24769 10.2419 5.50078 11.7705 5.50078C13.3017 5.50078 14.7039 6.24961 15.5215 7.50394C15.9657 8.1855 16.2006 8.97347 16.2006 9.78267V14.326C16.2006 15.1337 15.5767 15.8037 14.7679 15.9148V9.94069C14.7679 9.68175 14.558 9.47184 14.299 9.47184Z" fill="white"/>
</svg>
