<svg width="33" height="33" viewBox="0 0 33 33" fill="currentColor"  xmlns="http://www.w3.org/2000/svg">
<path d="M24.0625 4.125H22V3.4375C22 3.25516 21.9276 3.0803 21.7986 2.95136C21.6697 2.82243 21.4948 2.75 21.3125 2.75H11.6875C11.5052 2.75 11.3303 2.82243 11.2014 2.95136C11.0724 3.0803 11 3.25516 11 3.4375V4.125H8.9375C8.02611 4.12596 7.15233 4.48844 6.50789 5.13289C5.86344 5.77733 5.50096 6.65111 5.5 7.5625V26.8125C5.50096 27.7239 5.86344 28.5977 6.50789 29.2421C7.15233 29.8866 8.02611 30.249 8.9375 30.25H24.0625C24.9739 30.249 25.8477 29.8866 26.4921 29.2421C27.1366 28.5977 27.499 27.7239 27.5 26.8125V7.5625C27.499 6.65111 27.1366 5.77733 26.4921 5.13289C25.8477 4.48844 24.9739 4.12596 24.0625 4.125ZM12.375 4.125H20.625V5.5H12.375V4.125ZM26.125 26.8125C26.1244 27.3593 25.9069 27.8836 25.5202 28.2702C25.1336 28.6569 24.6093 28.8744 24.0625 28.875H8.9375C8.39068 28.8744 7.86642 28.6569 7.47976 28.2702C7.09309 27.8836 6.8756 27.3593 6.875 26.8125V7.5625C6.8756 7.01568 7.09309 6.49142 7.47976 6.10476C7.86642 5.71809 8.39068 5.5006 8.9375 5.5H11V6.1875C11 6.36984 11.0724 6.5447 11.2014 6.67364C11.3303 6.80257 11.5052 6.875 11.6875 6.875H21.3125C21.4948 6.875 21.6697 6.80257 21.7986 6.67364C21.9276 6.5447 22 6.36984 22 6.1875V5.5H24.0625C24.6093 5.5006 25.1336 5.71809 25.5202 6.10476C25.9069 6.49142 26.1244 7.01568 26.125 7.5625V26.8125Z"/>
<path d="M21.3125 11H11.6875C11.5052 11 11.3303 11.0724 11.2014 11.2014C11.0724 11.3303 11 11.5052 11 11.6875C11 11.8698 11.0724 12.0447 11.2014 12.1736C11.3303 12.3026 11.5052 12.375 11.6875 12.375H21.3125C21.4948 12.375 21.6697 12.3026 21.7986 12.1736C21.9276 12.0447 22 11.8698 22 11.6875C22 11.5052 21.9276 11.3303 21.7986 11.2014C21.6697 11.0724 21.4948 11 21.3125 11Z" />
<path d="M21.3125 15.125H11.6875C11.5052 15.125 11.3303 15.1974 11.2014 15.3264C11.0724 15.4553 11 15.6302 11 15.8125C11 15.9948 11.0724 16.1697 11.2014 16.2986C11.3303 16.4276 11.5052 16.5 11.6875 16.5H21.3125C21.4948 16.5 21.6697 16.4276 21.7986 16.2986C21.9276 16.1697 22 15.9948 22 15.8125C22 15.6302 21.9276 15.4553 21.7986 15.3264C21.6697 15.1974 21.4948 15.125 21.3125 15.125Z" />
<path d="M21.3125 19.25H11.6875C11.5052 19.25 11.3303 19.3224 11.2014 19.4514C11.0724 19.5803 11 19.7552 11 19.9375C11 20.1198 11.0724 20.2947 11.2014 20.4236C11.3303 20.5526 11.5052 20.625 11.6875 20.625H21.3125C21.4948 20.625 21.6697 20.5526 21.7986 20.4236C21.9276 20.2947 22 20.1198 22 19.9375C22 19.7552 21.9276 19.5803 21.7986 19.4514C21.6697 19.3224 21.4948 19.25 21.3125 19.25Z"/>
<path d="M17.1875 23.375H11.6875C11.5052 23.375 11.3303 23.4474 11.2014 23.5764C11.0724 23.7053 11 23.8802 11 24.0625C11 24.2448 11.0724 24.4197 11.2014 24.5486C11.3303 24.6776 11.5052 24.75 11.6875 24.75H17.1875C17.3698 24.75 17.5447 24.6776 17.6736 24.5486C17.8026 24.4197 17.875 24.2448 17.875 24.0625C17.875 23.8802 17.8026 23.7053 17.6736 23.5764C17.5447 23.4474 17.3698 23.375 17.1875 23.375Z"/>
</svg>
