<svg width="33" height="33" viewBox="0 0 33 33" fill="none" xmlns="http://www.w3.org/2000/svg">
<circle cx="22.0104" cy="13.3073" r="3.66278" stroke="currentColor" stroke-width="1.375"/>
<path fill-rule="evenodd" clip-rule="evenodd" d="M8.875 16.7148H13.1062C14.8186 16.7148 16.3483 17.4975 17.357 18.7245C17.8095 18.5445 18.2856 18.4112 18.7795 18.3305C17.5406 16.5245 15.4617 15.3398 13.1062 15.3398H8.875C5.07804 15.3398 2 18.4179 2 22.2148V22.6654C2 23.4248 2.61561 24.0404 3.375 24.0404H13.1054C13.1802 23.5641 13.3039 23.104 13.4712 22.6654L3.375 22.6654V22.2148C3.375 19.1773 5.83743 16.7148 8.875 16.7148Z" fill="currentColor"/>
<path d="M13.7109 25.1133C13.7109 21.696 16.4812 18.9258 19.8984 18.9258H24.1296C27.5469 18.9258 30.3171 21.696 30.3171 25.1133V25.5638C30.3171 25.9435 30.0093 26.2513 29.6296 26.2513H14.3984C14.0187 26.2513 13.7109 25.9435 13.7109 25.5638V25.1133Z" stroke="currentColor" stroke-width="1.375" stroke-linejoin="round"/>
<circle cx="10.9909" cy="10.4089" r="3.66278" stroke="currentColor" stroke-width="1.375"/>
</svg>
