<svg width="28" height="28" viewBox="0 0 28 28" fill="none" xmlns="http://www.w3.org/2000/svg">
<path d="M6.12891 0.557768L6.12891 27.4422C6.12891 27.7502 6.37862 28 6.68668 28H9.12502H18.8784H21.3168C21.6248 28 21.8746 27.7502 21.8746 27.4422V0.557768C21.8746 0.249768 21.6248 -8.34465e-07 21.3168 -8.34465e-07H18.8784H9.12502H6.68668C6.37856 -8.34465e-07 6.12891 0.249768 6.12891 0.557768ZM7.24444 26.8845L7.24444 14.5578H8.56725V20.749V26.8845H7.24444ZM9.68279 7.80876H13.4439V20.1912H9.68273L9.68273 7.80876H9.68279ZM9.68279 26.8845V21.3068H18.3207V26.8845H9.68279ZM20.759 14.5578V26.8845H19.4362V20.749V14.5578L20.759 14.5578ZM15.0615 14C15.0615 14.308 15.3112 14.5578 15.6192 14.5578H18.3207V20.1912H14.5595L14.5595 7.80876H18.3207V13.4422H15.6192C15.3112 13.4422 15.0615 13.692 15.0615 14ZM20.759 1.11554V13.4422L19.4362 13.4422V7.251V1.11554H20.759ZM18.3207 1.11554V6.69323H9.68279V1.11554H18.3207ZM8.56725 1.11554V7.251L8.56725 13.4422H7.24444L7.24444 1.11554H8.56725Z" fill="white"/>
<path d="M12.6608 14.0008C12.6608 13.6928 12.4111 13.4431 12.103 13.4431H10.9875C10.6794 13.4431 10.4297 13.6928 10.4297 14.0008C10.4297 14.3088 10.6794 14.5586 10.9875 14.5586H12.103C12.4111 14.5586 12.6608 14.3088 12.6608 14.0008Z" fill="white"/>
</svg>
