<svg width="23" height="23" viewBox="0 0 23 23" fill="currentColor" xmlns="http://www.w3.org/2000/svg">
<path d="M21.773 19.3362H21.1307L20.4925 17.5991C21.7686 16.6241 22.4934 15.1761 22.4934 13.5739C22.4934 10.7896 20.2276 8.52442 17.4425 8.52442C17.3727 8.52442 17.2716 8.52532 17.1603 8.52923L15.8827 5.05187C16.3996 5.04315 16.6746 4.87914 16.9908 4.68957L17.019 4.67268L19.0103 3.59424C19.6204 3.26344 19.8572 2.49891 19.5377 1.88946C19.3182 1.47213 18.8879 1.21289 18.4147 1.21289C18.2121 1.21289 18.0102 1.26262 17.8305 1.35673L15.6024 2.52416H13.1872C12.4896 2.52416 11.922 3.09098 11.922 3.78781C11.922 4.48522 12.4896 5.05268 13.1872 5.05268H13.4209L13.7797 6.02923C13.1945 6.0994 12.604 6.26548 12.0166 6.52652L11.9391 6.56142C11.711 6.66438 11.6097 6.93275 11.7127 7.16077C11.7884 7.32829 11.9532 7.42743 12.1258 7.42743C12.1882 7.42743 12.2515 7.41449 12.3121 7.38713L12.386 7.35398C12.9621 7.09788 13.5381 6.94874 14.1027 6.90831L14.5256 8.05952C13.566 8.12071 12.6091 8.38525 11.775 8.82647C10.6574 9.41774 9.82091 10.2959 9.33746 11.3775H8.6493C8.89291 10.7064 9.26325 10.0479 9.73897 9.44676C9.89422 9.25058 9.86103 8.96564 9.66481 8.81039C9.46859 8.65514 9.18369 8.68829 9.02844 8.88456C8.4207 9.65263 7.96353 10.508 7.69328 11.3774H6.65589C6.42464 11.3774 6.1998 11.4051 5.98382 11.4559L4.34287 6.98948H4.63706C5.62098 6.98948 6.42154 6.18916 6.42154 5.20532C6.42154 4.22153 5.62103 3.42121 4.63706 3.42121H1.78452C0.800508 3.42134 0 4.22167 0 5.20546C0 6.18925 0.800508 6.98962 1.78452 6.98962H1.88079L2.14731 7.71502H0.761066C0.510852 7.71502 0.308029 7.91784 0.308029 8.16801V9.64302C0.308029 9.89319 0.510852 10.096 0.761066 10.096H3.02203L4.06521 12.9353C3.84644 13.3454 3.72196 13.8132 3.72196 14.3095C3.72196 14.8187 3.85749 15.3321 4.09795 15.7848L1.88914 19.3363H1.34788C0.672031 19.3363 0.122232 19.886 0.122232 20.5618C0.122232 21.2375 0.672031 21.7872 1.34788 21.7872H9.29088C9.54109 21.7872 9.74391 21.5843 9.74391 21.3342C9.74391 21.084 9.54109 20.8812 9.29088 20.8812H1.34788C1.17165 20.8812 1.02831 20.7379 1.02831 20.5618C1.02831 20.3856 1.17165 20.2422 1.34788 20.2422H2.13918C2.13963 20.2422 2.14003 20.2423 2.14048 20.2423C2.14098 20.2423 2.14143 20.2422 2.14188 20.2422H4.84792C4.84833 20.2422 4.84878 20.2423 4.84923 20.2423C4.84968 20.2423 4.85017 20.2422 4.85062 20.2422H19.3142C19.3153 20.2422 19.3165 20.2424 19.3176 20.2424C19.3186 20.2424 19.3196 20.2422 19.3206 20.2422H20.8111C20.8123 20.2422 20.8134 20.2424 20.8146 20.2424C20.8155 20.2424 20.8166 20.2422 20.8176 20.2422H21.773C21.947 20.2422 22.0939 20.3886 22.0939 20.5618C22.0939 20.7349 21.947 20.8812 21.773 20.8812H12.8945C12.6442 20.8812 12.4414 21.084 12.4414 21.3342C12.4414 21.5843 12.6442 21.7872 12.8945 21.7872H21.773C22.4496 21.7872 23 21.2375 23 20.5618C23 19.886 22.4496 19.3362 21.773 19.3362ZM13.1872 4.14674C12.9892 4.14674 12.8282 3.98574 12.8282 3.7879C12.8282 3.59065 12.9892 3.43023 13.1872 3.43023H15.7139C15.7872 3.43023 15.8593 3.41245 15.9242 3.37848L18.2511 2.1593C18.3022 2.13253 18.3572 2.11896 18.4147 2.11896C18.5504 2.11896 18.6735 2.19264 18.7356 2.31065C18.8261 2.48333 18.7556 2.70187 18.5787 2.79782L16.5789 3.88076C16.5732 3.88386 16.5676 3.88709 16.562 3.89037L16.5249 3.91265C16.2407 4.08299 16.1344 4.14678 15.8399 4.14678H13.1872V4.14674ZM14.3862 5.05277H14.9179L17.2416 11.3775H16.7099L14.3862 5.05277ZM15.7447 11.3775H13.9281C14.2641 10.8424 14.721 10.3872 15.2581 10.0531L15.7447 11.3775ZM14.854 8.9532L14.9403 9.18814C14.0638 9.68942 13.3466 10.4498 12.9024 11.3581L12.8925 11.3775H10.3506C11.2876 9.72657 13.1753 8.98006 14.854 8.9532ZM6.65594 12.2835H8.03396C8.03468 12.2835 8.0354 12.2836 8.03607 12.2836C8.03711 12.2836 8.03814 12.2835 8.03917 12.2835H9.6366C9.63758 12.2835 9.63857 12.2836 9.63956 12.2836C9.64073 12.2836 9.64185 12.2835 9.64302 12.2835H13.1705C13.1713 12.2835 13.1721 12.2836 13.1729 12.2836C13.1736 12.2836 13.1742 12.2835 13.1748 12.2835H16.3904C16.3915 12.2835 16.3927 12.2836 16.3938 12.2836C16.3948 12.2836 16.3958 12.2835 16.3968 12.2835H17.5743L18.3228 14.3206L17.4672 14.4679C17.4599 14.4688 17.4526 14.4703 17.4452 14.4716L6.6377 16.332C6.63325 16.3326 6.62885 16.3335 6.6244 16.3343L6.57899 16.3421C6.05551 16.4322 5.64861 16.201 5.39938 15.9911C5.25393 15.8686 5.12554 15.7231 5.0171 15.5622C5.00996 15.5501 5.00232 15.5383 4.99401 15.5268C4.76203 15.1683 4.62808 14.7372 4.62808 14.3095C4.62808 13.1924 5.53779 12.2835 6.65594 12.2835ZM18.0579 17.6736C17.855 17.7031 17.6477 17.7188 17.4426 17.7188C16.1 17.7188 14.8083 17.0368 14.0559 15.9745L17.233 15.4276L18.0579 17.6736ZM1.78452 6.08363C1.30017 6.08363 0.906074 5.68971 0.906074 5.20546C0.906074 4.7212 1.30013 4.32728 1.78452 4.32728H4.63715C5.1215 4.32728 5.51555 4.72124 5.51555 5.20546C5.51555 5.68967 5.1215 6.08363 4.63715 6.08363H1.78452ZM1.2141 9.18998V8.621H2.48018L2.68925 9.18998H1.2141ZM3.76355 9.48701C3.76104 9.48018 3.75884 9.47312 3.75601 9.46648L2.84598 6.98962H3.37768L5.14418 11.7978C4.99531 11.8876 4.85543 11.9906 4.72529 12.1046L3.76355 9.48701ZM4.59627 19.3362H2.95613L4.68122 16.5625C4.72493 16.6045 4.76954 16.6452 4.81567 16.684C5.14293 16.9597 5.51151 17.1405 5.89613 17.2204L4.59627 19.3362ZM5.65966 19.3362L6.97641 17.193L13.0867 16.1413C13.958 17.6394 15.6653 18.6248 17.4426 18.6248C17.7541 18.6248 18.0704 18.5951 18.3759 18.5392L18.6686 19.3362H5.65966ZM19.6338 19.3362L19.0905 17.8573C19.0886 17.8518 19.0868 17.8464 19.0847 17.8411L18.1408 15.2713L18.6405 15.1853L20.1655 19.3362H19.6338ZM20.162 16.6995L19.3592 14.5143C19.3583 14.5121 19.3576 14.5098 19.3567 14.5076L17.4916 9.43103C19.7545 9.45745 21.5873 11.3056 21.5873 13.574C21.5873 14.7929 21.0742 15.9042 20.162 16.6995Z"/>
<path d="M6.65424 15.5828C7.27434 15.5828 7.79215 15.1375 7.90513 14.5499L8.88937 14.3936L8.91052 14.5265C8.94597 14.7495 9.1385 14.9085 9.35736 14.9085C9.38099 14.9085 9.40498 14.9066 9.42906 14.9028C9.67617 14.8635 9.84458 14.6313 9.80532 14.3842L9.62074 13.2236C9.58143 12.9766 9.34923 12.8084 9.10216 12.8474C8.85509 12.8867 8.68663 13.1189 8.72594 13.3659L8.74705 13.4988L7.74835 13.6574C7.52576 13.2851 7.11868 13.0352 6.65428 13.0352C5.95103 13.0352 5.37891 13.6067 5.37891 14.3091C5.37886 15.0114 5.95103 15.5828 6.65424 15.5828ZM6.65424 13.9412C6.85715 13.9412 7.02215 14.1063 7.02215 14.3091C7.02215 14.5118 6.8571 14.6768 6.65424 14.6768C6.45061 14.6768 6.28493 14.5118 6.28493 14.3091C6.28493 14.1063 6.45061 13.9412 6.65424 13.9412Z" />
<path d="M11.1064 20.8809H11.0937C10.8434 20.8809 10.6406 21.0837 10.6406 21.3339C10.6406 21.584 10.8434 21.7868 11.0937 21.7868H11.1064C11.3566 21.7868 11.5594 21.584 11.5594 21.3339C11.5594 21.0837 11.3566 20.8809 11.1064 20.8809Z" />
<path d="M10.6058 8.38129C10.6878 8.38129 10.7708 8.359 10.8455 8.31233L10.8557 8.30595C11.0679 8.17334 11.1324 7.89384 10.9998 7.68172C10.8672 7.46955 10.5877 7.40509 10.3755 7.53765L10.3653 7.54408C10.1532 7.67664 10.0887 7.95614 10.2213 8.16827C10.3072 8.30577 10.4548 8.38129 10.6058 8.38129Z"/>
</svg>
