<svg width="23" height="23" viewBox="0 0 23 23" fill="currentColor" xmlns="http://www.w3.org/2000/svg">
<g clip-path="url(#clip0)">
<path d="M22.4233 17.1491C21.49 16.2646 19.9962 16.0903 18.6125 16.061C18.5735 16.006 18.5336 15.9506 18.4925 15.8949C19.2226 14.8017 19.7248 13.5888 19.9855 12.2841C20.4267 10.0772 20.1331 7.84837 19.1362 5.83847C19.0252 5.61463 18.7538 5.52321 18.5299 5.63417C18.3061 5.74521 18.2146 6.01668 18.3256 6.24052C18.9128 7.42453 19.2315 8.69222 19.2745 9.98395H17.384C17.3278 8.66756 16.913 7.38733 16.1625 6.26303C15.0812 4.64301 13.4333 3.54058 11.5225 3.15893C11.1953 3.09361 10.8687 3.05179 10.5445 3.03148V1.14333C10.9911 1.16556 11.4414 1.22032 11.8927 1.31044C13.4315 1.61766 14.8727 2.31637 16.0603 3.33102C16.2504 3.49328 16.5359 3.47082 16.6982 3.28089C16.8605 3.09092 16.8381 2.80535 16.6481 2.643C15.3431 1.52817 13.76 0.760548 12.0699 0.423095C9.42704 -0.104422 6.73675 0.427767 4.4947 1.9216C2.25225 3.41552 0.726568 5.69248 0.198646 8.33298C-0.329321 10.9732 0.203363 13.6609 1.69863 15.901C3.19399 18.1412 5.47292 19.6654 8.1155 20.1928C8.75694 20.321 9.40264 20.3853 10.0451 20.3886C10.0605 20.3902 10.0762 20.391 10.0921 20.391C10.1067 20.391 10.1212 20.3902 10.1355 20.3888C12.2669 20.3808 14.3538 19.6964 16.0945 18.4087C16.1541 18.4481 16.2145 18.4869 16.2752 18.5252C16.3768 19.9031 16.6295 21.3831 17.5642 22.269C17.9189 22.6051 18.372 22.7754 18.843 22.7754C19.2403 22.7754 19.6504 22.6541 20.0246 22.4089C20.5691 22.0519 21.0194 21.4225 21.0264 20.6887C21.7607 20.6432 22.3669 20.1593 22.6948 19.5955C23.1858 18.7514 23.0766 17.7682 22.4233 17.1491ZM17.2472 11.7373C17.3037 11.4548 17.3429 11.1716 17.3661 10.8888H19.2594C19.2326 11.2944 19.1793 11.701 19.0982 12.1067C18.8799 13.1992 18.4757 14.2204 17.8956 15.151C17.4909 14.6824 17.0271 14.2066 16.5259 13.7503C16.8639 13.1197 17.1063 12.4442 17.2472 11.7373ZM14.6706 16.0961C14.3547 15.7941 14.057 15.485 13.7859 15.1793L15.1209 13.7414C15.3121 13.893 15.5062 14.0551 15.7013 14.2265C15.8372 14.3459 15.9706 14.4675 16.1013 14.5903L14.6706 16.0961ZM12.6194 13.6045C12.6179 13.6019 12.6168 13.5992 12.6152 13.5967C12.6147 13.5959 12.6142 13.5952 12.6137 13.5945C12.5397 13.4626 12.4762 13.3363 12.4251 13.2173C12.2661 12.847 12.229 12.5518 12.3284 12.4472C12.3439 12.4308 12.3912 12.3809 12.5527 12.3809C12.7909 12.3809 13.1129 12.4824 13.4895 12.6679C13.4919 12.6693 13.4941 12.671 13.4966 12.6723C13.509 12.6791 13.5215 12.685 13.5341 12.6904C13.7964 12.8228 14.0843 12.9951 14.3877 13.2011L13.2042 14.4757C12.9702 14.1692 12.772 13.8749 12.6194 13.6045ZM10.0921 8.36357C9.01924 8.36357 8.14636 9.23578 8.14636 10.3079C8.14636 11.3808 9.01919 12.2535 10.0921 12.2535C10.4784 12.2535 10.8385 12.1401 11.1416 11.9454L11.434 12.2224C11.3315 12.5287 11.3316 12.9641 11.5937 13.5745C11.603 13.5961 11.613 13.6181 11.6229 13.64C11.1448 13.859 10.6229 13.9739 10.092 13.9739C8.06855 13.9739 6.42235 12.3294 6.42235 10.308C6.42235 8.28658 8.06855 6.64203 10.092 6.64203C12.1155 6.64203 13.7617 8.28658 13.7617 10.308C13.7617 10.7815 13.6697 11.2499 13.4941 11.6836C13.1651 11.5553 12.8445 11.4762 12.5527 11.4762C12.3548 11.4762 12.1909 11.5121 12.0565 11.5657L11.7695 11.2938C11.9405 11.0045 12.039 10.6676 12.039 10.308C12.0391 9.23582 11.1656 8.36357 10.0921 8.36357ZM9.89548 10.7649L10.4463 11.2867C10.3357 11.3268 10.2164 11.3487 10.092 11.3487C9.51809 11.3487 9.05118 10.8818 9.05118 10.3079C9.05118 9.73477 9.51814 9.26844 10.092 9.26844C10.6667 9.26844 11.1342 9.73477 11.1342 10.3079C11.1342 10.4241 11.1148 10.5357 11.0794 10.6401L10.5178 10.108C10.3363 9.93611 10.05 9.94393 9.87819 10.1253C9.70636 10.3066 9.71409 10.593 9.89548 10.7649ZM1.08594 8.51042C1.92648 4.30646 5.53554 1.34615 9.63965 1.14319V3.03121C6.41803 3.23201 3.59887 5.57114 2.93699 8.87986C2.87199 9.20465 2.82972 9.53047 2.80879 9.85552H0.917351C0.940441 9.4076 0.996368 8.9583 1.08594 8.51042ZM9.63965 19.472C9.19048 19.4496 8.74036 19.3949 8.29271 19.3054C5.88697 18.8253 3.81243 17.4378 2.45121 15.3987C1.51522 13.9963 0.993583 12.4014 0.915464 10.7604H2.8069C2.88381 12.0315 3.29556 13.2653 4.02181 14.353C5.10335 15.9729 6.75162 17.0753 8.66278 17.4569C8.98806 17.522 9.31424 17.5643 9.63965 17.5854V19.472ZM10.0921 15.4327C9.84221 15.4327 9.63965 15.6353 9.63965 15.8851V16.6786C9.37327 16.6591 9.10638 16.6229 8.84018 16.5696C7.16571 16.2352 5.72175 15.2696 4.77439 13.8506C4.14908 12.9139 3.78966 11.8538 3.71374 10.7603H4.5111C4.76096 10.7603 4.96351 10.5578 4.96351 10.3079C4.96351 10.058 4.76096 9.85548 4.5111 9.85548H3.71553C3.73503 9.58954 3.77106 9.32306 3.82424 9.05735C4.40019 6.17835 6.84088 4.13746 9.63965 3.93814V4.73196C9.63965 4.98181 9.84221 5.18436 10.0921 5.18436C10.3419 5.18436 10.5445 4.98181 10.5445 4.73196V3.93801C10.8101 3.95701 11.0774 3.99277 11.3452 4.04627C13.0192 4.38062 14.4627 5.34631 15.4099 6.76543C16.0595 7.73858 16.4222 8.84518 16.4781 9.984H15.6731C15.4233 9.984 15.2207 10.1866 15.2207 10.4365C15.2207 10.6863 15.4233 10.8889 15.6731 10.8889H16.4578C16.4369 11.1127 16.4046 11.3367 16.3599 11.5601C16.2497 12.113 16.0689 12.6437 15.8209 13.1439C15.6789 13.0287 15.522 12.9058 15.3549 12.781C15.345 12.7729 15.3348 12.7653 15.3244 12.7582C15.0124 12.5265 14.6652 12.2893 14.3082 12.0827C14.5434 11.525 14.6666 10.9195 14.6666 10.3079C14.6666 7.78759 12.6145 5.73713 10.0921 5.73713C7.5697 5.73713 5.51758 7.78759 5.51758 10.3079C5.51758 12.8283 7.5697 14.8787 10.0921 14.8787C10.7777 14.8787 11.4517 14.7252 12.0653 14.4322C12.273 14.7511 12.5237 15.0867 12.8073 15.4283C12.8201 15.4466 12.8348 15.464 12.8507 15.4806C12.9636 15.6153 13.0811 15.7506 13.2038 15.8863C12.378 16.3481 11.4735 16.6166 10.5445 16.6807V15.8852C10.5445 15.6353 10.3419 15.4327 10.0921 15.4327ZM10.5445 19.4732V17.5869C11.7043 17.5173 12.8321 17.1689 13.8473 16.558C14.0812 16.7888 14.3259 17.0171 14.5791 17.2395C14.7628 17.4008 15.0191 17.6178 15.3193 17.8506C13.8987 18.8339 12.2449 19.3901 10.5445 19.4732ZM15.342 16.7031L16.7435 15.228C17.5468 16.0728 18.1755 16.9248 18.4523 17.5689C18.6116 17.9396 18.6487 18.2351 18.5494 18.3397C18.5339 18.356 18.4867 18.4057 18.3257 18.4057C18.3257 18.4057 18.3256 18.4057 18.3255 18.4057C17.9995 18.4056 17.5163 18.2153 16.9512 17.8795C16.9437 17.8748 16.9361 17.8703 16.9283 17.866C16.7391 17.7527 16.541 17.6233 16.3366 17.4793C16.3355 17.4786 16.3345 17.4778 16.3334 17.4771C16.0145 17.2524 15.6806 16.9922 15.342 16.7031ZM19.5286 21.6521C19.1571 21.8956 18.6095 22.0129 18.1866 21.6122C17.5885 21.0453 17.3453 20.0279 17.2317 19.0411C17.6137 19.206 17.9885 19.3105 18.3252 19.3106C18.3253 19.3106 18.3255 19.3106 18.3257 19.3106C18.5232 19.3106 18.6867 19.2749 18.8209 19.2214L20.0873 20.4215C20.2191 20.931 19.9116 21.401 19.5286 21.6521ZM21.9127 19.1406C21.6819 19.5374 21.2276 19.8699 20.7099 19.7647L19.4437 18.5648C19.5463 18.2584 19.5461 17.8226 19.2837 17.2117C19.2526 17.1395 19.217 17.0649 19.1793 16.9892C20.1728 17.0508 21.2036 17.2398 21.8009 17.8059C22.223 18.2059 22.1354 18.7576 21.9127 19.1406Z"/>
<path d="M17.4371 4.79377C17.5254 4.88209 17.6412 4.92629 17.757 4.92629C17.8728 4.92629 17.9886 4.88213 18.0769 4.79377C18.2536 4.61709 18.2536 4.33058 18.0769 4.1539L18.0731 4.15009C17.8964 3.97341 17.61 3.97341 17.4333 4.15009C17.2566 4.32676 17.2566 4.61327 17.4333 4.78995L17.4371 4.79377Z"/>
</g>
<defs>
<clipPath id="clip0">
<rect width="23" height="23"/>
</clipPath>
</defs>
</svg>
