<svg width="23" height="23" viewBox="0 0 23 23" fill="currentColor" xmlns="http://www.w3.org/2000/svg">
<g clip-path="url(#clip0)">
<path d="M22.4233 17.1511C21.49 16.2665 19.9962 16.0922 18.6125 16.0629C18.5735 16.0079 18.5336 15.9526 18.4925 15.8968C19.2226 14.8037 19.7248 13.5908 19.9855 12.286C20.4267 10.0792 20.1331 7.85032 19.1362 5.84042C19.0252 5.61658 18.7538 5.52516 18.5299 5.63612C18.3061 5.74717 18.2146 6.01863 18.3256 6.24248C18.9128 7.42648 19.2315 8.69418 19.2745 9.98591H17.384C17.3278 8.66951 16.913 7.38929 16.1625 6.26498C15.0812 4.64496 13.4333 3.54254 11.5225 3.16088C11.1953 3.09556 10.8687 3.05374 10.5445 3.03344V1.14528C10.9911 1.16752 11.4414 1.22228 11.8927 1.31239C13.4315 1.61961 14.8727 2.31833 16.0603 3.33298C16.2504 3.49523 16.5359 3.47277 16.6982 3.28284C16.8605 3.09287 16.8381 2.8073 16.6481 2.64495C15.3431 1.53013 13.76 0.762501 12.0699 0.425048C9.42704 -0.102469 6.73675 0.42972 4.4947 1.92355C2.25225 3.41747 0.726568 5.69443 0.198646 8.33494C-0.329321 10.9751 0.203363 13.6628 1.69863 15.903C3.19399 18.1431 5.47292 19.6673 8.1155 20.1947C8.75694 20.3229 9.40264 20.3872 10.0451 20.3906C10.0605 20.3921 10.0762 20.393 10.0921 20.393C10.1067 20.393 10.1212 20.3921 10.1355 20.3908C12.2669 20.3828 14.3538 19.6983 16.0945 18.4106C16.1541 18.45 16.2145 18.4888 16.2752 18.5272C16.3768 19.9051 16.6295 21.3851 17.5642 22.2709C17.9189 22.607 18.372 22.7774 18.843 22.7774C19.2403 22.7774 19.6504 22.6561 20.0246 22.4108C20.5691 22.0539 21.0194 21.4244 21.0264 20.6906C21.7607 20.6452 22.3669 20.1612 22.6948 19.5975C23.1858 18.7533 23.0766 17.7702 22.4233 17.1511ZM17.2472 11.7392C17.3037 11.4568 17.3429 11.1736 17.3661 10.8908H19.2594C19.2326 11.2964 19.1793 11.7029 19.0982 12.1087C18.8799 13.2011 18.4757 14.2224 17.8956 15.153C17.4909 14.6843 17.0271 14.2086 16.5259 13.7522C16.8639 13.1216 17.1063 12.4462 17.2472 11.7392ZM14.6706 16.0981C14.3547 15.796 14.057 15.4869 13.7859 15.1812L15.1209 13.7433C15.3121 13.895 15.5062 14.057 15.7013 14.2285C15.8372 14.3479 15.9706 14.4694 16.1013 14.5923L14.6706 16.0981ZM12.6194 13.6064C12.6179 13.6039 12.6168 13.6012 12.6152 13.5986C12.6147 13.5978 12.6142 13.5972 12.6137 13.5964C12.5397 13.4645 12.4762 13.3383 12.4251 13.2192C12.2661 12.849 12.229 12.5538 12.3284 12.4491C12.3439 12.4328 12.3912 12.3829 12.5527 12.3829C12.7909 12.3829 13.1129 12.4843 13.4895 12.6699C13.4919 12.6713 13.4941 12.673 13.4966 12.6743C13.509 12.681 13.5215 12.6869 13.5341 12.6924C13.7964 12.8247 14.0843 12.9971 14.3877 13.203L13.2042 14.4776C12.9702 14.1711 12.772 13.8768 12.6194 13.6064ZM10.0921 8.36553C9.01924 8.36553 8.14636 9.23773 8.14636 10.3099C8.14636 11.3827 9.01919 12.2555 10.0921 12.2555C10.4784 12.2555 10.8385 12.142 11.1416 11.9473L11.434 12.2243C11.3315 12.5306 11.3316 12.9661 11.5937 13.5764C11.603 13.598 11.613 13.62 11.6229 13.642C11.1448 13.861 10.6229 13.9759 10.092 13.9759C8.06855 13.9759 6.42235 12.3314 6.42235 10.3099C6.42235 8.28853 8.06855 6.64399 10.092 6.64399C12.1155 6.64399 13.7617 8.28853 13.7617 10.3099C13.7617 10.7834 13.6697 11.2519 13.4941 11.6855C13.1651 11.5573 12.8445 11.4782 12.5527 11.4782C12.3548 11.4782 12.1909 11.5141 12.0565 11.5676L11.7695 11.2958C11.9405 11.0065 12.039 10.6696 12.039 10.3099C12.0391 9.23778 11.1656 8.36553 10.0921 8.36553ZM9.89548 10.7668L10.4463 11.2886C10.3357 11.3287 10.2164 11.3506 10.092 11.3506C9.51809 11.3506 9.05118 10.8837 9.05118 10.3099C9.05118 9.73672 9.51814 9.27039 10.092 9.27039C10.6667 9.27039 11.1342 9.73672 11.1342 10.3099C11.1342 10.426 11.1148 10.5376 11.0794 10.642L10.5178 10.1099C10.3363 9.93806 10.05 9.94588 9.87819 10.1272C9.70636 10.3086 9.71409 10.595 9.89548 10.7668ZM1.08594 8.51238C1.92648 4.30841 5.53554 1.3481 9.63965 1.14515V3.03317C6.41803 3.23397 3.59887 5.5731 2.93699 8.88182C2.87199 9.2066 2.82972 9.53242 2.80879 9.85747H0.917351C0.940441 9.40956 0.996368 8.96025 1.08594 8.51238ZM9.63965 19.474C9.19048 19.4516 8.74036 19.3969 8.29271 19.3074C5.88697 18.8272 3.81243 17.4398 2.45121 15.4006C1.51522 13.9983 0.993583 12.4033 0.915464 10.7623H2.8069C2.88381 12.0335 3.29556 13.2672 4.02181 14.355C5.10335 15.9749 6.75162 17.0773 8.66278 17.4589C8.98806 17.524 9.31424 17.5663 9.63965 17.5873V19.474ZM10.0921 15.4347C9.84221 15.4347 9.63965 15.6372 9.63965 15.8871V16.6806C9.37327 16.661 9.10638 16.6249 8.84018 16.5716C7.16571 16.2372 5.72175 15.2716 4.77439 13.8525C4.14908 12.9158 3.78966 11.8557 3.71374 10.7623H4.5111C4.76096 10.7623 4.96351 10.5597 4.96351 10.3098C4.96351 10.06 4.76096 9.85743 4.5111 9.85743H3.71553C3.73503 9.59149 3.77106 9.32501 3.82424 9.0593C4.40019 6.1803 6.84088 4.13941 9.63965 3.94009V4.73391C9.63965 4.98376 9.84221 5.18632 10.0921 5.18632C10.3419 5.18632 10.5445 4.98376 10.5445 4.73391V3.93996C10.8101 3.95896 11.0774 3.99472 11.3452 4.04822C13.0192 4.38258 14.4627 5.34826 15.4099 6.76739C16.0595 7.74053 16.4222 8.84714 16.4781 9.98595H15.6731C15.4233 9.98595 15.2207 10.1885 15.2207 10.4384C15.2207 10.6883 15.4233 10.8908 15.6731 10.8908H16.4578C16.4369 11.1146 16.4046 11.3386 16.3599 11.5621C16.2497 12.115 16.0689 12.6456 15.8209 13.1458C15.6789 13.0307 15.522 12.9078 15.3549 12.783C15.345 12.7749 15.3348 12.7673 15.3244 12.7601C15.0124 12.5285 14.6652 12.2912 14.3082 12.0847C14.5434 11.5269 14.6666 10.9215 14.6666 10.3099C14.6666 7.78954 12.6145 5.73908 10.0921 5.73908C7.5697 5.73908 5.51758 7.78954 5.51758 10.3099C5.51758 12.8302 7.5697 14.8806 10.0921 14.8806C10.7777 14.8806 11.4517 14.7271 12.0653 14.4342C12.273 14.753 12.5237 15.0887 12.8073 15.4303C12.8201 15.4486 12.8348 15.4659 12.8507 15.4826C12.9636 15.6172 13.0811 15.7526 13.2038 15.8882C12.378 16.3501 11.4735 16.6186 10.5445 16.6826V15.8871C10.5445 15.6372 10.3419 15.4347 10.0921 15.4347ZM10.5445 19.4752V17.5889C11.7043 17.5192 12.8321 17.1709 13.8473 16.56C14.0812 16.7908 14.3259 17.019 14.5791 17.2414C14.7628 17.4028 15.0191 17.6198 15.3193 17.8525C13.8987 18.8358 12.2449 19.3921 10.5445 19.4752ZM15.342 16.705L16.7435 15.23C17.5468 16.0747 18.1755 16.9267 18.4523 17.5708C18.6116 17.9416 18.6487 18.2371 18.5494 18.3417C18.5339 18.358 18.4867 18.4077 18.3257 18.4077C18.3257 18.4077 18.3256 18.4077 18.3255 18.4077C17.9995 18.4075 17.5163 18.2173 16.9512 17.8815C16.9437 17.8767 16.9361 17.8722 16.9283 17.8679C16.7391 17.7546 16.541 17.6253 16.3366 17.4813C16.3355 17.4805 16.3345 17.4798 16.3334 17.4791C16.0145 17.2543 15.6806 16.9942 15.342 16.705ZM19.5286 21.654C19.1571 21.8975 18.6095 22.0149 18.1866 21.6142C17.5885 21.0472 17.3453 20.0298 17.2317 19.0431C17.6137 19.208 17.9885 19.3124 18.3252 19.3126C18.3253 19.3126 18.3255 19.3126 18.3257 19.3126C18.5232 19.3126 18.6867 19.2768 18.8209 19.2233L20.0873 20.4234C20.2191 20.933 19.9116 21.403 19.5286 21.654ZM21.9127 19.1426C21.6819 19.5393 21.2276 19.8718 20.7099 19.7667L19.4437 18.5668C19.5463 18.2603 19.5461 17.8246 19.2837 17.2137C19.2526 17.1415 19.217 17.0669 19.1793 16.9912C20.1728 17.0528 21.2036 17.2417 21.8009 17.8079C22.223 18.2078 22.1354 18.7596 21.9127 19.1426Z" />
<path d="M17.4371 4.79572C17.5254 4.88404 17.6412 4.92824 17.757 4.92824C17.8728 4.92824 17.9886 4.88408 18.0769 4.79572C18.2536 4.61905 18.2536 4.33253 18.0769 4.15586L18.0731 4.15204C17.8964 3.97536 17.61 3.97536 17.4333 4.15204C17.2566 4.32872 17.2566 4.61523 17.4333 4.7919L17.4371 4.79572Z" />
</g>
<defs>
<clipPath id="clip0">
<rect width="23" height="23"/>
</clipPath>
</defs>
</svg>
