<svg width="32" height="32" viewBox="0 0 32 32" fill="none" xmlns="http://www.w3.org/2000/svg">
<path d="M27.4511 7.21558L27.4513 7.21573C27.4667 7.23118 27.479 7.24951 27.4874 7.26969L27.9492 7.07825L27.4874 7.2697C27.4957 7.28988 27.5 7.31151 27.5 7.33336C27.5 7.3552 27.4957 7.37684 27.4874 7.39702L27.9492 7.58846L27.4874 7.39702C27.479 7.4172 27.4667 7.43554 27.4513 7.45098L27.4511 7.45114L19.4511 15.4511L19.451 15.4513C19.4355 15.4667 19.4172 15.479 19.397 15.4874C19.3768 15.4957 19.3552 15.5 19.3334 15.5H19.3333H16.6667C16.6225 15.5 16.5801 15.4825 16.5488 15.4512C16.5176 15.42 16.5 15.3776 16.5 15.3334V12.6667V12.6667C16.5 12.6448 16.5043 12.6232 16.5127 12.603C16.521 12.5828 16.5333 12.5645 16.5487 12.5491L16.5489 12.5489L24.5489 4.54891L24.549 4.54875C24.5645 4.5333 24.5828 4.52104 24.603 4.51267C24.6232 4.50431 24.6448 4.5 24.6667 4.5C24.6885 4.5 24.7101 4.50431 24.7303 4.51267C24.7505 4.52104 24.7688 4.5333 24.7843 4.54875L24.7844 4.54891L27.4511 7.21558ZM19.0573 15.1667H19.2644L19.4108 15.0202L26.7442 7.68691L27.0977 7.33336L26.7442 6.9798L25.0202 5.25587L24.6667 4.90232L24.3131 5.25587L16.9798 12.5892L16.8333 12.7356V12.9428V14.6667V15.1667H17.3333H19.0573Z" fill="#557DDE" stroke="#202224"/>
<path d="M25.8333 25.3338V25.3333V15.3333C25.8333 15.2891 25.8509 15.2467 25.8821 15.2155C25.9134 15.1842 25.9558 15.1667 26 15.1667C26.0442 15.1667 26.0866 15.1842 26.1178 15.2155L26.4714 14.8619L26.1179 15.2155C26.1491 15.2467 26.1667 15.2891 26.1667 15.3333V25.3328C26.166 25.9074 25.9375 26.4582 25.5312 26.8645C25.1249 27.2708 24.574 27.4994 23.9994 27.5H6.66723C6.09264 27.4994 5.54177 27.2708 5.13548 26.8645C4.72925 26.4583 4.50072 25.9075 4.5 25.333V10.667C4.50072 10.0925 4.72925 9.54171 5.13548 9.13548C5.54171 8.72925 6.09246 8.50072 6.66695 8.5H14C14.0442 8.5 14.0866 8.51756 14.1179 8.54882C14.1491 8.58007 14.1667 8.62246 14.1667 8.66667C14.1667 8.71087 14.1491 8.75326 14.1179 8.78452C14.0866 8.81577 14.0442 8.83333 14 8.83333L6.66667 8.83333L6.66617 8.83333C6.18022 8.83382 5.71431 9.02708 5.37069 9.37069C5.02708 9.71431 4.83382 10.1802 4.83333 10.6662V10.6667L4.83333 25.3333L4.83333 25.3338C4.83382 25.8198 5.02708 26.2857 5.37069 26.6293L5.71804 26.282L5.37069 26.6293C5.71431 26.9729 6.18022 27.1662 6.66617 27.1667H6.66667H24H24.0005C24.4864 27.1662 24.9524 26.9729 25.296 26.6293C25.6396 26.2857 25.8328 25.8198 25.8333 25.3338Z" fill="#557DDE" stroke="#202224"/>
</svg>
