<svg width="23" height="23" viewBox="0 0 23 23" fill="currentColor" xmlns="http://www.w3.org/2000/svg">
<g clip-path="url(#clip0)">
<path d="M22.7261 14.7689L20.2425 12.2852C20.066 12.1086 19.8305 12.0113 19.5795 12.0113C19.3285 12.0113 19.0931 12.1086 18.9166 12.2852L17.0138 14.1883L16.4264 13.6015L16.5154 13.5116C17.1671 12.8536 16.9972 12.0669 16.5635 11.6143C16.3637 11.4059 16.0989 11.2508 15.8183 11.1829C15.8581 10.7942 15.736 10.3922 15.4486 10.053C15.2184 9.78133 14.8898 9.57725 14.53 9.51104C14.5697 9.13073 14.4598 8.73443 14.1955 8.3928C13.9297 8.04919 13.5743 7.84084 13.1992 7.78231C13.2105 7.62917 13.1958 7.47266 13.1536 7.31674C13.007 6.77413 12.5415 6.31314 11.9951 6.16953C11.4987 6.03907 11.001 6.18049 10.6294 6.55769L10.0112 7.18602L8.81133 5.98521L10.7142 4.08228C11.0794 3.71706 11.0794 3.12283 10.7142 2.75762L8.23054 0.273799C8.05395 0.0972558 7.81869 0 7.56803 0C7.31795 0 7.08269 0.0968516 6.90458 0.273844L5.6447 1.53377L4.73108 0.620102C4.64622 0.535244 4.53117 0.487582 4.41114 0.487582C4.29116 0.487582 4.17607 0.535244 4.09121 0.620102L0.619782 4.09175C0.443104 4.26843 0.443104 4.55485 0.619782 4.73153L1.53345 5.6452L0.272446 6.90624C-0.0912416 7.27249 -0.0907475 7.86685 0.273524 8.23112L2.75712 10.7148C2.93366 10.8914 3.16892 10.9887 3.41949 10.9887C3.67007 10.9887 3.90528 10.8914 4.08182 10.7148L5.98471 8.81188L6.65679 9.48328C6.63693 9.52384 6.61771 9.56499 6.59969 9.60708L5.58877 11.4854C5.54255 11.5713 5.5253 11.6698 5.53963 11.7662L5.8194 13.653L2.78007 16.6924C2.6034 16.8691 2.6034 17.1555 2.78007 17.3322L6.49723 21.0495C6.58208 21.1344 6.69713 21.1821 6.81716 21.1821C6.93714 21.1821 7.05219 21.1344 7.13705 21.0495L8.13256 20.054C8.30924 19.8773 8.30924 19.5908 8.13252 19.4142C7.95588 19.2375 7.66942 19.2375 7.49274 19.4142L6.81716 20.0898L3.73974 17.0124L6.62018 14.1317C6.72148 14.0305 6.76878 13.8872 6.74775 13.7455L6.45666 11.7821L7.40644 10.0174C7.41341 10.0044 7.41979 9.99112 7.42545 9.97755C7.47145 9.86758 7.52715 9.76557 7.58999 9.67361C7.59489 9.66683 7.59983 9.66004 7.60432 9.65304C7.74722 9.45102 7.92547 9.30103 8.11356 9.23145C8.3675 9.13738 8.66713 9.17377 9.00418 9.33944L10.4813 10.2528C10.4612 10.2766 10.4363 10.3032 10.4057 10.332C9.97651 10.7371 9.60582 10.9159 9.23184 10.8843C9.21136 10.8803 9.1907 10.8781 9.16994 10.8769C9.04416 10.8586 8.91766 10.8168 8.78806 10.7518C8.58618 10.6507 8.34077 10.7137 8.2127 10.8996C8.08463 11.0855 8.1132 11.3373 8.27964 11.4898C8.45744 11.6527 8.8872 12.2153 8.69956 12.5869C8.5869 12.81 8.67638 13.0821 8.89942 13.1947C9.12246 13.3073 9.39455 13.2179 9.50722 12.9949C9.59441 12.8222 9.63816 12.647 9.64989 12.4743C10.6201 13.445 11.8847 14.7099 12.9662 15.7915L12.2957 16.4621C12.1621 16.5957 11.8874 16.7692 11.0508 16.7335L10.4066 16.7068C10.157 16.6967 9.94619 16.8904 9.93586 17.14C9.92553 17.3897 10.1195 17.6005 10.3691 17.6108L11.0127 17.6375C11.0965 17.6411 11.1776 17.6429 11.2564 17.6429C12.0312 17.6429 12.5687 17.4688 12.9356 17.1018L13.606 16.4313C13.8147 16.64 14.01 16.8354 14.1887 17.0141L12.2855 18.9178C11.9203 19.283 11.9203 19.8773 12.2854 20.2424L14.769 22.7274C14.946 22.9032 15.1813 23 15.4313 23C15.682 23 15.9172 22.9028 16.0938 22.7262L17.3543 21.4657L18.2686 22.38C18.3534 22.4648 18.4685 22.5125 18.5885 22.5125C18.7085 22.5125 18.8236 22.4648 18.9084 22.38L22.3799 18.9083C22.4648 18.8235 22.5124 18.7083 22.5124 18.5883C22.5124 18.4683 22.4646 18.3532 22.3797 18.2684L21.4651 17.3547L22.7262 16.0936C23.0913 15.7283 23.0913 15.134 22.7261 14.7689ZM1.57954 4.41164L4.41119 1.57981L5.00492 2.17359L3.59244 3.58616L2.17327 5.00538L1.57954 4.41164ZM3.442 10.0751C3.43032 10.0868 3.40867 10.0868 3.39699 10.0751L0.913391 7.59135C0.901262 7.57922 0.901801 7.55662 0.913391 7.54494L2.49302 5.96527C2.49307 5.96522 2.49316 5.96518 2.4932 5.96509L4.23164 4.22656L7.54341 0.914654C7.54997 0.908096 7.55828 0.904816 7.56807 0.904816C7.57728 0.904816 7.58492 0.907781 7.59076 0.913621L10.0744 3.39735C10.0862 3.40917 10.0862 3.43073 10.0744 3.4425L3.442 10.0751ZM16.3738 14.8279L14.8281 16.3738C14.5609 16.1066 14.2549 15.8006 13.926 15.4716C13.9259 15.4716 13.9259 15.4716 13.9259 15.4716C13.9259 15.4716 13.9259 15.4716 13.9259 15.4715C12.7071 14.2527 11.1699 12.7152 10.0854 11.63C10.2225 11.5724 10.3594 11.4993 10.496 11.4111C10.656 11.6591 10.8908 11.8557 11.1805 11.9698C11.3621 12.0414 11.5507 12.0765 11.7384 12.0772C11.7385 12.1963 11.753 12.3161 11.7841 12.435C11.9207 12.9577 12.3509 13.3878 12.8799 13.5307C12.9725 13.5557 13.0654 13.5713 13.158 13.5781C13.1569 13.6683 13.165 13.7591 13.1835 13.8495C13.286 14.3488 13.6772 14.7682 14.1803 14.9181C14.3043 14.955 14.4294 14.9731 14.5524 14.9731C14.8809 14.9731 15.195 14.8443 15.436 14.6013L15.7897 14.2442L16.3738 14.8279ZM15.8726 12.8748L15.468 13.2832C15.4679 13.2833 15.4679 13.2833 15.4678 13.2834C15.4677 13.2835 15.4676 13.2836 15.4675 13.2837L14.7933 13.9643C14.6956 14.0628 14.5762 14.0919 14.4386 14.0509C14.2566 13.9968 14.105 13.8392 14.0698 13.6677C14.0332 13.4891 14.1341 13.3281 14.2527 13.2069C14.2944 13.1719 14.3351 13.1346 14.3746 13.0949L14.3774 13.092C14.3775 13.0919 14.3776 13.0919 14.3776 13.0918L15.3623 12.1033C15.4962 11.9866 15.7574 12.0809 15.9102 12.2403C16.103 12.4415 16.0903 12.6549 15.8726 12.8748ZM14.7582 10.6379C14.843 10.738 15.0919 11.0926 14.7341 11.4519L13.7425 12.4474C13.7119 12.4736 13.6824 12.5003 13.6541 12.5275C13.4857 12.6624 13.3013 12.7074 13.1159 12.6572C12.8981 12.5984 12.7146 12.417 12.6595 12.2061C12.6061 12.002 12.6806 11.7934 12.8749 11.603L14.0373 10.4715C14.3321 10.2811 14.6276 10.4837 14.7582 10.6379ZM13.4797 8.94633C13.539 9.02301 13.8158 9.42416 13.4381 9.79198L12.2429 10.9554C11.9944 11.197 11.7025 11.203 11.512 11.128C11.4327 11.0967 11.2675 11.009 11.1985 10.8048C11.3967 10.5585 11.4858 10.3013 11.451 10.0637C11.4486 10.0477 11.4447 10.0324 11.4413 10.0168L12.7218 8.73623C13.0343 8.57464 13.3231 8.74395 13.4797 8.94633ZM11.2741 7.19244C11.4199 7.04442 11.5805 6.99613 11.7651 7.04456C12.0006 7.10651 12.2172 7.3202 12.2801 7.55267C12.3296 7.736 12.2798 7.89893 12.1276 8.0509L10.7954 9.38319L9.75294 8.73861L11.2741 7.19244ZM7.79955 8.38287C7.58456 8.46243 7.38308 8.5878 7.20268 8.74975L6.62449 8.1721L8.17146 6.62508L9.37649 7.83101L8.88047 8.33521C8.42042 8.22353 8.05206 8.28939 7.79955 8.38287ZM21.42 18.5885L18.5884 21.4202L17.9941 20.8258L20.8253 17.9944L21.42 18.5885ZM22.0863 15.4538L20.4504 17.0898L17.0338 20.5052C17.0294 20.5096 17.0255 20.5144 17.0213 20.5189L15.454 22.0864C15.4419 22.0985 15.4183 22.0969 15.4077 22.0865L12.9253 19.6026C12.9195 19.5968 12.9165 19.5892 12.9165 19.5801C12.9165 19.571 12.9195 19.5634 12.9254 19.5575L19.5565 12.9249C19.5623 12.9191 19.57 12.9162 19.5796 12.9162C19.5891 12.9162 19.5969 12.9191 19.6027 12.925L22.0863 15.4087C22.0922 15.4145 22.0951 15.4221 22.0951 15.4312C22.0951 15.4403 22.0921 15.4479 22.0863 15.4538Z"/>
<path d="M9.39161 18.1034C9.20213 17.9406 8.91647 17.9622 8.75363 18.1517L8.74599 18.1605C8.58315 18.3501 8.6048 18.6357 8.79429 18.7985C8.87964 18.8719 8.98453 18.9078 9.08893 18.9078C9.21624 18.9078 9.34278 18.8544 9.43227 18.7502L9.43991 18.7413C9.60275 18.5519 9.58114 18.2662 9.39161 18.1034Z"/>
</g>
<defs>
<clipPath id="clip0">
<rect width="23" height="23"/>
</clipPath>
</defs>
</svg>
