<svg width="33" height="33" viewBox="0 0 33 33" fill="currentColor" xmlns="http://www.w3.org/2000/svg">
<path d="M23.3178 29.023C22.988 29.0226 22.6633 28.9418 22.3718 28.7874L16.4986 25.7004L10.6253 28.7873C10.2901 28.9635 9.91228 29.0424 9.53457 29.015C9.15686 28.9877 8.79433 28.8553 8.48797 28.6326C8.18161 28.41 7.94364 28.1061 7.80097 27.7554C7.65829 27.4046 7.61661 27.0208 7.68063 26.6476L8.80187 20.1083L4.05049 15.4764C3.77927 15.212 3.58742 14.8771 3.49665 14.5094C3.40588 14.1417 3.41981 13.7559 3.53685 13.3957C3.65389 13.0355 3.86939 12.7152 4.15896 12.4711C4.44853 12.227 4.80063 12.0687 5.17545 12.0143L11.7416 11.0602L14.6782 5.11042C14.8457 4.77068 15.105 4.48461 15.4266 4.28457C15.7483 4.08453 16.1195 3.97852 16.4983 3.97852C16.8771 3.97852 17.2483 4.08453 17.57 4.28457C17.8916 4.48461 18.1509 4.77068 18.3184 5.11042L21.255 11.0602L27.8217 12.0143C28.1965 12.0687 28.5486 12.227 28.8382 12.4711C29.1278 12.7152 29.3432 13.0355 29.4603 13.3957C29.5773 13.7559 29.5913 14.1417 29.5005 14.5094C29.4097 14.8771 29.2179 15.212 28.9467 15.4764L24.1953 20.1082L25.3165 26.6475C25.3661 26.9388 25.3516 27.2373 25.274 27.5224C25.1965 27.8075 25.0578 28.0723 24.8676 28.2983C24.6774 28.5244 24.4402 28.7063 24.1726 28.8314C23.9049 28.9565 23.6133 29.0219 23.3178 29.0228V29.023ZM16.4986 24.2361C16.61 24.236 16.7197 24.2632 16.8181 24.3153L23.011 27.5709C23.1192 27.6277 23.2412 27.6531 23.3631 27.6442C23.485 27.6354 23.602 27.5926 23.7009 27.5208C23.7998 27.4489 23.8766 27.3508 23.9227 27.2376C23.9688 27.1244 23.9823 27.0005 23.9617 26.88L22.7792 19.9844C22.7603 19.8746 22.7684 19.7619 22.8028 19.6559C22.8372 19.5499 22.8968 19.4539 22.9765 19.3761L27.9867 14.4923C28.0742 14.407 28.1362 14.2989 28.1655 14.1802C28.1948 14.0616 28.1904 13.9371 28.1526 13.8208C28.1149 13.7045 28.0454 13.6011 27.952 13.5222C27.8586 13.4434 27.7451 13.3922 27.6241 13.3745L20.7001 12.3689C20.5898 12.353 20.485 12.3104 20.3948 12.2449C20.3046 12.1794 20.2317 12.0929 20.1825 11.9929L17.086 5.71872C17.0272 5.61476 16.9418 5.52829 16.8386 5.46813C16.7354 5.40797 16.618 5.37627 16.4986 5.37627C16.3791 5.37627 16.2618 5.40797 16.1586 5.46813C16.0554 5.52829 15.97 5.61476 15.9111 5.71872L12.8147 11.9928C12.7654 12.0928 12.6925 12.1793 12.6024 12.2448C12.5122 12.3103 12.4074 12.3528 12.2971 12.3688L5.3731 13.3745C5.25215 13.3922 5.13855 13.4434 5.04514 13.5222C4.95174 13.6011 4.88225 13.7045 4.84452 13.8208C4.8068 13.937 4.80235 14.0615 4.83167 14.1802C4.86099 14.2989 4.92291 14.407 5.01045 14.4923L10.0203 19.376C10.1001 19.4538 10.1597 19.5498 10.1941 19.6558C10.2284 19.7617 10.2366 19.8745 10.2177 19.9843L9.03521 26.8799C9.01461 27.0004 9.02811 27.1242 9.07418 27.2375C9.12026 27.3507 9.19708 27.4488 9.29596 27.5206C9.39485 27.5925 9.51185 27.6353 9.63377 27.6441C9.75568 27.653 9.87765 27.6276 9.98588 27.5708L16.1787 24.3152C16.2773 24.263 16.3871 24.2359 16.4986 24.2361Z" />
</svg>
