<svg width="23" height="23" viewBox="0 0 23 23" fill="currentColor" xmlns="http://www.w3.org/2000/svg">
<path d="M5.09807 16.3047H5.08594C4.83783 16.3047 4.63672 16.5058 4.63672 16.7539C4.63672 17.002 4.83783 17.2031 5.08594 17.2031H5.09807C5.34617 17.2031 5.54729 17.002 5.54729 16.7539C5.54729 16.5058 5.34617 16.3047 5.09807 16.3047Z"/>
<path d="M21.1546 17.3435L18.5389 16.0259C20.6072 14.8362 22.063 12.8276 22.5657 10.5219C22.5711 10.5028 22.5752 10.4835 22.5781 10.4639C22.6967 9.90045 22.7588 9.31965 22.7588 8.72902C22.7588 8.13286 22.6961 7.55108 22.5777 6.98969C22.5749 6.97127 22.5709 6.95308 22.5658 6.9352C22.1905 5.21294 21.2871 3.68604 20.0339 2.53362C20.0053 2.49885 19.9717 2.46853 19.9341 2.44355C19.0835 1.68581 18.0787 1.09791 16.9732 0.733463C16.9474 0.722277 16.9206 0.713607 16.8932 0.707408C16.0892 0.451174 15.2334 0.3125 14.3458 0.3125C13.4667 0.3125 12.6044 0.448658 11.785 0.710148C11.7667 0.714865 11.7488 0.720795 11.7313 0.727758C10.5796 1.1038 9.51409 1.72812 8.60793 2.57288C7.77265 3.3525 7.115 4.27537 6.6532 5.31581C6.17519 6.3929 5.93279 7.54124 5.93279 8.72893C5.93279 9.31377 5.9942 9.89308 6.11292 10.4583C6.11607 10.4816 6.12096 10.5045 6.12766 10.5269C6.38237 11.6913 6.88226 12.7937 7.59916 13.7562C6.84699 14.0879 6.14199 14.2508 5.4607 14.2508C4.56451 14.2508 3.68355 13.9764 2.76746 13.4119C2.51127 13.2542 2.25234 13.1742 1.99781 13.1742C1.52959 13.1742 0.876695 13.4374 0.425365 14.6913C0.155025 15.4424 0 16.4582 0 17.4782C0 18.4425 0.136922 19.3339 0.385564 19.9884C0.806123 21.0952 1.44711 21.3275 1.91084 21.3275H2.50821V22.2344C2.50821 22.4825 2.70933 22.6836 2.95743 22.6836H4.67493C4.92303 22.6836 5.12415 22.4825 5.12415 22.2344V21.3275H5.94334V22.2344C5.94334 22.4825 6.14446 22.6836 6.39256 22.6836H8.11006C8.35816 22.6836 8.55928 22.4825 8.55928 22.2344V21.3275H10.4695C10.47 21.3275 10.4704 21.3276 10.4709 21.3276C10.4714 21.3276 10.4718 21.3275 10.4722 21.3275H12.3749C12.3757 21.3275 12.3764 21.3275 12.3771 21.3275H14.2585V22.2344C14.2585 22.4825 14.4597 22.6836 14.7078 22.6836H16.4253C16.6733 22.6836 16.8745 22.4825 16.8745 22.2344V21.3275H17.6936V22.2344C17.6936 22.4825 17.8947 22.6836 18.1429 22.6836H19.8588C20.1069 22.6836 20.3081 22.4825 20.3081 22.2344V21.3275H21.9732C22.4575 21.3275 22.8338 21.0094 22.9553 20.4972C23.1856 19.5272 22.5167 18.0284 21.1546 17.3435ZM19.2371 14.4362C18.7336 14.8683 18.1686 15.2372 17.5517 15.5285L16.5913 15.0447C16.5771 15.0365 16.5625 15.0293 16.5478 15.0228L14.7949 14.1398V12.0719L17.0159 10.7901L19.237 12.0719V14.4362H19.2371ZM11.2031 12.4667C11.0189 12.3818 10.8202 12.3388 10.6125 12.3388C10.2124 12.3388 9.82814 12.4941 9.45448 12.701V12.0719L11.6755 10.7901L13.8965 12.0719V13.7055L11.2031 12.4667ZM12.1247 10.0121V7.44569L14.3457 6.16263L16.5667 7.44569V10.012L14.3457 11.2938L12.1247 10.0121ZM20.1354 13.5207V12.0717L21.3895 11.3475C21.0954 12.1383 20.6708 12.873 20.1354 13.5207ZM20.1354 3.94151C20.6665 4.58322 21.093 5.31446 21.3892 6.10868L20.1354 5.38454V3.94151ZM21.7321 7.3443C21.8159 7.79325 21.8603 8.25599 21.8603 8.72893C21.8603 9.1985 21.8164 9.66106 21.7321 10.112L19.6861 11.2937L17.4651 10.012V7.44569L19.6861 6.16263L21.7321 7.3443ZM19.2371 3.02637V5.38454L17.016 6.6676L14.795 5.38454V2.81815L16.8405 1.63738C17.7269 1.95044 18.5377 2.42513 19.2371 3.02637ZM14.3458 1.21098C14.773 1.21098 15.1919 1.24737 15.5998 1.31628L14.3457 2.0402L13.0909 1.31588C13.5023 1.24656 13.9218 1.21098 14.3458 1.21098ZM9.45448 3.02124C10.1673 2.40959 10.9791 1.94276 11.8494 1.63648L13.8965 2.8182V5.38458L11.6755 6.66764L9.45448 5.38458V3.02124V3.02124ZM8.55609 3.93662V5.38454L7.3056 6.10684C7.59791 5.32214 8.01968 4.58686 8.55609 3.93662ZM6.83118 8.72893C6.83118 8.26129 6.8757 7.79752 6.96141 7.34313L9.00522 6.16259L11.2262 7.44564V10.012L9.00535 11.2937L6.96002 10.1123C6.87507 9.65881 6.83118 9.19585 6.83118 8.72893ZM7.3021 11.3475L8.55609 12.0718V13.2557C8.5078 13.2855 8.46009 13.3141 8.41279 13.3419C7.94066 12.7344 7.56718 12.0611 7.3021 11.3475ZM4.22576 21.7852H3.40665V21.3275H4.22576V21.7852V21.7852ZM6.84178 21.7852V21.3275H7.66089V21.7852H6.84178ZM9.16721 20.4291L11.0535 16.9897L11.8518 17.4283L10.2054 20.4291H9.16721V20.4291ZM14.1751 20.4291H13.1373L14.1477 18.5881L14.9447 19.0255L14.1751 20.4291ZM15.9762 21.7852H15.157V21.3275H15.9762V21.7852ZM19.4097 21.7852H18.5921V21.3275H19.4097V21.7852ZM22.0812 20.2898C22.0482 20.4291 22.0066 20.4291 21.9733 20.4291H15.1997L15.9483 19.0637C16.0675 18.8463 15.988 18.5733 15.7705 18.454L14.1863 17.5843C14.0818 17.527 13.9588 17.5135 13.8445 17.5468C13.7301 17.5801 13.6337 17.6575 13.5763 17.762L12.1124 20.4291H11.2302L12.8554 17.4669C12.9747 17.2495 12.8952 16.9765 12.6779 16.8571L11.0921 15.9857C10.9877 15.9283 10.8647 15.9148 10.7502 15.9481C10.6357 15.9815 10.5393 16.0589 10.4819 16.1634L8.14249 20.429H7.40793C7.44315 20.2318 7.45977 20.0347 7.45977 19.8266C7.45977 19.0866 7.23768 18.3631 6.81752 17.7345C6.67966 17.5283 6.40074 17.4728 6.19446 17.6106C5.98818 17.7485 5.93274 18.0274 6.07061 18.2337C6.39171 18.7141 6.56138 19.2649 6.56138 19.8266C6.56138 20.034 6.53806 20.2281 6.48901 20.429H1.91084C1.58296 20.429 1.35713 20.0158 1.22542 19.6692C1.01456 19.1142 0.898438 18.3361 0.898438 17.4782C0.898438 17.3874 0.9001 17.298 0.90257 17.2095C1.57393 16.8021 2.41743 16.6164 3.25248 16.6992C3.49919 16.7238 3.71931 16.5434 3.74379 16.2965C3.76827 16.0496 3.58796 15.8296 3.34111 15.8052C2.53202 15.725 1.71292 15.8525 0.992414 16.1581C1.17731 14.9073 1.60506 14.0726 1.99786 14.0726C2.08352 14.0726 2.18397 14.1077 2.29632 14.1769C3.35818 14.8312 4.39327 15.1493 5.46075 15.1493C6.4272 15.1493 7.41615 14.8809 8.47478 14.3319C8.49594 14.3231 9.13864 13.9518 9.32978 13.8295C9.78461 13.5383 10.2549 13.2372 10.6126 13.2372C10.6907 13.2372 10.7609 13.2521 10.8276 13.2828L11.9232 13.7867L11.4041 14.6512C11.2764 14.8639 11.3453 15.1398 11.558 15.2676C11.6304 15.3111 11.7101 15.3317 11.7888 15.3317C11.9414 15.3317 12.0901 15.254 12.1744 15.1137L12.7443 14.1644L13.9238 14.7069L13.9366 14.7134L13.3915 15.6191C13.2636 15.8317 13.3322 16.1077 13.5448 16.2356C13.6173 16.2793 13.6972 16.3 13.776 16.3C13.9284 16.3 14.077 16.2224 14.1614 16.0824L14.7413 15.1187L15.7327 15.6182L15.1712 16.5509C15.0432 16.7635 15.1118 17.0395 15.3243 17.1675C15.3968 17.2112 15.4767 17.2319 15.5555 17.2319C15.708 17.2319 15.8566 17.1544 15.9409 17.0143L16.5373 16.0236L20.7508 18.1461C21.8447 18.6961 22.1934 19.8169 22.0812 20.2898Z" />
</svg>
