<svg width="8" height="8" viewBox="0 0 8 8" fill="none" xmlns="http://www.w3.org/2000/svg">
<g clip-path="url(#clip0)">
<path d="M4.63852 6.00182C5.07006 6.1496 5.45111 6.24373 5.9986 6.41197C5.78827 9.06959 3.2752 8.01417 4.63852 6.00182ZM6.8823 3.56047C6.85396 2.7625 6.71341 1.71574 5.59386 1.87976C5.06905 2.01672 4.68128 2.59309 4.4989 3.58752C4.39873 4.13428 4.45698 4.90174 4.57514 5.36178C4.68302 5.68599 4.64633 5.66606 4.76228 5.72763C5.21106 5.82873 5.65534 5.94064 6.10777 6.05476C6.56738 5.73019 6.94486 4.00703 6.8823 3.56047ZM3.4273 3.49922C3.54536 3.03911 3.60361 2.27166 3.50349 1.72496C3.32125 0.730486 2.93343 0.15402 2.40852 0.0171479C1.28898 -0.146869 1.14843 0.899874 1.12009 1.69789C1.05752 2.14437 1.43505 3.86764 1.89471 4.19215C2.34711 4.07803 2.79133 3.96621 3.24025 3.86502C3.35606 3.80351 3.31937 3.82342 3.4273 3.49922ZM2.00374 4.54946C2.21399 7.20704 4.72706 6.15162 3.36377 4.13931C2.93224 4.28711 2.55122 4.38122 2.00374 4.54946Z" fill="white"/>
</g>
<defs>
<clipPath id="clip0">
<rect width="8" height="8" fill="white"/>
</clipPath>
</defs>
</svg>
