<svg width="8" height="9" viewBox="0 0 8 9" fill="none" xmlns="http://www.w3.org/2000/svg">
<g clip-path="url(#clip0)">
<path d="M7.35382 1.63733C6.93491 1.21842 6.38032 0.989463 5.78842 0.989463C5.19652 0.989463 4.64023 1.22012 4.22133 1.63903L4.00254 1.85781L3.78037 1.63564C3.36146 1.21673 2.80348 0.984375 2.21158 0.984375C1.62137 0.984375 1.06509 1.21503 0.647877 1.63224C0.228968 2.05115 -0.0016867 2.60744 9.28676e-06 3.19934C9.28676e-06 3.79124 0.23236 4.34583 0.651269 4.76474L3.83634 7.9498C3.88043 7.9939 3.93979 8.01764 3.99746 8.01764C4.05512 8.01764 4.11448 7.9956 4.15857 7.9515L7.35043 4.77152C7.76933 4.35261 7.99999 3.79633 7.99999 3.20443C8.00168 2.61252 7.77273 2.05624 7.35382 1.63733ZM7.02819 4.44759L3.99746 7.46645L0.973507 4.4425C0.641093 4.11008 0.457926 3.66913 0.457926 3.19934C0.457926 2.72955 0.639397 2.28859 0.971811 1.95787C1.30253 1.62716 1.74349 1.44399 2.21158 1.44399C2.68137 1.44399 3.12402 1.62716 3.45643 1.95957L3.83973 2.34286C3.92962 2.43275 4.07377 2.43275 4.16366 2.34286L4.54356 1.96296C4.87598 1.63055 5.31863 1.44738 5.78672 1.44738C6.25482 1.44738 6.69577 1.63055 7.02819 1.96127C7.3606 2.29368 7.54207 2.73464 7.54207 3.20443C7.54377 3.67421 7.3606 4.11517 7.02819 4.44759Z" fill="white"/>
<path d="M7.02819 4.44759L3.99746 7.46645L0.973507 4.4425C0.641093 4.11008 0.457926 3.66913 0.457926 3.19934C0.457926 2.72955 0.639397 2.28859 0.971811 1.95787C1.30253 1.62716 1.74349 1.44399 2.21158 1.44399C2.68137 1.44399 3.12402 1.62716 3.45643 1.95957L3.83973 2.34286C3.92962 2.43275 4.07377 2.43275 4.16366 2.34286L4.54356 1.96296C4.87598 1.63055 5.31863 1.44738 5.78672 1.44738C6.25482 1.44738 6.69577 1.63055 7.02819 1.96127C7.3606 2.29368 7.54207 2.73464 7.54207 3.20443C7.54377 3.67421 7.3606 4.11517 7.02819 4.44759Z" fill="white"/>
</g>
<defs>
<clipPath id="clip0">
<rect width="8" height="8" fill="white" transform="translate(0 0.5)"/>
</clipPath>
</defs>
</svg>
