<svg width="16" height="16" viewBox="0 0 16 16" fill="currentColor" xmlns="http://www.w3.org/2000/svg">
<g clip-path="url(#clip0)">
<path d="M15.6875 15.375H14.3125V12.9062C14.3125 12.7337 14.1725 12.5937 14 12.5937C13.8274 12.5937 13.6875 12.7337 13.6875 12.9062V15.375H9.9375V9.4375C9.9375 9.26491 9.79756 9.12501 9.625 9.12501H6.37502C6.20245 9.12501 6.06252 9.26491 6.06252 9.4375V15.375H2.31253V8.31248H2.43278C2.51566 8.31248 2.59512 8.27954 2.65375 8.22094L8.00001 2.87467L13.3463 8.22094C13.4049 8.27954 13.4844 8.31248 13.5672 8.31248H13.6875V10.6562C13.6875 10.8288 13.8274 10.9687 14 10.9687C14.1725 10.9687 14.3125 10.8288 14.3125 10.6562V8.31248H15.6875C15.8139 8.31248 15.9278 8.23632 15.9762 8.11957C16.0246 8.00282 15.9978 7.86838 15.9084 7.77901L8.22098 0.0915233C8.09892 -0.0305077 7.9011 -0.0305077 7.77901 0.0915233L4.84152 3.02902C4.71949 3.15105 4.71949 3.34892 4.84152 3.47095C4.96358 3.59302 5.16146 3.59302 5.28349 3.47095L8.00001 0.754428L14.933 7.68748H13.6967L8.22098 2.21177C8.09892 2.08974 7.9011 2.08974 7.77901 2.21177L2.30331 7.68748H1.06697L3.5335 5.22098C3.65553 5.09895 3.65553 4.90108 3.5335 4.77901C3.41146 4.65701 3.21359 4.65698 3.09153 4.77901L0.0915401 7.77901C0.00219674 7.86838 -0.0245844 8.00279 0.0237904 8.11957C0.0721652 8.23635 0.186134 8.31248 0.312539 8.31248H1.68753V15.375H0.312539C0.139977 15.375 4.05024e-05 15.5149 4.05024e-05 15.6875C4.05024e-05 15.8601 0.139977 16 0.312539 16H2.00003H6.37502H9.625H14H15.6875C15.86 16 16 15.8601 16 15.6875C16 15.5149 15.86 15.375 15.6875 15.375ZM9.3125 15.375H6.68751V9.75H9.3125V15.375Z"/>
<path d="M12.6875 9.125H10.9375C10.7649 9.125 10.625 9.26491 10.625 9.4375V12.5625C10.625 12.7351 10.7649 12.875 10.9375 12.875H12.6875C12.8601 12.875 13 12.7351 13 12.5625V9.4375C13 9.26491 12.8601 9.125 12.6875 9.125ZM12.375 12.25H11.25V9.75H12.375V12.25Z"/>
<path d="M5.0625 9.125H3.3125C3.13994 9.125 3 9.26491 3 9.4375V12.5625C3 12.7351 3.13994 12.875 3.3125 12.875H5.0625C5.23506 12.875 5.375 12.7351 5.375 12.5625V9.4375C5.375 9.26491 5.23506 9.125 5.0625 9.125ZM4.75 12.25H3.625V9.75H4.75V12.25Z"/>
<path d="M7.99999 5.13477C7.20737 5.13477 6.5625 5.77964 6.5625 6.57227C6.5625 7.36489 7.20737 8.00977 7.99999 8.00977C8.79262 8.00977 9.43749 7.36489 9.43749 6.57227C9.43749 5.77964 8.79262 5.13477 7.99999 5.13477ZM7.99999 7.38477C7.55196 7.38477 7.1875 7.02027 7.1875 6.57227C7.1875 6.12427 7.55196 5.75977 7.99999 5.75977C8.44802 5.75977 8.81249 6.12427 8.81249 6.57227C8.81249 7.02027 8.44802 7.38477 7.99999 7.38477Z"/>
<path d="M7.62715 12.3416C7.56906 12.2834 7.4884 12.25 7.40625 12.25C7.32406 12.25 7.24344 12.2834 7.18531 12.3416C7.12719 12.3997 7.09375 12.4803 7.09375 12.5625C7.09375 12.6447 7.12716 12.7253 7.18531 12.7834C7.24347 12.8416 7.32406 12.875 7.40625 12.875C7.48844 12.875 7.56906 12.8416 7.62715 12.7834C7.68528 12.7253 7.71875 12.6447 7.71875 12.5625C7.71875 12.4803 7.68531 12.3997 7.62715 12.3416Z"/>
<path d="M4.37715 3.93531C4.31906 3.87719 4.23843 3.84375 4.15625 3.84375C4.07406 3.84375 3.99344 3.87719 3.93531 3.93531C3.87719 3.99344 3.84375 4.07406 3.84375 4.15625C3.84375 4.23844 3.87716 4.31906 3.93531 4.37719C3.99347 4.43531 4.07406 4.46875 4.15625 4.46875C4.23843 4.46875 4.31906 4.43531 4.37715 4.37719C4.43527 4.31906 4.46874 4.23844 4.46874 4.15625C4.46874 4.07406 4.4353 3.99344 4.37715 3.93531Z"/>
<path d="M14.2209 11.4763C14.1628 11.4182 14.0822 11.3848 14 11.3848C13.9178 11.3848 13.8372 11.4182 13.7791 11.4763C13.7209 11.5348 13.6875 11.6151 13.6875 11.6973C13.6875 11.7795 13.7209 11.8601 13.7791 11.9185C13.8372 11.9766 13.9178 12.0098 14 12.0098C14.0822 12.0098 14.1628 11.9766 14.2209 11.9185C14.279 11.8601 14.3125 11.7798 14.3125 11.6973C14.3125 11.6151 14.2791 11.5345 14.2209 11.4763Z"/>
</g>
<defs>
<clipPath id="clip0">
<rect width="16" height="16"/>
</clipPath>
</defs>
</svg>
