<svg width="23" height="23" viewBox="0 0 23 23" fill="currentColor" xmlns="http://www.w3.org/2000/svg">
<path d="M18.2532 20.3921H16.3655L16.3666 17.6175C16.3666 17.4537 16.2782 17.3026 16.1354 17.2224L14.4258 16.2617C14.3426 16.2139 14.2478 16.1621 14.1473 16.1074C13.4447 15.7245 12.3319 15.1177 11.916 14.0555H15.7203L17.6765 15.9821C17.803 16.1064 17.803 16.1064 17.7999 16.4295C17.7994 16.4792 17.7989 16.533 17.7989 16.5916V17.3009C17.7989 17.5511 18.0017 17.7539 18.2519 17.7539C18.502 17.7539 18.7049 17.5511 18.7049 17.3009V16.5916C18.7049 16.5361 18.7054 16.4852 18.7058 16.4382C18.7097 16.0271 18.7126 15.7301 18.3119 15.3363L16.3592 13.4131L16.3619 11.9029L17.5241 11.902C18.0473 11.9006 18.4253 11.8996 18.8597 11.3021C18.8611 11.3001 18.8625 11.2981 18.8639 11.2962L20.3757 9.14468C20.6026 8.8208 20.6887 8.42557 20.618 8.03188C20.5465 7.63356 20.3249 7.28838 19.9941 7.06004C19.6662 6.83368 19.2692 6.74909 18.876 6.82191C18.483 6.89473 18.1426 7.11601 17.9176 7.44471L16.9635 8.83742L16.1632 8.83347L15.1791 7.28411C16.0986 6.69451 16.8048 5.67137 16.8048 4.4539C16.8048 3.77351 16.6014 3.11603 16.2253 2.55986C16.362 2.42531 16.4804 2.27469 16.5728 2.10574C16.782 1.72296 16.9354 1.08817 16.4774 0.238203C16.3613 0.0226234 16.095 -0.0616051 15.876 0.0480042C14.9879 0.492326 14.3187 0.529522 13.7092 0.529567C13.6342 0.529567 13.5606 0.528893 13.4884 0.528309C13.4161 0.527725 13.3451 0.527141 13.2752 0.527141C12.9252 0.527141 12.5177 0.539315 12.1089 0.684547C10.9637 1.09131 9.21131 2.28655 10.3335 5.72258C10.3336 5.72312 10.3338 5.72357 10.334 5.72411C10.3348 5.72671 10.3356 5.72918 10.3364 5.73174C10.3402 5.74351 10.3446 5.75497 10.3493 5.76624C10.3494 5.76642 10.3494 5.76665 10.3495 5.76683C10.6197 6.40688 11.0032 6.90322 11.4874 7.24831L10.8673 8.14432L8.20865 9.05551C7.62718 9.25393 7.22176 9.80014 7.19984 10.4148C7.19966 10.4202 7.19957 10.4255 7.19957 10.4309V10.9271H4.60924C4.35907 10.9271 4.15625 11.1299 4.15625 11.3801C4.15625 11.6303 4.35907 11.8331 4.60924 11.8331H7.19957V13.1585C7.19957 13.9816 7.87309 14.6513 8.70091 14.6513L8.70751 14.6513C9.53057 14.6476 10.1973 13.973 10.1936 13.1478L10.1873 11.5413L10.4434 11.4535L10.8681 13.6035L10.5151 15.4369H7.93831C7.68814 15.4369 7.48537 15.6397 7.48537 15.8899C7.48537 16.1401 7.68814 16.3429 7.93831 16.3429H10.3406L10.2566 16.7792L7.82116 17.5947C7.81882 17.5955 7.81662 17.5965 7.81433 17.5974C7.81231 17.5981 7.81024 17.5985 7.80817 17.5993L6.24584 18.1759C6.13308 18.2176 6.04149 18.3023 5.99122 18.4114C5.94095 18.5206 5.93614 18.6453 5.97783 18.758L7.32041 22.3889C7.36641 22.5133 7.46457 22.6113 7.58904 22.657C7.63963 22.6756 7.6925 22.6848 7.74524 22.6848C7.82214 22.6848 7.89874 22.6652 7.96729 22.6266C8.84457 22.1332 9.38242 21.3252 9.3618 20.6099L12.8895 19.391C13.4174 19.2075 13.6215 18.9097 13.7636 18.6151L14.4005 17.2925L15.177 17.7395C15.2123 17.7598 15.2492 17.7747 15.2868 17.7847L15.4605 17.8823L15.4594 20.8435C15.4594 20.8436 15.4594 20.8436 15.4594 20.8437L15.4543 22.5456C15.4539 22.666 15.5015 22.7815 15.5865 22.8668C15.6715 22.952 15.7869 22.9999 15.9073 22.9999H19.8981C20.0976 22.9999 20.2735 22.8695 20.3315 22.6787C20.4678 22.2304 20.3823 21.7809 20.0842 21.3787C19.6468 20.7885 18.7844 20.3921 18.2532 20.3921ZM17.1993 9.74466C17.3482 9.74596 17.4904 9.67157 17.5752 9.54768L18.6652 7.95663C18.7532 7.82802 18.8867 7.74141 19.0411 7.7128C19.1956 7.68427 19.3513 7.7172 19.4795 7.80565C19.6101 7.8959 19.6978 8.03305 19.7264 8.19198C19.7541 8.34633 19.7212 8.49996 19.6342 8.62417L18.1248 10.7722C17.963 10.9948 17.9612 10.9947 17.5226 10.9959L16.3636 10.9968L16.3658 9.74044L17.1993 9.74466ZM15.8988 4.4539C15.8988 5.84266 14.5794 6.91988 13.4444 6.91988C13.029 6.91988 12.6648 6.84859 12.3493 6.70489C12.3363 6.69797 12.323 6.69168 12.3096 6.68615C11.8604 6.46995 11.5125 6.10257 11.259 5.57914C11.4607 5.10684 12.1359 3.74148 13.2247 3.65788C13.5143 3.63582 14.5872 3.52631 15.481 3.07695C15.7522 3.4821 15.8988 3.95967 15.8988 4.4539ZM11.0111 2.84731C11.2216 2.22649 11.6799 1.79834 12.4123 1.53824C12.6587 1.45073 12.9251 1.43313 13.2752 1.43313C13.3426 1.43313 13.4111 1.43371 13.4808 1.43425C13.5555 1.43492 13.6316 1.43551 13.7093 1.43551C14.3355 1.43551 15.023 1.38497 15.838 1.05816C15.8962 1.28906 15.8761 1.49157 15.7779 1.67112C15.4317 2.30456 14.1761 2.6767 13.1557 2.75441C12.1078 2.83491 11.3751 3.59796 10.92 4.29114C10.8438 3.7347 10.874 3.25152 11.0111 2.84731ZM9.58623 10.7895C9.40245 10.8524 9.27928 11.0256 9.28004 11.2198L9.28768 13.1515C9.28911 13.4774 9.02699 13.7438 8.70347 13.7453H8.70086C8.37814 13.7453 8.10547 13.4765 8.10547 13.1585V11.4274C8.10708 11.4118 8.10798 11.3961 8.10798 11.38C8.10798 11.364 8.10708 11.3482 8.10547 11.3326V10.4401C8.11683 10.205 8.27864 9.9889 8.50168 9.9128L11.2334 8.9765C11.2938 8.95588 11.3563 8.94546 11.4195 8.94546C11.6723 8.94546 11.8966 9.1061 11.9776 9.34517C12.0824 9.65414 11.9185 9.99065 11.6121 10.0954L9.58623 10.7895ZM11.9055 10.9527C12.6831 10.6868 13.1004 9.83522 12.8357 9.05439C12.6917 8.62938 12.3693 8.30267 11.969 8.1445L12.3061 7.65728C12.653 7.76904 13.0334 7.82587 13.4444 7.82587C13.7457 7.82587 14.0536 7.77376 14.355 7.67628L15.4604 9.41655L15.4568 11.4504C15.4568 11.4504 15.4568 11.4505 15.4568 11.4505C15.4568 11.4506 15.4568 11.4506 15.4568 11.4506L15.4538 13.1494H11.7019L11.3083 11.1572L11.9055 10.9527ZM7.96513 21.5204L6.98471 18.869L7.70193 18.6043L8.43488 20.5185C8.51479 20.7272 8.37599 21.146 7.96513 21.5204ZM12.9475 18.2218C12.8693 18.384 12.8153 18.4578 12.5929 18.5351L9.10673 19.7396L8.55702 18.3039L10.7952 17.5545C10.9502 17.5026 11.0653 17.3711 11.0962 17.2106L11.4921 15.1544C12.0975 15.9923 12.997 16.5107 13.61 16.8463L12.9475 18.2218ZM16.3616 22.094L16.364 21.2981H18.2532C18.4742 21.2981 19.0758 21.5396 19.3564 21.9182C19.4031 21.9812 19.4346 22.0398 19.4551 22.094H16.3616Z"/>
<path d="M6.25342 16.3318C6.50359 16.3318 6.70641 16.1289 6.70641 15.8788C6.70641 15.6286 6.50359 15.4258 6.25342 15.4258H6.24201C5.99184 15.4258 5.78906 15.6286 5.78906 15.8788C5.78906 16.1289 5.99184 16.3318 6.24201 16.3318H6.25342Z"/>
<path d="M2.82382 10.9258H2.81237C2.5622 10.9258 2.35938 11.1286 2.35938 11.3788C2.35938 11.6289 2.5622 11.8318 2.81237 11.8318H2.82382C3.07399 11.8318 3.27677 11.6289 3.27677 11.3788C3.27677 11.1286 3.07399 10.9258 2.82382 10.9258Z"/>
<path d="M18.2538 18.5859C18.0036 18.5859 17.8008 18.7888 17.8008 19.0389V19.0504C17.8008 19.3006 18.0036 19.5034 18.2538 19.5034C18.5039 19.5034 18.7068 19.3006 18.7068 19.0504V19.0389C18.7068 18.7887 18.5039 18.5859 18.2538 18.5859Z"/>
</svg>
