<svg width="33" height="33" viewBox="0 0 33 33" fill="currentColor" xmlns="http://www.w3.org/2000/svg">
<path d="M16.5 2.75C13.5836 2.75333 10.7877 3.91332 8.7255 5.9755C6.66332 8.03768 5.50333 10.8336 5.5 13.75C5.5 22.9006 15.2646 30.25 16.5 30.25C17.7354 30.25 27.5 22.9006 27.5 13.75C27.4967 10.8336 26.3367 8.03768 24.2745 5.9755C22.2123 3.91332 19.4164 2.75333 16.5 2.75ZM16.5 28.8354C14.9182 28.0666 6.875 21.6543 6.875 13.75C6.875 11.1973 7.88906 8.74913 9.6941 6.9441C11.4991 5.13906 13.9473 4.125 16.5 4.125C19.0527 4.125 21.5009 5.13906 23.3059 6.9441C25.1109 8.74913 26.125 11.1973 26.125 13.75C26.125 21.6543 18.0818 28.0666 16.5 28.8354Z"/>
<path d="M16.5 8.9375C15.5482 8.9375 14.6177 9.21975 13.8263 9.74855C13.0349 10.2774 12.4181 11.029 12.0538 11.9083C11.6896 12.7877 11.5943 13.7553 11.78 14.6889C11.9657 15.6224 12.424 16.4799 13.0971 17.153C13.7701 17.826 14.6276 18.2843 15.5611 18.47C16.4947 18.6557 17.4623 18.5604 18.3417 18.1962C19.221 17.8319 19.9726 17.2151 20.5015 16.4237C21.0303 15.6323 21.3125 14.7018 21.3125 13.75C21.311 12.4741 20.8034 11.2509 19.9012 10.3488C18.9991 9.44657 17.7759 8.93905 16.5 8.9375ZM16.5 17.1875C15.8201 17.1875 15.1555 16.9859 14.5902 16.6082C14.0249 16.2305 13.5843 15.6936 13.3242 15.0655C13.064 14.4374 12.9959 13.7462 13.1286 13.0794C13.2612 12.4126 13.5886 11.8001 14.0693 11.3193C14.5501 10.8386 15.1626 10.5112 15.8294 10.3786C16.4962 10.2459 17.1874 10.314 17.8155 10.5742C18.4436 10.8343 18.9805 11.2749 19.3582 11.8402C19.7359 12.4055 19.9375 13.0701 19.9375 13.75C19.9365 14.6614 19.5741 15.5352 18.9296 16.1796C18.2852 16.8241 17.4114 17.1865 16.5 17.1875Z"/>
</svg>
