<svg width="33" height="33" viewBox="0 0 33 33" fill="currentColor" xmlns="http://www.w3.org/2000/svg">
<path d="M11 28.1875C11 28.0052 10.9276 27.8303 10.7986 27.7014C10.6697 27.5724 10.4948 27.5 10.3125 27.5H5.5L5.5 5.5H10.3125C10.4948 5.5 10.6697 5.42757 10.7986 5.29864C10.9276 5.1697 11 4.99484 11 4.8125C11 4.63016 10.9276 4.4553 10.7986 4.32636C10.6697 4.19743 10.4948 4.125 10.3125 4.125H4.8125C4.63017 4.125 4.4553 4.19743 4.32637 4.32636C4.19743 4.4553 4.125 4.63016 4.125 4.8125L4.125 28.1875C4.125 28.3698 4.19743 28.5447 4.32637 28.6736C4.4553 28.8026 4.63017 28.875 4.8125 28.875H10.3125C10.4948 28.875 10.6697 28.8026 10.7986 28.6736C10.9276 28.5447 11 28.3698 11 28.1875Z" />
<path d="M11.1733 16.0436C11.0616 16.1695 11 16.3319 11 16.5002C11 16.6684 11.0616 16.8309 11.1733 16.9568L16.6733 23.1443C16.7943 23.2806 16.9647 23.3633 17.1467 23.3742C17.3288 23.385 17.5077 23.323 17.6441 23.2019C17.7805 23.0808 17.8632 22.9105 17.874 22.7285C17.8848 22.5464 17.8228 22.3675 17.7018 22.2311L13.2184 17.1877H28.1875C28.3698 17.1877 28.5447 17.1153 28.6736 16.9863C28.8026 16.8574 28.875 16.6825 28.875 16.5002C28.875 16.3178 28.8026 16.143 28.6736 16.014C28.5447 15.8851 28.3698 15.8127 28.1875 15.8127H13.2184L17.7018 10.7693C17.8228 10.6329 17.8848 10.454 17.874 10.2719C17.8632 10.0898 17.7805 9.91952 17.6441 9.79843C17.5077 9.67734 17.3288 9.61539 17.1467 9.62621C16.9647 9.63703 16.7943 9.71973 16.6733 9.85612L11.1733 16.0436Z" />
</svg>
