<svg width="8" height="8" viewBox="0 0 8 8" fill="none" xmlns="http://www.w3.org/2000/svg">
<path d="M4.00125 3.91253C4.89071 3.91253 5.61183 3.03669 5.61183 1.95627C5.61183 0.87584 5.37508 0 4.00125 0C2.62742 0 2.39062 0.87584 2.39062 1.95627C2.39062 3.03669 3.11174 3.91253 4.00125 3.91253Z" fill="white"/>
<path d="M7.03765 6.82039C7.00782 4.93827 6.76201 4.40198 4.88103 4.0625C4.88103 4.0625 4.61625 4.3999 3.99911 4.3999C3.38197 4.3999 3.11715 4.0625 3.11715 4.0625C1.25669 4.39827 0.995934 4.92662 0.961648 6.75924C0.958837 6.90889 0.957534 6.91675 0.957031 6.89938C0.957146 6.93193 0.957283 6.99213 0.957283 7.09712C0.957283 7.09712 1.4051 7.99989 3.99911 7.99989C6.59308 7.99989 7.04094 7.09712 7.04094 7.09712C7.04094 7.02967 7.04099 6.98276 7.04105 6.95085C7.04055 6.9616 7.03955 6.94077 7.03765 6.82039Z" fill="white"/>
</svg>
