<svg width="18" height="18" viewBox="0 0 18 18" fill="currentColor" xmlns="http://www.w3.org/2000/svg">
<g clip-path="url(#clip0)">
<path d="M9.00058 12.4612C9.95262 12.4612 10.7674 12.1223 11.4452 11.4447C12.123 10.7671 12.4619 9.95195 12.4619 8.99998V3.46163C12.4619 2.50966 12.1232 1.69484 11.4452 1.01691C10.7674 0.339135 9.95262 0 9.00058 0C8.04864 0 7.23379 0.339135 6.5559 1.01691C5.87797 1.69473 5.53906 2.50966 5.53906 3.46163V8.99998C5.53906 9.95192 5.87812 10.7671 6.5559 11.4447C7.23367 12.1223 8.04864 12.4612 9.00058 12.4612Z"/>
<path d="M15.0254 7.12745C14.8888 6.99041 14.7261 6.92188 14.5386 6.92188C14.3513 6.92188 14.1891 6.99041 14.0519 7.12745C13.915 7.26446 13.8465 7.42669 13.8465 7.61413V8.99882C13.8465 10.333 13.3722 11.4742 12.4239 12.4224C11.4758 13.3708 10.3345 13.845 9.00032 13.845C7.66613 13.845 6.52495 13.3708 5.57658 12.4224C4.62831 11.4744 4.15422 10.333 4.15422 8.99882V7.61413C4.15422 7.42669 4.08568 7.26446 3.94872 7.12745C3.81168 6.99041 3.64959 6.92188 3.46197 6.92188C3.27435 6.92188 3.11208 6.99041 2.97511 7.12745C2.83803 7.26446 2.76953 7.42669 2.76953 7.61413V8.99882C2.76953 10.5926 3.30148 11.979 4.36507 13.158C5.4287 14.337 6.74299 15.013 8.30799 15.186V16.614H5.5388C5.35129 16.614 5.18906 16.6826 5.05205 16.8197C4.91501 16.9566 4.84647 17.1189 4.84647 17.3064C4.84647 17.4936 4.91501 17.6563 5.05205 17.7932C5.18906 17.9301 5.35129 17.9988 5.5388 17.9988H12.4617C12.6491 17.9988 12.8116 17.9301 12.9484 17.7932C13.0856 17.6563 13.1542 17.4937 13.1542 17.3064C13.1542 17.119 13.0856 16.9567 12.9484 16.8197C12.8116 16.6826 12.6492 16.614 12.4617 16.614H9.6928V15.186C11.2575 15.013 12.5717 14.337 13.6355 13.158C14.6992 11.979 15.2313 10.5926 15.2313 8.99882V7.61413C15.2313 7.42673 15.1626 7.26461 15.0254 7.12745Z"/>
</g>
<defs>
<clipPath id="clip0">
<rect width="18" height="18" fill="white"/>
</clipPath>
</defs>
</svg>
