<svg width="33" height="33" viewBox="0 0 33 33" fill="currentColor"  xmlns="http://www.w3.org/2000/svg">
<path d="M27.2988 25.6391C24.7499 23.0905 24.7499 20.5566 24.7499 17.875V14.4375C24.7471 12.7231 24.2108 11.0521 23.2154 9.65636C22.22 8.26057 20.8148 7.20921 19.1949 6.64813C19.2267 6.4965 19.2451 6.34236 19.2499 6.1875C19.2499 5.45815 18.9601 4.75868 18.4444 4.24296C17.9287 3.72723 17.2292 3.4375 16.4999 3.4375C15.7705 3.4375 15.071 3.72723 14.5553 4.24296C14.0396 4.75868 13.7499 5.45815 13.7499 6.1875C13.7547 6.34249 13.7732 6.49675 13.8053 6.64847C12.1853 7.20946 10.7801 8.26075 9.78461 9.65647C8.78913 11.0522 8.25274 12.7231 8.24985 14.4375V17.875C8.24985 20.5562 8.24985 23.0904 5.70115 25.6391C5.60507 25.7352 5.53966 25.8577 5.51317 25.9911C5.48669 26.1244 5.50033 26.2626 5.55236 26.3882C5.6044 26.5137 5.69249 26.6211 5.80552 26.6966C5.91854 26.7721 6.05142 26.8125 6.18735 26.8125H13.7499C13.7499 27.5418 14.0396 28.2413 14.5553 28.757C15.071 29.2728 15.7705 29.5625 16.4999 29.5625C17.2292 29.5625 17.9287 29.2728 18.4444 28.757C18.9601 28.2413 19.2499 27.5418 19.2499 26.8125H26.8124C26.9483 26.8125 27.0812 26.7722 27.1943 26.6966C27.3074 26.6211 27.3955 26.5137 27.4475 26.3881C27.4995 26.2625 27.5132 26.1242 27.4866 25.9909C27.4601 25.8575 27.3946 25.735 27.2985 25.6389L27.2988 25.6391ZM15.1249 6.1875C15.1249 5.82283 15.2697 5.47309 15.5276 5.21523C15.7854 4.95737 16.1352 4.8125 16.4999 4.8125C16.8645 4.8125 17.2143 4.95737 17.4721 5.21523C17.73 5.47309 17.8749 5.82283 17.8749 6.1875C17.8749 6.22779 17.8487 6.26684 17.8448 6.30712C16.9552 6.14763 16.0444 6.14763 15.1548 6.30712C15.1509 6.26656 15.1249 6.22751 15.1249 6.1875ZM16.4999 28.1881C16.1353 28.1878 15.7857 28.0429 15.5279 27.7851C15.2701 27.5273 15.1251 27.1777 15.1249 26.8131H17.8749C17.8745 27.1777 17.7295 27.5272 17.4717 27.7849C17.2139 28.0427 16.8644 28.1876 16.4999 28.1878V28.1881ZM7.6991 25.4375C9.62485 22.881 9.62485 20.3417 9.62485 17.875V14.4375C9.62485 12.6141 10.3492 10.8655 11.6385 9.57614C12.9278 8.28683 14.6765 7.5625 16.4999 7.5625C18.3232 7.5625 20.0719 8.28683 21.3612 9.57614C22.6505 10.8655 23.3749 12.6141 23.3749 14.4375V17.875C23.3749 20.3417 23.3749 22.881 25.3004 25.4375H7.6991Z" />
</svg>
