<svg width="334" height="376" viewBox="0 0 334 376" fill="none" xmlns="http://www.w3.org/2000/svg">
<path d="M333.88 268.298C334 276.268 329.86 283.698 323.01 287.778L290.35 307.288L260.56 325.088L255.35 328.198L253.43 329.348L180.9 372.668C174.06 376.748 165.56 376.878 158.59 372.998L14.0197 292.368C7.05972 288.488 2.69973 281.188 2.57973 273.218L0.119727 107.698C-0.000272907 99.7283 4.13973 92.2983 10.9797 88.2183L153.1 3.32827C159.94 -0.751726 168.45 -0.881728 175.41 2.99827L319.99 83.6383C326.95 87.5183 331.31 94.8183 331.43 102.788L333.88 268.298Z" fill="url(#paint0_linear)"/>
<path d="M149.63 47.1166C148.28 46.4266 136.4 40.5066 127.77 41.9866C125.09 42.4466 122.8 43.4566 122.8 43.4566C117.11 45.8766 113.15 50.5866 111.83 56.6366C111.6 57.6966 111.49 58.7366 111.48 59.7766H89.0004C86.0104 59.7766 84.7904 61.8866 86.2904 64.4766C86.2904 64.4766 90.0504 70.9566 97.4904 71.3466C101.31 71.5466 108.07 71.5566 113.74 71.5266C113.86 72.0366 113.98 72.5466 114.09 73.0566C114.34 74.2766 114.26 75.5566 114.1 76.8566C113.96 77.3466 113.8 77.8366 113.61 78.3166C113.14 79.4966 111.24 81.4766 111.16 82.6466C110.93 85.7866 115.86 86.5166 114.39 89.4566C115.84 90.6666 114.79 92.7366 117.18 92.8566C118 95.3166 118.31 98.7466 120.85 100.327C123.27 101.837 126.08 101.577 128.67 100.557C130.85 100.637 133.13 100.697 135.4 101.577C144.32 105.037 136.87 111.697 134.82 117.227C133.55 120.647 134.19 124.427 133.65 127.967C132.97 132.427 131.05 136.497 129.83 140.797C126.79 151.477 130.59 155.707 135.42 164.697C135.78 165.367 136.11 166.047 136.43 166.747C135.59 166.407 134.76 166.067 133.99 165.737C129.43 163.777 121.38 163.167 118.5 161.067C118.92 156.897 117.96 154.037 115.79 150.847C114.4 148.807 109.2 144.477 106.58 144.457C99.8404 144.407 91.5104 158.957 97.2304 164.177C110.77 176.527 126.8 182.787 143.02 190.457C143.24 191.357 143.46 192.237 143.69 193.107C146.37 203.017 149.87 213.117 151.56 223.247C154.47 240.657 140.18 256.397 130.51 269.467C126.61 274.737 118.13 282.707 113.29 290.877C113.29 290.877 113.29 290.877 113.28 290.877C113.28 290.877 107.08 300.267 105.99 309.317L108.47 345.047L144.49 365.137C144.49 365.137 151.24 350.787 142.59 320.427C144.08 318.837 145.31 316.757 147.17 314.707C157.75 303.007 170.35 293.527 182.14 283.197C184.61 286.927 187.28 290.547 189.97 294.137C196.26 302.507 202.14 311.307 209.72 318.587C213.28 322.007 217.23 325.557 222.04 327.027C227.23 328.607 232.79 327.837 238.11 328.337C242.46 328.747 249.62 327.867 253.4 329.327C253.51 329.367 253.62 329.417 253.72 329.457C254.23 329.007 254.76 328.587 255.32 328.177C256.89 327.027 258.66 326.017 260.53 325.067L290.32 307.267C276.08 300.627 255.37 296.557 240.03 300.977C238.42 293.577 235.66 286.007 232.14 278.757H243.27C244.53 278.757 245.57 277.727 245.57 276.457C245.57 275.197 244.54 274.157 243.27 274.157H229.79C228.42 271.627 226.97 269.147 225.45 266.737H257.91C259.64 266.737 261.06 265.317 261.06 263.587C261.06 261.857 259.64 260.437 257.91 260.437H221.17C219.65 258.347 218.1 256.337 216.5 254.427C214.84 252.437 212.81 250.327 210.52 248.277C212.8 241.877 213.44 234.937 211.69 228.297C210.54 223.937 208.46 219.937 206.26 215.997H225.53C226.79 215.997 227.83 214.967 227.83 213.697C227.83 212.437 226.8 211.397 225.53 211.397H203.7C202.8 209.737 201.93 208.067 201.16 206.367H248.55C250.28 206.367 251.7 204.947 251.7 203.217C251.7 201.487 250.28 200.067 248.55 200.067H202.48C209.19 198.357 211.92 193.577 212.93 185.987C214.16 176.777 221.37 172.197 226.77 164.787C233.66 155.347 240.04 145.407 244.74 134.657C249.11 124.657 245.31 120.537 236.05 116.287C234.83 115.727 233.6 115.177 232.35 114.627H242.1C243.36 114.627 244.4 113.597 244.4 112.327C244.4 111.057 243.37 110.027 242.1 110.027H221.24C216.62 108.237 211.89 106.547 207.12 104.997H242.59C244.32 104.997 245.74 103.577 245.74 101.847C245.74 100.117 244.32 98.6966 242.59 98.6966H187.35C186.78 98.6966 186.25 98.8566 185.79 99.1266C182.05 98.2966 178.33 97.5766 174.69 97.0066C168.57 96.0466 164.52 94.6566 162.06 91.7766C159.89 89.2266 159.51 86.1666 158.95 80.0566C157.97 69.3866 159.9 66.7466 158.59 61.0066C157.77 57.3766 155.64 52.4066 149.63 47.1166ZM204.13 175.957L198.7 173.547C191.65 170.727 189.06 178.547 188.93 178.957C192.18 164.117 191.46 152.727 191.46 152.727C191.1 137.337 190.01 129.007 190.01 129.007L226.58 131.177C216.81 140.237 204.13 175.957 204.13 175.957Z" fill="#FFFEFF"/>
<path d="M252.559 105.727C254.503 105.727 256.079 104.152 256.079 102.208C256.079 100.263 254.503 98.6875 252.559 98.6875C250.615 98.6875 249.039 100.263 249.039 102.208C249.039 104.152 250.615 105.727 252.559 105.727Z" fill="#FFFEFF"/>
<path d="M303.34 206.735C305.284 206.735 306.86 205.159 306.86 203.215C306.86 201.271 305.284 199.695 303.34 199.695C301.396 199.695 299.82 201.271 299.82 203.215C299.82 205.159 301.396 206.735 303.34 206.735Z" fill="#FFFEFF"/>
<path d="M290.721 200.918H259.831C258.571 200.918 257.531 201.948 257.531 203.218C257.531 204.488 258.561 205.518 259.831 205.518H290.721C291.981 205.518 293.021 204.488 293.021 203.218C293.021 201.948 291.991 200.918 290.721 200.918Z" fill="#FFFEFF"/>
<path d="M223.531 189.948C223.531 191.208 224.561 192.248 225.831 192.248H256.721C257.981 192.248 259.021 191.218 259.021 189.948C259.021 188.688 257.991 187.648 256.721 187.648H225.831C224.571 187.648 223.531 188.688 223.531 189.948Z" fill="#FFFEFF"/>
<defs>
<linearGradient id="paint0_linear" x1="0.121927" y1="187.998" x2="333.877" y2="187.998" gradientUnits="userSpaceOnUse">
<stop stop-color="#557DDE"/>
<stop offset="0.0537" stop-color="#577FDF"/>
<stop offset="0.6314" stop-color="#6E91E6"/>
<stop offset="1" stop-color="#7698E9"/>
</linearGradient>
</defs>
</svg>
