<svg width="16" height="16" viewBox="0 0 16 16" fill="currentColor" xmlns="http://www.w3.org/2000/svg">
<g clip-path="url(#clip0)">
<path d="M11.6562 10.4102H14.5308C14.7034 10.4102 14.8433 10.2703 14.8433 10.0977V8.74609C14.8433 8.57361 14.7034 8.43359 14.5308 8.43359H11.6562C11.4836 8.43359 11.3438 8.57349 11.3438 8.74609V10.0977C11.3438 10.2703 11.4836 10.4102 11.6562 10.4102ZM13.4056 9.05872H14.2181V9.78503H13.4056V9.05872ZM11.9689 9.05872H12.7805V9.78503H11.9689V9.05872Z"/>
<path d="M11.6562 7.7832H14.5308C14.7034 7.7832 14.8433 7.64331 14.8433 7.47058V6.11914C14.8433 5.94666 14.7034 5.80664 14.5308 5.80664H11.6562C11.4836 5.80664 11.3438 5.94653 11.3438 6.11914V7.47058C11.3438 7.64331 11.4836 7.7832 11.6562 7.7832ZM13.4056 6.43176H14.2181V7.15808H13.4056V6.43176ZM11.9689 6.43176H12.7805V7.15808H11.9689V6.43176Z"/>
<path d="M11.6562 13.0391H13.0928H13.093H14.5308C14.7034 13.0391 14.8433 12.8992 14.8433 12.7264V11.375C14.8433 11.2024 14.7034 11.0625 14.5308 11.0625H13.0941H13.094H11.6562C11.4836 11.0625 11.3438 11.2024 11.3438 11.375V12.7264C11.3438 12.8992 11.4836 13.0391 11.6562 13.0391ZM13.4062 11.6876H14.2181V12.4139H13.4058L13.4062 11.6876ZM11.9689 11.6876H12.7811L12.7806 12.4139H11.9689V11.6876Z"/>
<path d="M5.71887 8.22717H8.92981C9.10242 8.22717 9.24243 8.08716 9.24243 7.91455V6.21887C9.24243 6.04626 9.10242 5.90625 8.92981 5.90625H5.71887C5.54614 5.90625 5.40625 6.04626 5.40625 6.21887V7.91455C5.40625 8.08716 5.54614 8.22717 5.71887 8.22717ZM7.63647 6.53137H8.61731V7.60205H7.63647V6.53137ZM6.03137 6.53137H7.01135V7.60205H6.03137V6.53137Z"/>
<path d="M5.71887 11.0767H8.92981C9.10242 11.0767 9.24243 10.9368 9.24243 10.7642V9.06848C9.24243 8.89587 9.10242 8.75586 8.92981 8.75586H5.71887C5.54614 8.75586 5.40625 8.89575 5.40625 9.06848V10.7642C5.40625 10.9368 5.54614 11.0767 5.71887 11.0767ZM7.63647 9.38098H8.61731V10.4515H7.63647V9.38098ZM6.03137 9.38098H7.01135V10.4515H6.03137V9.38098Z"/>
<path d="M5.71887 5.37842H8.92981C9.10242 5.37842 9.24243 5.23853 9.24243 5.06592V3.36926C9.24243 3.19666 9.10242 3.05664 8.92981 3.05664H5.71887C5.54614 3.05664 5.40625 3.19666 5.40625 3.36926V5.06592C5.40625 5.23853 5.54614 5.37842 5.71887 5.37842ZM7.63647 3.68176H8.61731V4.7533H7.63647V3.68176ZM6.03137 3.68176H7.01135V4.7533H6.03137V3.68176Z"/>
<path d="M15.6874 4.39514H15.2727V2.17297C15.2727 2.00037 15.1328 1.86035 14.9602 1.86035C14.7876 1.86035 14.6476 2.00037 14.6476 2.17297V4.39514H14.0228V3.45886C14.0228 3.28625 13.8829 3.14636 13.7103 3.14636C13.5377 3.14636 13.3977 3.28625 13.3977 3.45886V4.39514H10.865V1.88794C10.865 1.71533 10.7251 1.57532 10.5525 1.57532H10.2343V0.718872C10.2343 0.546265 10.0944 0.40625 9.92175 0.40625H4.96838C4.79578 0.40625 4.65576 0.546143 4.65576 0.718872V1.57532H4.18262C4.01001 1.57532 3.87012 1.71533 3.87012 1.88794V5.90674H0.312622C0.139893 5.90674 0 6.04675 0 6.21936V15.2812C0 15.4539 0.139893 15.5938 0.312622 15.5938H10.547H10.5471H15.6874C15.86 15.5938 16 15.4539 16 15.2812V4.70764C16 4.53503 15.8601 4.39514 15.6874 4.39514ZM5.28088 1.03137H9.60913V1.57544H5.28088V1.03137ZM4.18262 10.4089C4.01001 10.4089 3.87012 10.5488 3.87012 10.7216V14.9686H0.625122V6.53186H3.87012V8.23279C3.87012 8.4054 4.01001 8.54529 4.18262 8.54529C4.35522 8.54529 4.49524 8.4054 4.49524 8.23279V2.20044H10.24V4.70752L10.2347 14.9686H9.24133V12.0836C9.24133 11.911 9.10144 11.771 8.92883 11.771H5.71777C5.54504 11.771 5.40515 11.9109 5.40515 12.0836V14.9686H4.49524V10.7216C4.49524 10.549 4.35522 10.4089 4.18262 10.4089ZM8.61621 14.9686H6.03027V12.3961H8.61621V14.9686ZM15.3749 14.9686H10.8599L10.8649 5.02026H15.3749V14.9686Z"/>
<path d="M2.82495 12.1816H1.53516C1.36255 12.1816 1.22266 12.3217 1.22266 12.4943V13.7076C1.22266 13.8802 1.36255 14.0201 1.53516 14.0201H2.82495C2.99756 14.0201 3.13745 13.8802 3.13745 13.7076V12.4943C3.13745 12.3217 2.99756 12.1816 2.82495 12.1816ZM2.51233 13.395H1.84778V12.8068H2.51233V13.395Z"/>
<path d="M2.82202 7.46289H1.53137C1.35876 7.46289 1.21875 7.60278 1.21875 7.77539V8.98877C1.21875 9.16138 1.35876 9.30127 1.53137 9.30127H2.82202C2.99463 9.30127 3.13452 9.16138 3.13452 8.98877V7.77539C3.13452 7.60278 2.99463 7.46289 2.82202 7.46289ZM2.5094 8.67615H1.84387V8.08801H2.5094V8.67615Z"/>
<path d="M4.49622 9.4707C4.49622 9.2981 4.3562 9.1582 4.18359 9.1582C4.01099 9.1582 3.87109 9.2981 3.87109 9.4707V9.47693C3.87109 9.64954 4.01099 9.78943 4.18359 9.78943C4.3562 9.78943 4.49622 9.64954 4.49622 9.47693V9.4707Z"/>
<path d="M2.82202 9.82227H1.53223C1.35974 9.82227 1.21985 9.96216 1.21973 10.1346L1.21875 11.348C1.21875 11.4309 1.25159 11.5105 1.3103 11.5692C1.3689 11.6278 1.44836 11.6608 1.53137 11.6608H2.82202C2.99463 11.6608 3.13452 11.5209 3.13452 11.3483V10.1349C3.13452 9.96228 2.99463 9.82227 2.82202 9.82227ZM2.5094 11.0356H1.84412L1.8446 10.4474H2.5094V11.0356Z"/>
</g>
<defs>
<clipPath id="clip0">
<rect width="16" height="16"/>
</clipPath>
</defs>
</svg>
