<svg width="16" height="16" viewBox="0 0 16 16" fill="currentColor" xmlns="http://www.w3.org/2000/svg">
<g clip-path="url(#clip0)">
<path d="M3.83594 13.9961C3.91809 13.9961 3.99878 13.9626 4.05688 13.9045C4.11499 13.8461 4.14844 13.7657 4.14844 13.6836C4.14844 13.6014 4.11499 13.5208 4.05688 13.4626C3.99878 13.4045 3.91809 13.3711 3.83594 13.3711C3.75378 13.3711 3.6731 13.4045 3.61499 13.4626C3.55688 13.5208 3.52344 13.6011 3.52344 13.6836C3.52344 13.7657 3.55688 13.8464 3.61499 13.9045C3.6731 13.9626 3.75378 13.9961 3.83594 13.9961Z" />
<path d="M15.6865 15.375H14.1421C14.307 15.2 14.4436 14.9923 14.5407 14.7558C14.7497 14.2479 14.7434 13.6909 14.523 13.1877C14.4908 13.1141 14.4542 13.0434 14.4143 12.9752C14.4997 12.9562 14.5841 12.9272 14.6659 12.8884C15.0785 12.6924 15.3348 12.2867 15.3348 11.8299C15.3348 11.739 15.2953 11.6527 15.2265 11.5934L12.8286 9.52427L11.9271 6.84361C11.5514 5.72655 10.5672 4.94323 9.41722 4.81103C9.75731 4.45739 9.96702 3.97741 9.96702 3.44909V3.03954C9.96702 2.43273 9.69078 1.88952 9.25767 1.52832C9.25767 1.52673 9.25792 1.52514 9.25792 1.52356V1.25793C9.25792 0.56433 8.69359 0 7.99998 0C7.30638 0 6.74217 0.56433 6.74217 1.25793V1.52356C6.74217 1.52514 6.7423 1.52673 6.74242 1.52832C6.30919 1.88952 6.03295 2.43273 6.03295 3.03954V3.44909C6.03295 3.97741 6.24266 4.45739 6.58287 4.81103C5.43273 4.94311 4.4486 5.72643 4.07299 6.84361L3.1715 9.52427L0.773558 11.5934C0.704711 11.6527 0.66516 11.739 0.66516 11.8299C0.66516 12.2867 0.921507 12.6924 1.33423 12.8884C1.41601 12.9273 1.50036 12.9562 1.58569 12.9753C1.54577 13.0434 1.50915 13.1141 1.47693 13.1877C1.25659 13.691 1.25036 14.2479 1.45923 14.756C1.55639 14.9923 1.69299 15.2 1.85791 15.375H0.312499C0.139892 15.375 0 15.515 0 15.6875C0 15.8601 0.139892 16 0.312499 16H15.6865C15.8591 16 15.999 15.8601 15.999 15.6875C15.999 15.515 15.8591 15.375 15.6865 15.375ZM10.384 9.57774L10.5093 9.87657C10.7123 10.3611 11.0348 10.7925 11.442 11.1244L12.0432 11.6142L10.384 10.9988V9.57774ZM7.99998 0.624999C8.32103 0.624999 8.58629 0.865355 8.62694 1.17541C8.42992 1.10901 8.21922 1.07239 7.99998 1.07239C7.78087 1.07239 7.57018 1.10901 7.37315 1.17541C7.41368 0.865355 7.67906 0.624999 7.99998 0.624999ZM6.65795 3.03954C6.65795 2.29956 7.26 1.69751 7.99998 1.69751C8.73997 1.69751 9.34202 2.29956 9.34202 3.03954V3.44909C9.34202 4.18908 8.73997 4.79113 7.99998 4.79113C7.26 4.79113 6.65795 4.18908 6.65795 3.44909V3.03954ZM1.30505 11.9603L3.64452 9.94163C3.687 9.90501 3.71874 9.85765 3.73669 9.80455L4.6654 7.04283C4.99254 6.06981 5.90209 5.41601 6.9287 5.41601H9.07139C10.0979 5.41601 11.0074 6.06981 11.3347 7.04283L12.2634 9.80455C12.2812 9.85765 12.3131 9.90501 12.3554 9.94163L14.695 11.9603C14.6579 12.1191 14.5525 12.2503 14.3976 12.324C14.2021 12.4167 13.9852 12.3906 13.8175 12.2539L11.8369 10.6399C11.5089 10.3727 11.2491 10.0251 11.0857 9.63499L10.384 7.9608V7.13011C10.384 6.95763 10.244 6.81761 10.0715 6.81761C9.89891 6.81761 9.75901 6.95763 9.75901 7.13011V10.9035H6.23973V8.02769C6.23973 8.02672 6.23973 8.02562 6.23973 8.02452V7.13011C6.23973 6.95763 6.09984 6.81761 5.92723 6.81761C5.75463 6.81761 5.61474 6.95763 5.61474 7.13011V7.9641L4.9143 9.63499C4.75085 10.0251 4.49108 10.3727 4.1632 10.6399L2.18249 12.2539C2.01477 12.3906 1.79785 12.4168 1.60241 12.324C1.44763 12.2503 1.34216 12.1191 1.30505 11.9603ZM5.61474 10.9992L3.9569 11.6142L4.55797 11.1244C4.9652 10.7925 5.28771 10.3611 5.49071 9.87657L5.61474 9.58091V10.9992ZM2.03723 14.5183C1.89343 14.1684 1.8977 13.7849 2.04943 13.4385C2.20117 13.092 2.4801 12.8287 2.83471 12.6971L5.98461 11.5285H10.0154L13.1654 12.6971C13.52 12.8287 13.7988 13.0919 13.9505 13.4385C14.1023 13.7849 14.1065 14.1684 13.9627 14.5183C13.7496 15.0366 13.263 15.3563 12.7375 15.375H12.6477C12.4997 15.3706 12.3497 15.3425 12.2029 15.2878L9.39195 14.2419H9.80919C9.92625 14.2419 10.0334 14.1766 10.087 14.0725C10.1406 13.9685 10.1316 13.8432 10.0636 13.748L9.75499 13.3154L12.0776 13.9842C12.1065 13.9925 12.1356 13.9966 12.1643 13.9966C12.3 13.9966 12.425 13.9073 12.4645 13.7705C12.5122 13.6046 12.4165 13.4314 12.2506 13.3836L8.72764 12.3692C8.27647 12.1681 7.75731 12.1295 7.26097 12.2846L4.83935 13.0425C4.67467 13.0941 4.58288 13.2694 4.63439 13.4341C4.68603 13.5987 4.86132 13.6905 5.02599 13.639L7.44762 12.8812C7.79234 12.7733 8.15282 12.7992 8.4669 12.9374C8.47813 12.9433 8.4901 12.9486 8.5023 12.9533C8.72166 13.057 8.91649 13.2164 9.0648 13.4242L9.20225 13.6169H8.34398C8.30675 13.6169 8.26988 13.6236 8.23497 13.6366L3.79711 15.2878C3.65063 15.3424 3.50085 15.3705 3.35314 15.375H3.26183C2.73657 15.356 2.25036 15.0363 2.03723 14.5183V14.5183ZM7.99998 14.391L10.6448 15.375H5.35521L7.99998 14.391Z"/>
</g>
<defs>
<clipPath id="clip0">
<rect width="16" height="16" fill="white"/>
</clipPath>
</defs>
</svg>
