<svg width="23" height="23" viewBox="0 0 23 23" fill="currentColor" xmlns="http://www.w3.org/2000/svg">
<g clip-path="url(#clip0)">
<path d="M16.4653 8.95322C16.4653 8.72102 16.2894 8.52655 16.0584 8.50319L9.58008 7.84796C9.54976 7.84495 9.51921 7.84495 9.48907 7.84796L3.01084 8.50314C2.77976 8.5265 2.60394 8.72101 2.60394 8.95317V10.3603C2.56827 11.765 2.93523 12.9032 3.66526 13.6525C4.2554 14.2582 5.07006 14.5918 5.95924 14.5918C6.75997 14.5918 7.56884 14.3159 8.17834 13.8349C8.85468 13.3011 9.23701 12.5656 9.25502 11.7635C9.25952 11.5619 9.34334 11.4597 9.50412 11.4597C9.5339 11.4597 9.79566 11.4682 9.80253 11.764C9.82122 12.5659 10.2047 13.3014 10.8825 13.835C11.4931 14.3159 12.3032 14.5917 13.1049 14.5918C13.105 14.5918 13.1051 14.5918 13.1053 14.5918C13.9965 14.5918 14.8128 14.2577 15.4038 13.6512C16.1339 12.9019 16.5008 11.7641 16.4653 10.3603V8.95322ZM14.7558 13.0199C14.3365 13.4502 13.7504 13.6871 13.1053 13.6871C13.1052 13.6871 13.1051 13.6871 13.105 13.6871C11.9736 13.687 10.735 12.9437 10.707 11.7432C10.6893 10.9715 10.074 10.555 9.50416 10.555C8.94398 10.555 8.36786 10.9632 8.35048 11.7434C8.32361 12.944 7.08826 13.6872 5.95929 13.6872C5.31627 13.6872 4.73175 13.4507 4.31335 13.0213C3.75654 12.4498 3.47829 11.5358 3.50857 10.3781C3.50866 10.3742 3.50875 10.3702 3.50875 10.3663V9.36223L9.53457 8.75277L15.5605 9.36223V10.3663C15.5605 10.3702 15.5605 10.3742 15.5607 10.3781C15.5909 11.5349 15.3126 12.4484 14.7558 13.0199Z"/>
<path d="M9.71403 18.1289C8.8766 18.1289 8.19531 18.8104 8.19531 19.648C8.19531 20.4864 8.8766 21.1685 9.71403 21.1685C10.5521 21.1685 11.234 20.4864 11.234 19.648C11.234 18.8104 10.5521 18.1289 9.71403 18.1289ZM9.71403 20.2638C9.37555 20.2638 9.10013 19.9876 9.10013 19.648C9.10013 19.3092 9.37555 19.0336 9.71403 19.0336C10.0532 19.0336 10.3291 19.3092 10.3291 19.648C10.3291 19.9875 10.0532 20.2638 9.71403 20.2638Z"/>
<path d="M21.615 14.152C21.3651 14.152 21.1625 14.3545 21.1625 14.6043V17.0611C21.1625 17.9711 20.7547 18.1466 20.0822 18.3199L13.0656 19.6989C13.0659 19.6816 13.067 19.6646 13.067 19.6473C13.067 19.3069 13.0156 18.9783 12.9209 18.6686L19.793 17.293C20.0044 17.2507 20.1566 17.0651 20.1566 16.8495V7.99686H21.1697L21.1754 10.5639C21.176 10.8134 21.3784 11.0152 21.6278 11.0152C21.6281 11.0152 21.6284 11.0152 21.6287 11.0152C21.8786 11.0147 22.0807 10.8117 22.0802 10.5619L22.0674 4.80449L22.0676 4.6067C22.0696 3.43006 22.029 3.3147 21.3434 2.55013L19.5686 0.565482C18.8638 -0.223346 17.9565 -0.0881764 17.4117 0.371195C16.8708 0.827286 16.605 1.70052 17.1779 2.42049L19.2517 5.02667V8.42066H18.1496V7.53951C18.1496 7.30731 17.9738 7.1128 17.7427 7.08944L9.58173 6.26499C9.55145 6.26198 9.521 6.26198 9.49081 6.26499L1.33111 7.08935C1.10003 7.11271 0.924164 7.30722 0.924164 7.53942V10.3409C0.859836 13.1205 2.15475 15.2065 4.38845 15.9211C4.88704 16.081 5.41384 16.162 5.95438 16.162C7.29251 16.162 8.59606 15.6632 9.53232 14.8096C10.469 15.6636 11.7737 16.1626 13.1138 16.1626C13.6491 16.1626 14.1712 16.0833 14.6658 15.9267C15.8876 15.5397 16.8138 14.779 17.4189 13.6657C17.7204 13.111 17.9311 12.4784 18.047 11.7948H19.2517V16.4787L12.526 17.825C11.9279 16.9055 10.8919 16.2959 9.71564 16.2959C7.86841 16.2959 6.3656 17.7993 6.3656 19.6473C6.3656 21.4959 7.86841 23 9.71564 23C11.2142 23 12.486 22.0108 12.9134 20.6509L20.2693 19.2051C20.2778 19.2035 20.2861 19.2016 20.2945 19.1994C20.8699 19.0519 22.0673 18.7448 22.0673 17.0611V14.6044C22.0673 14.3545 21.8648 14.152 21.615 14.152ZM20.1565 7.09218V6.1287H21.1655L21.1676 7.09218H20.1565ZM17.8858 1.85712C17.6218 1.52533 17.8303 1.20167 17.995 1.06277C18.1026 0.97198 18.4857 0.711388 18.8939 1.16833L20.6697 3.15406C20.9522 3.4691 21.0686 3.60202 21.113 3.73018C21.164 3.87699 21.1636 4.1356 21.1627 4.60513L21.1625 4.80548L21.1634 5.22401H20.1565V4.86859C20.1565 4.76631 20.1219 4.66703 20.0581 4.58693L17.8858 1.85712ZM14.3926 15.0642C13.9867 15.1927 13.5564 15.2579 13.1138 15.2579C11.8581 15.2579 10.6456 14.7377 9.8704 13.8665C9.78456 13.77 9.66156 13.7148 9.53245 13.7148C9.53241 13.7148 9.53241 13.7148 9.53241 13.7148C9.4033 13.7148 9.28031 13.77 9.19446 13.8664C8.41942 14.7373 7.20815 15.2573 5.95443 15.2573C5.50781 15.2573 5.07387 15.1908 4.66454 15.0596C2.0243 14.2149 1.80194 11.4895 1.82885 10.3569C1.82894 10.3534 1.82898 10.3497 1.82898 10.3462V7.94839L9.53618 7.16963L17.2447 7.94839V10.3462C17.2447 10.3496 17.2448 10.3531 17.2449 10.3566C17.2711 11.4921 17.0458 14.2238 14.3926 15.0642ZM18.1428 10.8901C18.151 10.7093 18.1538 10.5264 18.1496 10.341V9.32525H19.2517V10.8901H18.1428ZM9.71569 22.0953C8.36731 22.0953 7.27046 20.9971 7.27046 19.6473C7.27046 18.2981 8.36731 17.2005 9.71569 17.2005C11.0646 17.2005 12.1621 18.2981 12.1621 19.6473C12.1621 20.9971 11.0646 22.0953 9.71569 22.0953Z"/>
<path d="M21.6165 12.0723C21.3666 12.0723 21.1641 12.2748 21.1641 12.5246V12.5375C21.1641 12.7873 21.3667 12.9898 21.6165 12.9898C21.8663 12.9898 22.0688 12.7873 22.0688 12.5375V12.5246C22.0688 12.2748 21.8663 12.0723 21.6165 12.0723Z"/>
</g>
<defs>
<clipPath id="clip0">
<rect width="23" height="23"/>
</clipPath>
</defs>
</svg>
