<svg width="23" height="23" viewBox="0 0 23 23" fill="currentColor" xmlns="http://www.w3.org/2000/svg">
<g clip-path="url(#clip0)">
<path d="M21.6917 18.9834C21.3442 18.6291 20.9038 18.3974 20.4246 18.3107V17.9552H20.6762C20.926 17.9552 21.1286 17.7526 21.1286 17.5028V16.6148H21.8945C22.1163 16.6148 22.3055 16.4539 22.341 16.2349C22.3684 16.0661 22.3724 15.5949 22.3701 14.8378C22.3698 14.749 22.3696 14.6807 22.3698 14.6428C22.3712 13.0859 21 12.0324 19.6407 11.679L15.7642 10.6682L13.6981 10.1301C13.6572 9.68637 13.3431 9.32084 12.926 9.2031L12.2704 6.45482C12.5326 6.264 12.7061 5.93634 12.7061 5.56474V4.71437C12.7061 4.30886 12.4996 3.95564 12.1966 3.77546C12.2047 3.21748 12.2105 2.67788 12.202 2.10266C12.1918 1.46198 12.0133 0.924537 11.6859 0.548361C11.378 0.194736 10.9579 0 10.5029 0C9.75636 0 8.95963 0.558783 8.95347 1.59482L8.95176 1.95922H3.67964C3.42979 1.95922 3.22723 2.16178 3.22723 2.41163V4.10092V6.33502C3.22723 6.58487 3.42979 6.78743 3.67964 6.78743C3.9295 6.78743 4.13201 6.58487 4.13201 6.33502V4.55333H6.14981C6.14253 4.60593 6.13871 4.65975 6.13871 4.71451V5.56488C6.13871 6.15268 6.57297 6.63083 7.10669 6.63083H11.3822L11.5735 7.43304L9.2699 7.44328C8.49796 7.44715 7.82602 7.65765 7.32676 8.05207C6.75095 8.5069 6.43313 9.18531 6.40757 10.0139C6.4073 10.0232 6.4073 10.0324 6.40757 10.0417C6.42832 10.7221 6.1998 11.2419 5.76402 11.5055C5.43079 11.707 5.02317 11.7191 4.70027 11.5371C4.3338 11.3304 4.13201 10.9088 4.13201 10.35V9.91462C4.13201 9.66476 3.92945 9.46221 3.67964 9.46221C3.42979 9.46221 3.22723 9.66476 3.22723 9.91462V14.5317C3.22723 14.899 3.32507 15.26 3.51047 15.5772C3.68072 15.9287 3.9339 16.1793 4.28348 16.3423C4.60063 16.5204 5.0109 16.5907 5.43092 16.6155V17.5028C5.43092 17.7527 5.63347 17.9552 5.88329 17.9552H6.04101L5.76878 18.2713H4.64331C4.64111 18.2713 4.63891 18.2713 4.63675 18.2713L4.53963 18.2726C3.14858 18.2919 1.04641 18.3209 0.636276 20.5658C0.612153 20.6978 0.647911 20.8337 0.733846 20.9368C0.819782 21.0399 0.94709 21.0995 1.08127 21.0995H1.9917C2.07023 21.5043 2.25283 21.8845 2.52556 22.2001C2.89418 22.6267 3.40239 22.9088 3.95663 22.9947C3.97954 22.9982 4.00268 23 4.0259 23H4.61914C4.64232 23 4.66545 22.9982 4.68832 22.9947C5.24306 22.9089 5.75171 22.6267 6.12047 22.2002C6.39333 21.8846 6.57603 21.5043 6.65455 21.0995H7.26477C7.34334 21.5043 7.52585 21.8845 7.79862 22.2001C8.16725 22.6267 8.6754 22.9089 9.22961 22.9947C9.25252 22.9983 9.27565 23.0001 9.29883 23.0001H9.89211C9.91529 23.0001 9.93843 22.9983 9.96129 22.9948C10.5161 22.9089 11.0247 22.6268 11.3935 22.2003C11.6664 21.8847 11.849 21.5044 11.9276 21.0996H12.3913C12.4699 21.5045 12.6526 21.8847 12.9255 22.2003C13.2942 22.6268 13.8029 22.909 14.3576 22.9948C14.3805 22.9983 14.4036 23.0001 14.4268 23.0001H15.02C15.0432 23.0001 15.0663 22.9983 15.0893 22.9947C15.6435 22.9089 16.1518 22.6267 16.5203 22.2001C16.7931 21.8845 16.9757 21.5043 17.0542 21.0995H17.6644C17.7429 21.5044 17.9256 21.8846 18.1985 22.2002C18.5672 22.6267 19.0759 22.9089 19.6306 22.9947C19.6535 22.9982 19.6766 23 19.6998 23H20.2931C20.3163 23 20.3394 22.9982 20.3624 22.9947C20.9166 22.9088 21.4248 22.6266 21.7934 22.2C22.1659 21.7689 22.3711 21.2173 22.3711 20.647C22.3711 20.021 22.1298 19.4301 21.6917 18.9834ZM20.2238 17.0504H16.7353V16.6148H20.2238V17.0504ZM6.33565 17.0504V16.6211C6.34477 16.6209 6.35407 16.6207 6.3631 16.6205C6.49296 16.6175 6.61556 16.6148 6.7235 16.6148H9.75039V17.0504H9.66171C9.63291 17.0446 9.60313 17.0415 9.57258 17.0415C9.54204 17.0415 9.51225 17.0446 9.48346 17.0504H6.33565ZM10.025 17.9552H10.2028C10.4526 17.9552 10.6552 17.7526 10.6552 17.5028V16.6148H15.8305V17.5028C15.8305 17.7526 16.0331 17.9552 16.2829 17.9552H16.8705L16.3105 18.6063L10.025 18.6167V17.9552ZM12.5562 10.0678C12.5571 10.0678 12.558 10.068 12.5589 10.068C12.5595 10.068 12.5601 10.0678 12.5607 10.0678H12.6369C12.7243 10.0678 12.7982 10.1417 12.7982 10.229V10.7331C12.7982 10.8205 12.7243 10.8943 12.6369 10.8943H10.1175C10.0301 10.8943 9.95631 10.8205 9.95631 10.7331V10.229C9.95631 10.1417 10.0302 10.0678 10.1175 10.0678H12.5562ZM4.13201 3.64851V2.86404H9.40206C9.65106 2.86404 9.85326 2.66279 9.85442 2.41379L9.85824 1.59967C9.86094 1.14349 10.1846 0.904816 10.5028 0.904816C10.8604 0.904816 11.2829 1.22232 11.2972 2.11672C11.305 2.64024 11.3006 3.13766 11.2935 3.64851H7.10669H4.13201ZM7.10988 5.72601C7.08953 5.71635 7.04353 5.65831 7.04353 5.56483V4.71446C7.04353 4.62143 7.08975 4.5633 7.11037 4.55328H11.7354C11.7558 4.56361 11.8012 4.62197 11.8012 4.71446V5.56483C11.8012 5.65733 11.7558 5.71563 11.7354 5.72601H7.10988ZM4.67673 15.5272C4.50755 15.4509 4.40073 15.3445 4.31947 15.1717C4.313 15.158 4.30594 15.1446 4.29813 15.1317C4.18942 14.9502 4.13196 14.7427 4.13196 14.5316V12.2487C4.17208 12.2756 4.21332 12.3012 4.25581 12.3252C4.54592 12.4888 4.87025 12.5702 5.19679 12.5702C5.55338 12.5702 5.91262 12.473 6.23224 12.2798C6.94551 11.8484 7.33871 11.0285 7.31234 10.029C7.36629 8.52074 8.70159 8.35093 9.27412 8.3481L11.7891 8.33696L11.9862 9.16312H10.1174C9.52964 9.16312 9.05145 9.64131 9.05145 10.2291V10.7332C9.05145 11.3209 9.52964 11.7992 10.1174 11.7992H12.6368C13.1131 11.7992 13.5172 11.4853 13.6536 11.0537L14.8148 11.3561L14.4699 11.5894C14.263 11.7294 14.2087 12.0107 14.3487 12.2176C14.4361 12.3469 14.5787 12.4166 14.7238 12.4166C14.811 12.4166 14.8991 12.3914 14.9768 12.3389L15.9807 11.6599L17.0746 11.9451L16.7293 12.179C16.5224 12.3191 16.4684 12.6005 16.6085 12.8073C16.696 12.9364 16.8384 13.006 16.9835 13.006C17.0708 13.006 17.1591 12.9808 17.2368 12.9281L18.2395 12.2488L19.4129 12.5547C20.0606 12.7231 21.0884 13.2266 21.3833 14.1239H19.5483C19.2985 14.1239 19.0959 14.3264 19.0959 14.5763C19.0959 14.8261 19.2985 15.0287 19.5483 15.0287H21.4658C21.4661 15.2244 21.4659 15.4904 21.4628 15.71H12.8331C12.9241 15.4205 13.1175 15.2914 13.3825 15.2021C13.9011 15.0277 14.7465 15.0277 15.7262 15.0287L15.8972 15.0287C16.147 15.0287 16.3495 14.8261 16.3495 14.5763C16.3495 14.3264 16.147 14.1239 15.8972 14.1239L15.7266 14.1238C14.6245 14.1233 13.7532 14.1228 13.0939 14.3446C12.4216 14.5709 12.0246 15.0297 11.9074 15.71H6.7235C6.60532 15.71 6.47774 15.7129 6.34266 15.7159C6.23053 15.7185 6.10969 15.7211 5.98584 15.7221C5.95287 15.7144 5.91859 15.71 5.88329 15.71C5.84811 15.71 5.81411 15.7144 5.78127 15.722C5.36574 15.7173 4.94725 15.6826 4.719 15.5491C4.70525 15.541 4.69115 15.5338 4.67673 15.5272ZM4.55212 19.1773L5.97623 19.176C6.10789 19.176 6.23305 19.1186 6.31898 19.0188L7.23516 17.9552H9.12022V19.0698C9.12022 19.19 9.16797 19.3051 9.25301 19.39C9.33782 19.4747 9.45278 19.5222 9.57263 19.5222C9.57285 19.5222 9.57312 19.5222 9.57335 19.5222L16.5192 19.5108C16.6507 19.5106 16.7756 19.4531 16.8614 19.3534L18.064 17.9552H19.5199V20.1947H16.6458H12.7998H11.5191H7.6732H6.24612H2.40018H1.69351C2.12854 19.2899 3.17562 19.1963 4.55212 19.1773ZM4.58194 22.0952H4.06314C3.52403 21.9991 3.09049 21.6039 2.92505 21.0994H5.72116C5.55549 21.604 5.12164 21.9992 4.58194 22.0952ZM9.85496 22.0952H9.33612C8.79705 21.9991 8.36356 21.6039 8.19802 21.0994H10.9942C10.8285 21.604 10.3947 21.9992 9.85496 22.0952ZM14.9827 22.0952H14.4639C13.9243 21.9992 13.4904 21.604 13.3247 21.0994H16.1209C15.9554 21.6039 15.5219 21.9991 14.9827 22.0952ZM20.2558 22.0952H19.737C19.1973 21.9992 18.7635 21.604 18.5978 21.0994H19.9722C20.222 21.0994 20.4246 20.8968 20.4246 20.647V19.2413C21.0254 19.4263 21.4663 19.9901 21.4663 20.647C21.4663 21.3551 20.9482 21.9718 20.2558 22.0952Z"/>
<path d="M3.66725 8.58815C3.91711 8.58815 4.11962 8.38559 4.11962 8.13574V8.12428C4.11962 7.87447 3.91706 7.67188 3.66725 7.67188C3.4174 7.67188 3.21484 7.87443 3.21484 8.12428V8.13574C3.21484 8.38559 3.4174 8.58815 3.66725 8.58815Z"/>
<path d="M17.7454 15.0161H17.7568C18.0066 15.0161 18.2092 14.8136 18.2092 14.5637C18.2092 14.3139 18.0066 14.1113 17.7568 14.1113H17.7454C17.4955 14.1113 17.293 14.3139 17.293 14.5637C17.293 14.8136 17.4955 15.0161 17.7454 15.0161Z"/>
</g>
<defs>
<clipPath id="clip0">
<rect width="23" height="23"/>
</clipPath>
</defs>
</svg>
