<svg width="32" height="24" viewBox="0 0 32 24" fill="currentColor" xmlns="http://www.w3.org/2000/svg">
<path d="M9.8721 3.18365H19.7456C20.005 3.18365 20.2153 2.97334 20.2153 2.7139C20.2153 2.45445 20.005 2.24414 19.7456 2.24414H9.8721C9.61265 2.24414 9.40234 2.45445 9.40234 2.7139C9.40234 2.97334 9.61265 3.18365 9.8721 3.18365Z"/>
<path d="M1.04007 7.77734H10.9135C11.1729 7.77734 11.3832 7.56703 11.3832 7.30758C11.3832 7.04814 11.1729 6.83789 10.9135 6.83789H1.04007C0.780624 6.83789 0.570312 7.04814 0.570312 7.30758C0.570312 7.56703 0.780624 7.77734 1.04007 7.77734Z"/>
<path d="M3.69141 12.6103C3.69141 12.8698 3.90172 13.0801 4.16116 13.0801H14.0346C14.294 13.0801 14.5043 12.8698 14.5043 12.6103C14.5043 12.3509 14.294 12.1406 14.0346 12.1406H4.16116C3.90172 12.1406 3.69141 12.3509 3.69141 12.6103Z" />
<path d="M9.34108 18.0703H0.469757C0.210311 18.0703 0 18.2806 0 18.54C0 18.7995 0.210311 19.0098 0.469757 19.0098H9.34108C9.60052 19.0098 9.81084 18.7995 9.81084 18.54C9.81084 18.2806 9.60052 18.0703 9.34108 18.0703Z" />
<path d="M25.3045 6.12968C26.7214 6.12968 27.8701 4.98084 27.8701 3.56383C27.8701 2.14682 26.7213 0.998047 25.3045 0.998047C23.8872 0.998047 22.7383 2.14689 22.7383 3.56383C22.7382 4.98084 23.8871 6.12968 25.3045 6.12968Z" />
<path d="M29.5259 5.39C28.0526 7.45369 26.0798 7.69266 23.9569 6.43237C23.8123 6.3467 23.1712 5.99345 23.0292 5.90908C19.614 3.88167 16.2029 4.67674 13.9152 7.88034C12.9431 9.24291 15.1915 10.5344 16.1527 9.18774C17.3347 7.53254 18.8376 7.0536 20.4813 7.57787C19.6397 9.03876 18.9039 10.4908 17.8656 12.5538C16.827 14.6167 14.534 16.2642 12.3307 14.9757C10.7409 14.0465 9.30721 16.3304 10.8922 17.2567C13.9002 19.0147 17.4272 17.9352 19.2277 15.65C19.2901 15.6834 19.3561 15.7135 19.4285 15.7388C20.8994 16.2513 22.8275 17.6156 23.415 18.0991C24.0023 18.5827 25.0114 21.0459 25.6107 22.2836C26.3376 23.7854 28.6854 22.6916 27.9557 21.1834C27.2764 19.7792 26.1363 16.9766 25.2469 16.2675C24.5335 15.6989 23.1485 14.6405 21.9739 14.0401C22.7686 12.5007 23.5961 10.9779 24.4672 9.48149C27.2438 10.3322 29.8831 9.33009 31.7628 6.69706C32.7357 5.3347 30.4879 4.04318 29.5259 5.39Z" />
</svg>
