<svg width="64" height="45" viewBox="0 0 64 45" fill="currentColor" xmlns="http://www.w3.org/2000/svg">
<path d="M19.7403 5.00793H39.4873C40.0062 5.00793 40.4266 4.58731 40.4266 4.06842C40.4266 3.54953 40.0062 3.12891 39.4873 3.12891H19.7403C19.2214 3.12891 18.8008 3.54953 18.8008 4.06842C18.8008 4.58731 19.2214 5.00793 19.7403 5.00793Z"/>
<path d="M2.08015 14.1933H21.827C22.3459 14.1933 22.7665 13.7727 22.7665 13.2538C22.7665 12.7349 22.3459 12.3145 21.827 12.3145H2.08015C1.56126 12.3145 1.14062 12.7349 1.14062 13.2538C1.14062 13.7727 1.56126 14.1933 2.08015 14.1933Z"/>
<path d="M7.38281 23.8593C7.38281 24.3782 7.80344 24.7989 8.32233 24.7989H28.0692C28.5881 24.7989 29.0087 24.3782 29.0087 23.8593C29.0087 23.3404 28.5881 22.9199 28.0692 22.9199H8.32233C7.80344 22.9199 7.38281 23.3404 7.38281 23.8593Z"/>
<path d="M18.6822 34.7793H0.939513C0.420623 34.7793 0 35.1998 0 35.7187C0 36.2376 0.420623 36.6582 0.939513 36.6582H18.6822C19.201 36.6582 19.6217 36.2376 19.6217 35.7187C19.6217 35.1998 19.201 34.7793 18.6822 34.7793Z"/>
<path d="M50.6089 10.898C53.4428 10.898 55.7402 8.60035 55.7402 5.76633C55.7402 2.93231 53.4427 0.634766 50.6089 0.634766C47.7744 0.634766 45.4766 2.93245 45.4766 5.76633C45.4764 8.60035 47.7742 10.898 50.6089 10.898Z"/>
<path d="M59.0479 9.42062C56.1013 13.548 52.1556 14.026 47.9098 11.5054C47.6208 11.334 46.3384 10.6275 46.0545 10.4588C39.2242 6.40397 32.4019 7.9941 27.8266 14.4013C25.8823 17.1264 30.379 19.7095 32.3015 17.0161C34.6654 13.7057 37.6713 12.7478 40.9588 13.7964C39.2755 16.7182 37.8038 19.6222 35.7272 23.7482C33.6501 27.8741 29.064 31.169 24.6575 28.592C21.4779 26.7336 18.6105 31.3014 21.7805 33.1541C27.7965 36.67 34.8504 34.511 38.4514 29.9406C38.5763 30.0074 38.7083 30.0676 38.8532 30.1182C41.7949 31.1432 45.6511 33.8718 46.8261 34.8389C48.0007 35.806 50.0189 40.7325 51.2174 43.2078C52.6714 46.2113 57.3669 44.0237 55.9075 41.0075C54.549 38.199 52.2686 32.5938 50.49 31.1757C49.0632 30.0383 46.2932 27.9216 43.9438 26.7207C45.5333 23.642 47.1882 20.5965 48.9304 17.6036C54.4838 19.3051 59.7623 17.3008 63.5216 12.0348C65.4675 9.31002 60.9718 6.72698 59.0479 9.42062Z"/>
</svg>
