<svg width="16" height="16" viewBox="0 0 16 16" fill="none" xmlns="http://www.w3.org/2000/svg">
<path d="M13.7778 1.875H11.5556V1.4375C11.5556 1.32147 11.5087 1.21019 11.4254 1.12814C11.342 1.04609 11.229 1 11.1111 1C10.9932 1 10.8802 1.04609 10.7968 1.12814C10.7135 1.21019 10.6667 1.32147 10.6667 1.4375V1.875H5.33333V1.4375C5.33333 1.32147 5.28651 1.21019 5.20316 1.12814C5.11981 1.04609 5.00676 1 4.88889 1C4.77101 1 4.65797 1.04609 4.57462 1.12814C4.49127 1.21019 4.44444 1.32147 4.44444 1.4375V1.875H2.22222C1.63304 1.87561 1.06817 2.10628 0.651563 2.51638C0.23495 2.92648 0.000623538 3.48253 0 4.0625V12.8125C0.000623538 13.3925 0.23495 13.9485 0.651563 14.3586C1.06817 14.7687 1.63304 14.9994 2.22222 15H13.7778C14.367 14.9994 14.9318 14.7687 15.3484 14.3586C15.765 13.9485 15.9994 13.3925 16 12.8125V4.0625C15.9994 3.48253 15.765 2.92648 15.3484 2.51638C14.9318 2.10628 14.367 1.87561 13.7778 1.875ZM15.1111 12.8125C15.1107 13.1605 14.9701 13.4941 14.7202 13.7402C14.4702 13.9862 14.1313 14.1246 13.7778 14.125H2.22222C1.86872 14.1246 1.52981 13.9862 1.27984 13.7402C1.02988 13.4941 0.889277 13.1605 0.888889 12.8125V6.25H15.1111V12.8125ZM15.1111 5.375H0.888889V4.0625C0.889277 3.71452 1.02988 3.3809 1.27984 3.13484C1.52981 2.88879 1.86872 2.75038 2.22222 2.75H4.44444V3.1875C4.44444 3.30353 4.49127 3.41481 4.57462 3.49686C4.65797 3.57891 4.77101 3.625 4.88889 3.625C5.00676 3.625 5.11981 3.57891 5.20316 3.49686C5.28651 3.41481 5.33333 3.30353 5.33333 3.1875V2.75H10.6667V3.1875C10.6667 3.30353 10.7135 3.41481 10.7968 3.49686C10.8802 3.57891 10.9932 3.625 11.1111 3.625C11.229 3.625 11.342 3.57891 11.4254 3.49686C11.5087 3.41481 11.5556 3.30353 11.5556 3.1875V2.75H13.7778C14.1313 2.75038 14.4702 2.88879 14.7202 3.13484C14.9701 3.3809 15.1107 3.71452 15.1111 4.0625V5.375Z" fill="#A1A7B6"/>
</svg>
