<svg width="18" height="16" viewBox="0 0 18 16" fill="none" xmlns="http://www.w3.org/2000/svg">
<path d="M14.7779 1.775H14.7778H12.6556V1.4375C12.6556 1.29443 12.5978 1.15755 12.4955 1.05688L12.4254 1.12814L12.4955 1.05688C12.3933 0.956253 12.255 0.9 12.1111 0.9C11.9672 0.9 11.8289 0.956253 11.7267 1.05688C11.6244 1.15755 11.5667 1.29443 11.5667 1.4375V1.775H6.43333V1.4375C6.43333 1.29443 6.37558 1.15755 6.27331 1.05688C6.17109 0.956253 6.03278 0.9 5.88889 0.9C5.745 0.9 5.60669 0.956253 5.50447 1.05688C5.40219 1.15755 5.34444 1.29443 5.34444 1.4375V1.775L3.22222 1.775L3.22212 1.775C2.60696 1.77564 2.01687 2.01646 1.58141 2.44512C1.1459 2.87382 0.900653 3.45542 0.9 4.06239V4.0625L0.9 12.8125L0.9 12.8126C0.900653 13.4196 1.1459 14.0012 1.58141 14.4299C2.01687 14.8585 2.60696 15.0994 3.22212 15.1H3.22222H14.7778H14.7779C15.393 15.0994 15.9831 14.8585 16.4186 14.4299C16.8541 14.0012 17.0993 13.4196 17.1 12.8126V12.8125V4.0625V4.06239C17.0993 3.45542 16.8541 2.87382 16.4186 2.44512C15.9831 2.01646 15.393 1.77564 14.7779 1.775ZM16.0111 12.8124C16.0108 13.1334 15.8811 13.4414 15.65 13.6689C15.4189 13.8964 15.1052 14.0246 14.7777 14.025H3.22233C2.89481 14.0246 2.58111 13.8964 2.34999 13.6689C2.11893 13.4414 1.98925 13.1334 1.98889 12.8124L1.98889 6.35H16.0111V12.8124ZM16.0111 5.275H1.98889L1.98889 4.06261C1.98889 4.06259 1.98889 4.06258 1.98889 4.06256C1.98926 3.74159 2.11894 3.43355 2.34999 3.20611C2.58109 2.97862 2.89474 2.85038 3.22222 2.85C3.22226 2.85 3.22229 2.85 3.22233 2.85L5.34444 2.85V3.1875C5.34444 3.33057 5.40219 3.46745 5.50447 3.56812C5.60669 3.66875 5.745 3.725 5.88889 3.725C6.03278 3.725 6.17109 3.66875 6.27331 3.56812C6.37558 3.46745 6.43333 3.33057 6.43333 3.1875V2.85H11.5667V3.1875C11.5667 3.33057 11.6244 3.46745 11.7267 3.56812C11.8289 3.66875 11.9672 3.725 12.1111 3.725C12.255 3.725 12.3933 3.66875 12.4955 3.56812C12.5978 3.46745 12.6556 3.33057 12.6556 3.1875V2.85L14.7777 2.85C14.7777 2.85 14.7777 2.85 14.7778 2.85C15.1053 2.85038 15.4189 2.97862 15.65 3.20611C15.8811 3.43357 16.0108 3.74163 16.0111 4.06261V5.275Z" fill="#202224" stroke="#202224" stroke-width="0.2"/>
</svg>
