<svg width="20" height="20" viewBox="0 0 20 20" fill="currentColor" xmlns="http://www.w3.org/2000/svg">
<path d="M16.9598 3.03979C16.9042 2.9844 16.834 2.9458 16.7575 2.92838C16.6809 2.91097 16.601 2.91546 16.5269 2.94134L2.36019 7.94134C2.2788 7.97002 2.20832 8.02328 2.15849 8.09374C2.10867 8.16421 2.08195 8.2484 2.08203 8.33471C2.08211 8.42101 2.10899 8.50515 2.15895 8.57552C2.20891 8.64589 2.27949 8.69901 2.36094 8.72754L8.96015 11.0396L11.2722 17.6392C11.3007 17.7205 11.3538 17.7909 11.424 17.8408C11.4942 17.8907 11.5782 17.9176 11.6644 17.9178H11.6651C11.7513 17.9179 11.8354 17.8912 11.9058 17.8414C11.9762 17.7916 12.0294 17.7212 12.0582 17.6399L17.0581 3.47325C17.0841 3.39906 17.0887 3.31905 17.0713 3.24239C17.0539 3.16574 17.0152 3.09553 16.9598 3.03979ZM11.6668 16.2451L9.76694 10.822L11.9386 8.64992C12.0148 8.57138 12.057 8.46604 12.0562 8.35663C12.0553 8.24723 12.0115 8.14254 11.9341 8.06518C11.8568 7.98782 11.7521 7.94399 11.6427 7.94316C11.5333 7.94233 11.4279 7.98457 11.3494 8.06075L9.17761 10.2328L3.75494 8.33284L15.9824 4.01721L11.6668 16.2451Z"/>
</svg>
