<svg width="33" height="33" viewBox="0 0 33 33" fill="currentColor"  xmlns="http://www.w3.org/2000/svg">
<path d="M16.4979 11.6895C15.5465 11.6895 14.6164 11.9716 13.8254 12.5001C13.0343 13.0287 12.4178 13.78 12.0537 14.659C11.6896 15.5379 11.5943 16.5051 11.7799 17.4383C11.9655 18.3714 12.4237 19.2285 13.0964 19.9012C13.7691 20.574 14.6263 21.0321 15.5594 21.2178C16.4925 21.4034 17.4597 21.3081 18.3387 20.944C19.2177 20.58 19.9689 19.9634 20.4975 19.1724C21.0261 18.3813 21.3082 17.4513 21.3082 16.4999C21.3067 15.2246 20.7994 14.0019 19.8977 13.1001C18.9959 12.1983 17.7732 11.691 16.4979 11.6895ZM16.4979 19.9358C15.8183 19.9358 15.154 19.7343 14.5889 19.3567C14.0239 18.9792 13.5835 18.4426 13.3234 17.8147C13.0634 17.1869 12.9953 16.496 13.1279 15.8295C13.2605 15.163 13.5877 14.5507 14.0683 14.0702C14.5488 13.5897 15.1611 13.2624 15.8276 13.1298C16.4941 12.9973 17.185 13.0653 17.8128 13.3254C18.4407 13.5855 18.9773 14.0259 19.3548 14.5909C19.7324 15.156 19.9339 15.8203 19.9339 16.4999C19.9328 17.4108 19.5704 18.2841 18.9263 18.9283C18.2821 19.5724 17.4088 19.9347 16.4979 19.9358Z" />
<path d="M27.6522 17.8734C27.4425 17.7112 27.2727 17.5031 27.1559 17.2651C27.0391 17.0271 26.9784 16.7655 26.9784 16.5004C26.9784 16.2352 27.0391 15.9736 27.1559 15.7356C27.2727 15.4976 27.4425 15.2895 27.6522 15.1273C28.1923 14.7101 28.5801 14.1267 28.7558 13.4671C28.9314 12.8075 28.885 12.1085 28.6238 11.4779C28.3627 10.8473 27.9012 10.3202 27.3107 9.97795C26.7201 9.6357 26.0334 9.49733 25.3564 9.58421C25.0934 9.61797 24.8262 9.59101 24.5752 9.50538C24.3243 9.41975 24.0963 9.27774 23.9088 9.09025C23.7214 8.90276 23.5793 8.67479 23.4937 8.42386C23.4081 8.17292 23.3811 7.90569 23.4149 7.64271C23.5017 6.96571 23.3634 6.27895 23.0211 5.68842C22.6789 5.09789 22.1517 4.63643 21.5212 4.37525C20.8906 4.11407 20.1915 4.06771 19.532 4.24331C18.8724 4.41891 18.289 4.80672 17.8717 5.34687C17.7038 5.54792 17.4938 5.70965 17.2566 5.82062C17.0193 5.9316 16.7606 5.98912 16.4986 5.98912C16.2367 5.98912 15.978 5.9316 15.7407 5.82062C15.5034 5.70965 15.2935 5.54792 15.1256 5.34687C14.7083 4.80673 14.1249 4.41893 13.4653 4.24333C12.8058 4.06772 12.1067 4.11409 11.4762 4.37525C10.8456 4.63642 10.3185 5.09787 9.9762 5.68839C9.63394 6.2789 9.49555 6.96565 9.58238 7.64264C9.61615 7.90562 9.58919 8.17285 9.50356 8.42379C9.41793 8.67473 9.27591 8.9027 9.08843 9.09018C8.90094 9.27767 8.67297 9.41968 8.42204 9.50531C8.1711 9.59094 7.90387 9.61791 7.64088 9.58414C6.96388 9.49724 6.27709 9.6356 5.68653 9.97785C5.09598 10.3201 4.6345 10.8472 4.37332 11.4778C4.11214 12.1085 4.06579 12.8075 4.24143 13.4671C4.41706 14.1267 4.80492 14.7101 5.34512 15.1273C5.55481 15.2895 5.72456 15.4976 5.84135 15.7356C5.95814 15.9736 6.01887 16.2352 6.01887 16.5004C6.01887 16.7655 5.95814 17.0271 5.84135 17.2651C5.72456 17.5031 5.55481 17.7112 5.34512 17.8734C4.8049 18.2906 4.41704 18.8741 4.2414 19.5337C4.06575 20.1932 4.1121 20.8923 4.37327 21.5229C4.63445 22.1536 5.09594 22.6807 5.6865 23.023C6.27706 23.3652 6.96386 23.5036 7.64088 23.4167C7.90387 23.3829 8.17109 23.4099 8.42203 23.4955C8.67297 23.5811 8.90094 23.7231 9.08843 23.9106C9.27592 24.0981 9.41793 24.3261 9.50356 24.577C9.58919 24.8279 9.61615 25.0952 9.58238 25.3581C9.48334 26.0365 9.61653 26.7285 9.96031 27.3217C10.3041 27.9148 10.8383 28.3744 11.4762 28.6257C11.865 28.7887 12.282 28.8736 12.7036 28.8755C13.1743 28.8732 13.6381 28.7617 14.0583 28.5498C14.4786 28.3378 14.8439 28.0312 15.1256 27.654C15.2935 27.453 15.5035 27.2913 15.7407 27.1803C15.978 27.0693 16.2367 27.0118 16.4986 27.0118C16.7606 27.0118 17.0193 27.0693 17.2566 27.1803C17.4938 27.2913 17.7038 27.453 17.8717 27.654C18.289 28.1942 18.8724 28.582 19.532 28.7576C20.1916 28.9332 20.8906 28.8869 21.5212 28.6257C22.1518 28.3645 22.6789 27.903 23.0212 27.3124C23.3634 26.7219 23.5018 26.0351 23.4149 25.3581C23.3811 25.0951 23.4081 24.8279 23.4937 24.5769C23.5794 24.326 23.7214 24.0981 23.9089 23.9106C24.0964 23.7231 24.3243 23.5811 24.5753 23.4955C24.8262 23.4099 25.0934 23.3829 25.3564 23.4167C26.0334 23.5036 26.7202 23.3652 27.3107 23.0229C27.9012 22.6807 28.3627 22.1535 28.6239 21.5229C28.8851 20.8923 28.9314 20.1933 28.7558 19.5337C28.5802 18.8741 28.1923 18.2907 27.6522 17.8735V17.8734ZM27.3535 20.9967C27.2148 21.3536 26.9588 21.6526 26.6275 21.8446C26.2962 22.0366 25.9095 22.1101 25.5309 22.053C25.0596 21.9927 24.5808 22.0412 24.1312 22.1948C23.6815 22.3483 23.2731 22.6029 22.9371 22.9388C22.6011 23.2748 22.3466 23.6832 22.1931 24.1328C22.0395 24.5825 21.991 25.0613 22.0512 25.5326C22.0996 25.9102 22.0224 26.2933 21.8315 26.6227C21.6406 26.9522 21.3466 27.2096 20.9948 27.3553C20.6431 27.5011 20.2531 27.527 19.8852 27.4291C19.5172 27.3312 19.1917 27.115 18.9589 26.8137C18.6582 26.4532 18.282 26.1633 17.8568 25.9643C17.4317 25.7653 16.968 25.6621 16.4986 25.6621C16.0292 25.6621 15.5656 25.7653 15.1404 25.9643C14.7153 26.1633 14.3391 26.4532 14.0384 26.8137C13.8056 27.115 13.4801 27.3312 13.1121 27.4291C12.7441 27.527 12.3542 27.5011 12.0025 27.3553C11.6507 27.2096 11.3567 26.9522 11.1658 26.6227C10.9748 26.2933 10.8976 25.9102 10.946 25.5326C11.0019 25.095 10.9641 24.6505 10.8352 24.2287C10.7062 23.8068 10.4889 23.4172 10.1979 23.0858C9.90682 22.7543 9.54859 22.4885 9.14696 22.306C8.74534 22.1236 8.3095 22.0286 7.86838 22.0275C7.73399 22.0277 7.59973 22.0362 7.4664 22.053C7.08874 22.1014 6.70566 22.0242 6.37625 21.8332C6.04685 21.6423 5.78942 21.3483 5.6437 20.9965C5.49798 20.6448 5.47206 20.2548 5.56994 19.8869C5.66783 19.519 5.88407 19.1935 6.18531 18.9606C6.56123 18.6701 6.86557 18.2972 7.07497 17.8708C7.28436 17.4443 7.39324 16.9755 7.39324 16.5004C7.39324 16.0253 7.28436 15.5565 7.07497 15.13C6.86557 14.7035 6.56123 14.3307 6.18531 14.0402C5.88407 13.8073 5.66783 13.4818 5.56994 13.1139C5.47206 12.7459 5.49798 12.356 5.6437 12.0042C5.78942 11.6525 6.04685 11.3585 6.37625 11.1675C6.70566 10.9766 7.08874 10.8994 7.4664 10.9478C7.93768 11.0081 8.41651 10.9596 8.86614 10.806C9.31576 10.6524 9.72423 10.3979 10.0602 10.0619C10.3962 9.72598 10.6507 9.31751 10.8042 8.86789C10.9578 8.41826 11.0063 7.93944 10.946 7.46815C10.8976 7.0905 10.9749 6.70741 11.1658 6.37801C11.3567 6.0486 11.6507 5.79118 12.0025 5.64546C12.3542 5.49973 12.7442 5.47382 13.1121 5.5717C13.4801 5.66958 13.8056 5.88582 14.0384 6.18706C14.3391 6.54752 14.7153 6.83751 15.1404 7.03651C15.5656 7.23551 16.0292 7.33866 16.4986 7.33866C16.968 7.33866 17.4317 7.23551 17.8568 7.03651C18.282 6.83751 18.6582 6.54752 18.9589 6.18706C19.1917 5.88582 19.5172 5.66958 19.8851 5.5717C20.2531 5.47382 20.643 5.49973 20.9948 5.64546C21.3465 5.79118 21.6405 6.0486 21.8315 6.37801C22.0224 6.70741 22.0996 7.0905 22.0512 7.46815C21.991 7.93944 22.0395 8.41826 22.193 8.86789C22.3466 9.31751 22.6011 9.72598 22.9371 10.0619C23.273 10.3979 23.6815 10.6524 24.1311 10.806C24.5808 10.9596 25.0596 11.0081 25.5309 10.9478C25.9085 10.8994 26.2916 10.9766 26.621 11.1675C26.9504 11.3585 27.2078 11.6525 27.3536 12.0042C27.4993 12.356 27.5252 12.7459 27.4273 13.1139C27.3294 13.4818 27.1132 13.8073 26.812 14.0402C26.436 14.3307 26.1317 14.7035 25.9223 15.13C25.7129 15.5565 25.604 16.0253 25.604 16.5004C25.604 16.9755 25.7129 17.4443 25.9223 17.8708C26.1317 18.2972 26.436 18.6701 26.812 18.9606C27.1212 19.1871 27.3436 19.5126 27.4422 19.8831C27.5407 20.2535 27.5094 20.6465 27.3535 20.9967Z" />
</svg>
