<svg width="16" height="16" viewBox="0 0 16 16" fill="none" xmlns="http://www.w3.org/2000/svg">
<path d="M12.8 0H4C3.46972 0.000487189 2.96129 0.211357 2.58632 0.586325C2.21136 0.961292 2.00049 1.46972 2 2V14C2.00049 14.5303 2.21136 15.0387 2.58632 15.4137C2.96129 15.7886 3.46972 15.9995 4 16H12.8C13.3303 15.9995 13.8387 15.7886 14.2137 15.4137C14.5886 15.0387 14.7995 14.5303 14.8 14V2C14.7995 1.46972 14.5886 0.961292 14.2137 0.586325C13.8387 0.211357 13.3303 0.000487189 12.8 0ZM14 14C13.9997 14.3182 13.8731 14.6232 13.6481 14.8481C13.4232 15.0731 13.1182 15.1997 12.8 15.2H4C3.68185 15.1997 3.37683 15.0731 3.15186 14.8481C2.92689 14.6232 2.80035 14.3182 2.8 14V2C2.80035 1.68185 2.92689 1.37683 3.15186 1.15186C3.37683 0.92689 3.68185 0.800349 4 0.8H12.8C13.1182 0.800349 13.4232 0.92689 13.6481 1.15186C13.8731 1.37683 13.9997 1.68185 14 2V14Z" fill="#A1A7B6"/>
<path d="M11.1992 3.19922H5.59922C5.49313 3.19922 5.39139 3.24136 5.31638 3.31638C5.24136 3.39139 5.19922 3.49313 5.19922 3.59922C5.19922 3.70531 5.24136 3.80705 5.31638 3.88206C5.39139 3.95708 5.49313 3.99922 5.59922 3.99922H11.1992C11.3053 3.99922 11.407 3.95708 11.4821 3.88206C11.5571 3.80705 11.5992 3.70531 11.5992 3.59922C11.5992 3.49313 11.5571 3.39139 11.4821 3.31638C11.407 3.24136 11.3053 3.19922 11.1992 3.19922Z" fill="#A1A7B6"/>
<path d="M11.1992 5.59961H5.59922C5.49313 5.59961 5.39139 5.64175 5.31638 5.71677C5.24136 5.79178 5.19922 5.89352 5.19922 5.99961C5.19922 6.1057 5.24136 6.20744 5.31638 6.28245C5.39139 6.35747 5.49313 6.39961 5.59922 6.39961H11.1992C11.3053 6.39961 11.407 6.35747 11.4821 6.28245C11.5571 6.20744 11.5992 6.1057 11.5992 5.99961C11.5992 5.89352 11.5571 5.79178 11.4821 5.71677C11.407 5.64175 11.3053 5.59961 11.1992 5.59961Z" fill="#A1A7B6"/>
<path d="M11.1992 8H5.59922C5.49313 8 5.39139 8.04214 5.31638 8.11716C5.24136 8.19217 5.19922 8.29391 5.19922 8.4C5.19922 8.50609 5.24136 8.60783 5.31638 8.68284C5.39139 8.75786 5.49313 8.8 5.59922 8.8H11.1992C11.3053 8.8 11.407 8.75786 11.4821 8.68284C11.5571 8.60783 11.5992 8.50609 11.5992 8.4C11.5992 8.29391 11.5571 8.19217 11.4821 8.11716C11.407 8.04214 11.3053 8 11.1992 8Z" fill="#A1A7B6"/>
<path d="M7.99922 10.4004H5.59922C5.49313 10.4004 5.39139 10.4425 5.31638 10.5175C5.24136 10.5926 5.19922 10.6943 5.19922 10.8004C5.19922 10.9065 5.24136 11.0082 5.31638 11.0832C5.39139 11.1582 5.49313 11.2004 5.59922 11.2004H7.99922C8.1053 11.2004 8.20705 11.1582 8.28206 11.0832C8.35708 11.0082 8.39922 10.9065 8.39922 10.8004C8.39922 10.6943 8.35708 10.5926 8.28206 10.5175C8.20705 10.4425 8.1053 10.4004 7.99922 10.4004Z" fill="#A1A7B6"/>
</svg>
