<svg width="16" height="16" viewBox="0 0 16 16" fill="none" xmlns="http://www.w3.org/2000/svg">
<g clip-path="url(#clip0)">
<path d="M12.8001 -0.1H12.8L4 -0.1L3.99991 -0.1C3.44313 -0.0994884 2.90931 0.121916 2.51561 0.515614C2.12192 0.909312 1.90051 1.44313 1.9 1.99991V2L1.9 14L1.9 14.0001C1.90051 14.5569 2.12192 15.0907 2.51561 15.4844C2.90931 15.8781 3.44313 16.0995 3.99991 16.1H4H12.8H12.8001C13.3569 16.0995 13.8907 15.8781 14.2844 15.4844C14.6781 15.0907 14.8995 14.5569 14.9 14.0001V14V2V1.99991C14.8995 1.44313 14.6781 0.909312 14.2844 0.515614C13.8907 0.121916 13.3569 -0.0994884 12.8001 -0.1ZM13.9 13.9999C13.8997 14.2916 13.7837 14.5712 13.5774 14.7774C13.3712 14.9837 13.0916 15.0997 12.7999 15.1H4.00011C3.70844 15.0997 3.42881 14.9837 3.22257 14.7774C3.01633 14.5712 2.90032 14.2916 2.9 13.9999V2.00011C2.9 2.00009 2.9 2.00007 2.9 2.00006C2.90033 1.70841 3.01634 1.4288 3.22257 1.22257C3.42881 1.01633 3.70844 0.90032 4.00011 0.9H12.7999C12.7999 0.9 12.7999 0.9 12.7999 0.9C13.0916 0.900334 13.3712 1.01634 13.5774 1.22257C13.7837 1.42881 13.8997 1.70844 13.9 2.00011V13.9999Z" fill="#202224" stroke="#202224" stroke-width="0.2"/>
<path d="M11.1992 3.09922H5.59922C5.46661 3.09922 5.33943 3.1519 5.24567 3.24567C5.1519 3.33943 5.09922 3.46661 5.09922 3.59922C5.09922 3.73183 5.1519 3.859 5.24567 3.95277C5.33943 4.04654 5.46661 4.09922 5.59922 4.09922H11.1992C11.3318 4.09922 11.459 4.04654 11.5528 3.95277C11.6465 3.859 11.6992 3.73183 11.6992 3.59922C11.6992 3.46661 11.6465 3.33943 11.5528 3.24567C11.459 3.1519 11.3318 3.09922 11.1992 3.09922Z" fill="#202224" stroke="#202224" stroke-width="0.2"/>
<path d="M11.1992 5.50156H5.59922C5.46661 5.50156 5.33943 5.55424 5.24567 5.64801C5.1519 5.74178 5.09922 5.86895 5.09922 6.00156C5.09922 6.13417 5.1519 6.26135 5.24567 6.35512C5.33943 6.44888 5.46661 6.50156 5.59922 6.50156H11.1992C11.3318 6.50156 11.459 6.44888 11.5528 6.35512C11.6465 6.26135 11.6992 6.13417 11.6992 6.00156C11.6992 5.86895 11.6465 5.74178 11.5528 5.64801C11.459 5.55424 11.3318 5.50156 11.1992 5.50156Z" fill="#202224" stroke="#202224" stroke-width="0.2"/>
<path d="M11.1992 7.9H5.59922C5.46661 7.9 5.33943 7.95268 5.24567 8.04645C5.1519 8.14021 5.09922 8.26739 5.09922 8.4C5.09922 8.53261 5.1519 8.65979 5.24567 8.75355C5.33943 8.84732 5.46661 8.9 5.59922 8.9H11.1992C11.3318 8.9 11.459 8.84732 11.5528 8.75355C11.6465 8.65979 11.6992 8.53261 11.6992 8.4C11.6992 8.26739 11.6465 8.14021 11.5528 8.04645C11.459 7.95268 11.3318 7.9 11.1992 7.9Z" fill="#202224" stroke="#202224" stroke-width="0.2"/>
<path d="M7.99922 10.2984H5.59922C5.46661 10.2984 5.33943 10.3511 5.24567 10.4449C5.1519 10.5387 5.09922 10.6658 5.09922 10.7984C5.09922 10.931 5.1519 11.0582 5.24567 11.152C5.33943 11.2458 5.46661 11.2984 5.59922 11.2984H7.99922C8.13183 11.2984 8.259 11.2458 8.35277 11.152C8.44654 11.0582 8.49922 10.931 8.49922 10.7984C8.49922 10.6658 8.44654 10.5387 8.35277 10.4449C8.259 10.3511 8.13183 10.2984 7.99922 10.2984Z" fill="#202224" stroke="#202224" stroke-width="0.2"/>
</g>
<defs>
<clipPath id="clip0">
<rect width="16" height="16" fill="white"/>
</clipPath>
</defs>
</svg>
