<svg width="23" height="23" viewBox="0 0 23 23" fill="currentColor" xmlns="http://www.w3.org/2000/svg">
<g clip-path="url(#clip0)">
<path d="M17.151 14.6416L17.1408 14.6467C16.9173 14.7585 16.8268 15.0302 16.9385 15.2537C17.0178 15.4122 17.1775 15.5039 17.3435 15.5039C17.4115 15.5039 17.4805 15.4885 17.5455 15.456L17.5557 15.4509C17.7791 15.3391 17.8697 15.0674 17.758 14.8439C17.6462 14.6205 17.3744 14.5299 17.151 14.6416Z"/>
<path d="M22.8433 22.2052C21.2919 20.8652 19.0478 19.8752 16.3327 19.3285C16.3679 18.9696 16.3038 18.5971 16.1259 18.254L15.1221 16.3213C15.4522 16.2257 15.7765 16.1243 16.0939 16.0166C16.3305 15.9362 16.4572 15.6793 16.3768 15.4427C16.2964 15.2061 16.0395 15.0795 15.803 15.1598C15.3319 15.3198 14.8444 15.4653 14.3443 15.5973C14.3421 15.5979 14.34 15.5983 14.3379 15.5989C13.6005 15.7933 12.8346 15.9573 12.0463 16.0878C9.8293 16.4567 7.67583 16.5188 5.98057 16.288L5.4221 12.1461C5.99171 11.8679 6.63373 11.6055 7.33074 11.3677L8.06755 12.9956C8.16467 13.2106 8.39225 13.714 9.05345 13.9069L11.0073 14.4758C11.188 14.5284 11.3681 14.5552 11.5428 14.5552C11.5428 14.5552 11.5429 14.5552 11.5429 14.5552C12.3185 14.5552 12.9699 14.0019 13.092 13.2396C13.1948 12.5973 12.8828 11.8126 11.9537 11.5074L10.8622 11.1487L10.5932 10.5201C10.7083 10.4995 10.8674 10.4723 11.1075 10.4321C11.7313 10.3286 12.9671 10.1827 13.9966 10.124C13.9919 10.3978 14.0583 10.6719 14.1941 10.9255C14.4187 11.3445 14.8102 11.657 15.2676 11.7826C15.4115 11.8224 15.5581 11.8426 15.7034 11.8426C15.7034 11.8426 15.7035 11.8426 15.7035 11.8426C16.3983 11.8426 17.0341 11.3874 17.3627 10.6553L17.5284 10.2874C19.1757 10.5645 20.2496 11.1329 20.3611 11.8016C20.4637 12.4172 19.7555 13.2326 18.4667 13.9828C18.2507 14.1084 18.1775 14.3854 18.3032 14.6013C18.3872 14.7457 18.5388 14.8263 18.6946 14.8263C18.7719 14.8263 18.8502 14.8065 18.9218 14.7648C20.6217 13.7755 21.428 12.6994 21.2536 11.6529C21.0599 10.4909 19.6768 9.67301 17.3573 9.3458L15.0982 8.63316C14.7244 7.85058 14.0916 7.2997 13.1805 6.96692C13.8892 6.36047 14.3908 5.47381 14.3908 4.44963C14.3908 3.77014 14.1864 3.11366 13.8085 2.55838C13.9467 2.42298 14.0663 2.27124 14.1594 2.10085C14.3682 1.71865 14.5208 1.08512 14.0627 0.237397C13.9467 0.0227157 13.6813 -0.0612433 13.4629 0.0475575C12.5716 0.491655 11.8744 0.528806 11.2907 0.528806C11.2139 0.528806 11.1385 0.528132 11.0645 0.527503C10.9904 0.526829 10.9177 0.5262 10.8461 0.5262C10.4971 0.5262 10.0904 0.538284 9.68074 0.682843C8.53123 1.08979 6.77268 2.28512 7.90085 5.71867C7.90098 5.71912 7.90111 5.71957 7.90125 5.72002C7.90215 5.72272 7.90296 5.72537 7.90385 5.72806C7.90772 5.73974 7.91203 5.7512 7.91675 5.76234C7.91679 5.76247 7.91684 5.76261 7.91688 5.76274C8.10519 6.20765 8.34894 6.58275 8.64322 6.88619C7.67983 7.15591 7.01719 7.67044 6.7362 8.38578C6.73584 8.38667 6.73566 8.38748 6.7353 8.38838C6.72883 8.40334 6.72223 8.41825 6.71612 8.43353C6.50997 8.95035 6.52206 9.58106 6.74761 10.0795L6.956 10.54C6.14373 10.8212 5.39906 11.1369 4.7472 11.4745C4.72914 11.4825 4.71171 11.4916 4.69504 11.5018C4.02436 11.8531 3.45385 12.2274 3.01213 12.6109C1.91321 13.541 1.78249 14.3497 1.8664 14.8646C1.95049 15.3805 2.33386 16.1082 3.67972 16.6439C4.69661 17.0569 6.06978 17.2857 7.6443 17.3252V19.1544C4.52744 19.6405 1.87934 20.7172 0.156673 22.2052C0.0136421 22.3288 -0.037479 22.5282 0.0284214 22.7053C0.0943667 22.8825 0.263408 22.9999 0.452439 22.9999H22.5475C22.7365 22.9999 22.9056 22.8825 22.9715 22.7053C23.0375 22.5282 22.9863 22.3287 22.8433 22.2052ZM11.6713 12.367C12.0544 12.4929 12.2515 12.7657 12.1985 13.0966C12.1544 13.3723 11.9345 13.6504 11.5428 13.6504C11.4539 13.6504 11.3589 13.6358 11.2604 13.6071L9.30667 13.0382C9.0844 12.9734 8.99586 12.8526 8.89196 12.6227L7.57188 9.70634C7.44808 9.43282 7.44192 9.05597 7.55652 8.76865C7.6058 8.64511 7.69973 8.48348 7.86729 8.41525C7.95012 8.3816 8.0361 8.36453 8.12289 8.36453C8.46767 8.36453 8.79762 8.63096 8.98297 9.05763L10.1107 11.6927C10.1619 11.8122 10.2619 11.9039 10.3854 11.9444L11.6713 12.367ZM16.5375 10.2843C16.3594 10.6813 16.0321 10.9378 15.7036 10.9377C15.6397 10.9377 15.5742 10.9286 15.5081 10.9103C15.2879 10.8499 15.0997 10.6997 14.9917 10.4981C14.8955 10.3184 14.8756 10.119 14.9358 9.93643L15.057 9.56884L16.6355 10.0668L16.5375 10.2843ZM14.2832 9.02591L14.2236 9.20668C13.0727 9.25555 11.6365 9.42715 10.9587 9.53959C10.5405 9.60963 10.3577 9.64224 10.2284 9.6678L9.8138 8.69929C9.62912 8.27406 9.34661 7.93862 9.01006 7.72439C9.27047 7.66123 9.52657 7.62502 9.7443 7.60445C10.1278 7.74685 10.5544 7.81967 11.0207 7.81967C11.3786 7.81967 11.7458 7.74654 12.1004 7.61155C13.2375 7.82039 13.9202 8.26206 14.2832 9.02591ZM13.486 4.44959C13.486 5.83794 12.1608 6.91485 11.0207 6.91485C10.6427 6.91485 10.3068 6.85664 10.0114 6.73903C9.99308 6.72996 9.9743 6.72174 9.95472 6.71518C9.46709 6.50467 9.09321 6.12643 8.82516 5.57488C9.02758 5.10257 9.70513 3.73802 10.8003 3.65451C11.091 3.63246 12.1679 3.52298 13.0644 3.07345C13.338 3.47815 13.486 3.95558 13.486 4.44959ZM8.57566 2.84498C8.78706 2.22438 9.24733 1.7961 9.9823 1.53595C10.2299 1.44858 10.4964 1.43102 10.8461 1.43102C10.9151 1.43102 10.9853 1.43165 11.0566 1.43227C11.1332 1.43295 11.2112 1.43362 11.2908 1.43362C11.918 1.43362 12.6069 1.38308 13.4246 1.05592C13.4831 1.2861 13.4631 1.48811 13.3654 1.66717C13.0187 2.30178 11.7573 2.6745 10.7317 2.7523C9.67733 2.83271 8.94124 3.59895 8.4851 4.29308C8.40752 3.73483 8.43757 3.25031 8.57566 2.84498ZM14.2274 16.5618L15.3227 18.6708C15.4599 18.9351 15.4702 19.2323 15.3762 19.4928C15.3678 19.5105 15.3606 19.5289 15.3546 19.548C15.2644 19.7593 15.1035 19.9419 14.8844 20.0558C14.3818 20.3169 13.76 20.12 13.4984 19.6175L13.2596 19.1575C13.2594 19.1571 13.2592 19.1567 13.259 19.1563L12.1343 16.99C12.1544 16.9867 12.1744 16.9836 12.1944 16.9803C12.8895 16.8653 13.5685 16.7253 14.2274 16.5618ZM8.54911 17.3278C9.2091 17.315 9.8969 17.2718 10.6026 17.1971V19.873C10.6026 20.4392 10.142 20.8998 9.57589 20.8998C9.00974 20.8998 8.54911 20.4392 8.54911 19.873V17.3278ZM11.5075 17.7462L12.0924 18.8728C11.8992 18.8687 11.7042 18.8664 11.5075 18.8662V17.7462ZM2.7594 14.719C2.69391 14.3168 2.99192 13.8128 3.59859 13.2999C3.60016 13.2985 3.60173 13.2972 3.60326 13.2959C3.87234 13.062 4.19771 12.8307 4.57119 12.6061L5.04485 16.1195C4.66643 16.0326 4.32134 15.9278 4.01726 15.8043C3.27187 15.5076 2.82517 15.1222 2.7594 14.719ZM1.83145 22.0951C3.34918 21.1425 5.35845 20.4404 7.65413 20.0686C7.75247 21.0422 8.57679 21.8046 9.57585 21.8046C10.6409 21.8046 11.5074 20.9381 11.5074 19.873V19.771C11.8684 19.7712 12.2235 19.7785 12.5698 19.7925L12.6955 20.0347C13.0398 20.6963 13.7155 21.0759 14.4143 21.0759C14.714 21.0759 15.018 21.006 15.3017 20.8586C15.6102 20.6982 15.8568 20.4653 16.0327 20.1917C18.0636 20.588 19.8109 21.2364 21.1721 22.0952H1.83145V22.0951Z"/>
</g>
<defs>
<clipPath id="clip0">
<rect width="23" height="23"/>
</clipPath>
</defs>
</svg>
