<svg width="23" height="23" viewBox="0 0 23 23" fill="currentColor" xmlns="http://www.w3.org/2000/svg">
<g clip-path="url(#clip0)">
<path d="M19.2655 3.10845L19.277 3.11352C19.3366 3.13989 19.3987 3.15238 19.4599 3.15238C19.6334 3.15238 19.799 3.05194 19.8739 2.88298C19.975 2.65456 19.8718 2.38731 19.6433 2.28615L19.6318 2.28107C19.4032 2.17982 19.1362 2.28314 19.0349 2.51161C18.9338 2.74009 19.037 3.00728 19.2655 3.10845Z"/>
<path d="M21.4321 4.28483C21.3002 4.07257 21.0214 4.00726 20.8091 4.13915C20.5968 4.27099 20.5316 4.54991 20.6634 4.76217C22.7047 8.04928 21.8871 12.7284 18.7194 15.888C17.7428 16.8621 16.6194 17.6096 15.429 18.1173L8.66586 11.3727L4.95397 7.67036C5.21483 7.08818 5.53885 6.51592 5.92558 5.95956C6.5044 6.40415 7.20918 6.64574 7.95134 6.64574C8.84047 6.64574 9.67665 6.30016 10.3057 5.67269C10.9351 5.04563 11.2818 4.21147 11.2821 3.32386C11.2822 2.84935 11.1824 2.39038 10.9943 1.9696C13.119 1.17763 15.3876 1.15791 17.289 1.92832C17.5206 2.02225 17.7844 1.91048 17.8782 1.67891C17.972 1.44734 17.8604 1.18356 17.6288 1.08971C15.466 0.213424 12.8885 0.253269 10.504 1.18877C10.4413 1.11424 10.3755 1.04169 10.3057 0.972064C9.67647 0.345225 8.84034 0 7.95129 0C7.06229 0 6.2262 0.345269 5.59662 0.972424C4.96753 1.60057 4.62128 2.43566 4.62155 3.32381C4.62168 4.04804 4.85258 4.73661 5.27907 5.30622C4.763 6.0287 4.34002 6.78864 4.01609 7.57077C4.00508 7.59243 3.9961 7.61475 3.98882 7.63753C3.60106 8.59189 3.36036 9.57838 3.27852 10.5694C3.11967 12.4935 3.56629 14.4043 4.57092 16.115L4.28549 16.5153L0.703145 19.3715C0.472067 19.5553 0.335325 19.8251 0.318165 20.1309C0.299567 20.4625 0.429391 20.801 0.665231 21.0361L2.28489 22.653C2.50599 22.8735 2.81272 23 3.12641 23C3.45362 23 3.75406 22.8604 3.9514 22.6159L6.84199 19.0145L7.22472 18.7439C8.58074 19.4573 10.0685 19.8204 11.6113 19.8204C12.2359 19.8204 12.8697 19.7609 13.5072 19.6411C14.1707 19.5165 14.8255 19.3262 15.4608 19.0769C15.4755 19.0721 15.49 19.0665 15.5043 19.0601C16.9302 18.4937 18.2564 17.6278 19.3584 16.5286C21.0488 14.8426 22.1836 12.6848 22.5538 10.4528C22.922 8.23306 22.5236 6.04258 21.4321 4.28483ZM6.23563 1.6131C6.69406 1.15638 7.30343 0.904816 7.95129 0.904816C8.59929 0.904816 9.20856 1.15638 9.66686 1.61287C9.78019 1.7259 9.88078 1.84822 9.96819 1.97795C9.96945 1.98002 9.97102 1.98191 9.97233 1.98393C10.2358 2.37758 10.3773 2.83974 10.3772 3.32354C10.3769 3.96894 10.1248 4.57556 9.66686 5.03183C9.20838 5.48909 8.59915 5.74088 7.95129 5.74088C7.30347 5.74088 6.6942 5.48909 6.23577 5.03183C5.77846 4.57574 5.5265 3.96903 5.52632 3.32354C5.52618 2.67743 5.77819 2.06987 6.23563 1.6131ZM6.17602 18.3985L3.24644 22.0485C3.21536 22.0871 3.16397 22.0952 3.12632 22.0952C3.05265 22.0952 2.97498 22.0634 2.9239 22.0125L1.3042 20.3956C1.24975 20.3413 1.21728 20.2572 1.22154 20.1816C1.22415 20.1356 1.23924 20.1012 1.26682 20.0793L4.89907 17.1832C4.93187 17.157 4.96093 17.1263 4.98532 17.0921L5.47609 16.4041C5.47991 16.3989 5.48369 16.3938 5.48724 16.3884L6.78413 14.5701C6.80358 14.543 6.85012 14.539 6.87617 14.539C6.9534 14.539 7.03794 14.5734 7.09117 14.6266L8.71087 16.2434C8.76891 16.3013 8.80481 16.3968 8.79811 16.4756C8.79376 16.5267 8.77529 16.5397 8.76923 16.5441L6.26771 18.3122C6.2333 18.3366 6.20244 18.3656 6.17602 18.3985ZM8.06687 18.1486L9.29153 17.2829C9.52904 17.1151 9.67409 16.8554 9.69978 16.5519C9.72907 16.2053 9.59826 15.8505 9.35002 15.6029L7.73027 13.986C7.50602 13.7624 7.19472 13.6341 6.87617 13.6341C6.53665 13.6341 6.23518 13.7831 6.04822 14.0437L5.15176 15.3006C4.03275 13.1877 3.85518 10.8407 4.59603 8.5914L8.0268 12.0133L14.4938 18.4625C12.3502 19.1351 10.0634 19.055 8.06687 18.1486Z"/>
</g>
<defs>
<clipPath id="clip0">
<rect width="23" height="23"/>
</clipPath>
</defs>
</svg>
