<svg width="8" height="8" viewBox="0 0 8 8" fill="none" xmlns="http://www.w3.org/2000/svg">
<g clip-path="url(#clip0)">
<path d="M6.20944 3.11407C6.16344 3.04257 6.08444 3.00007 5.99994 3.00007H4.24997V0.250106C4.24997 0.132107 4.16747 0.0301087 4.05197 0.00560905C3.93447 -0.0193906 3.81947 0.0411086 3.77148 0.148607L1.7715 4.64854C1.737 4.72554 1.7445 4.81554 1.7905 4.88604C1.8365 4.95704 1.9155 5.00004 2 5.00004H3.74998V7.75C3.74998 7.868 3.83247 7.97 3.94797 7.9945C3.96547 7.998 3.98297 8 3.99997 8C4.09697 8 4.18747 7.9435 4.22847 7.8515L6.22844 3.35156C6.26244 3.27406 6.25594 3.18507 6.20944 3.11407Z" fill="white"/>
</g>
<defs>
<clipPath id="clip0">
<rect width="8" height="8" fill="white"/>
</clipPath>
</defs>
</svg>
